<?xml version="1.0" encoding="UTF-8"?>
<svg xmlns="http://www.w3.org/2000/svg" xmlns:xlink="http://www.w3.org/1999/xlink" version="1.1" x="0px" y="0px" viewBox="0 0 500 500" style="background: transparent;" xml:space="preserve">
<g id="Background">
	
</g>
<g id="OBJECTS">
	<g>
		<path style="fill:#9db0ff;" d="M105.894,119.887c-23.797,31.232-34.598,71.046-35.398,110.246    c-0.679,33.264,1.711,83.382,20.764,112.003c24.104,36.199,70.224,34.236,105.23,51.73    c128.743,64.335,171.295,60.822,209.259,7.827c30.001-41.875,48.347-86.739,60.496-138.803    c5.523-23.665,12.92-93.246-13.654-134.975c-12.462-19.57-36.817-29.916-60.034-30.26c-20.777-0.31-40.953,7.726-61.725,8.265    c-38.415,0.985-71.675-24.003-107.396-34.195C177.93,58.744,133.781,83.297,105.894,119.887z"/>
		<g>
			<g>
				<path style="fill:#d3e3eb;" d="M385.435,244.476c0,6.627-3.524,9.513-9.79,9.513H116.02c-6.262,0-12.268-2.886-12.268-9.513      V67.395c0-6.631,6.006-11.809,12.268-11.809h259.625c6.266,0,9.79,5.178,9.79,11.809V244.476z"/>
				<g>
					<g>
						<rect x="114.163" y="92.938" style="fill:#FFFFFF;" width="45.312" height="44.091"/>
						<rect x="168.049" y="92.938" style="fill:#bdc6f7;" width="45.313" height="44.091"/>
						<rect x="220.712" y="92.938" style="fill:#FFFFFF;" width="45.315" height="44.091"/>
						<rect x="274.598" y="92.938" style="fill:#FFFFFF;" width="45.315" height="44.091"/>
						<rect x="328.488" y="92.938" style="fill:#FFFFFF;" width="45.31" height="44.091"/>
					</g>
					<g>
						<rect x="114.163" y="144.377" style="fill:#FFFFFF;" width="45.312" height="44.09"/>
						<rect x="220.711" y="144.377" style="fill:#FFFFFF;" width="45.316" height="44.09"/>
						<rect x="166.824" y="144.377" style="fill:#FFFFFF;" width="45.314" height="44.09"/>
						<rect x="274.598" y="144.377" style="fill:#FFFFFF;" width="45.315" height="44.09"/>
						<rect x="328.488" y="144.377" style="fill:#FFFFFF;" width="45.31" height="44.09"/>
					</g>
					<g>
						<rect x="114.163" y="197.038" style="fill:#FFFFFF;" width="45.312" height="44.09"/>
						<rect x="221.936" y="197.038" style="fill:#FFFFFF;" width="45.314" height="44.09"/>
						<rect x="168.049" y="197.038" style="fill:#FFFFFF;" width="45.313" height="44.09"/>
						<rect x="274.598" y="197.038" style="fill:#FFFFFF;" width="45.315" height="44.09"/>
						<rect x="328.488" y="197.038" style="fill:#FFFFFF;" width="45.31" height="44.09"/>
					</g>
				</g>
				<path style="fill:#6981e9;" d="M385.435,81.304V68.713c0-10.512-8.4-18.026-18.914-18.026H122.916      c-10.508,0-19.164,7.515-19.164,18.026v12.591H385.435z"/>
				<g>
					<path style="fill:#040D31;" d="M177.352,65.994c0,2.932-2.375,5.308-5.305,5.308c-2.932,0-5.308-2.376-5.308-5.308       c0-2.93,2.376-5.306,5.308-5.306C174.977,60.688,177.352,63.064,177.352,65.994z"/>
					<path style="fill:#040D31;" d="M322.447,65.994c0,2.932-2.375,5.308-5.305,5.308c-2.932,0-5.307-2.376-5.307-5.308       c0-2.93,2.375-5.306,5.307-5.306C320.072,60.688,322.447,63.064,322.447,65.994z"/>
				</g>
			</g>
			<path style="fill:#2196f3;" d="M176,66.793c0,1.771-1.436,3.207-3.208,3.207h-1.585c-1.771,0-3.207-1.436-3.207-3.207V40.207     c0-1.771,1.436-3.207,3.207-3.207h1.585c1.771,0,3.208,1.436,3.208,3.207V66.793z"/>
			<path style="fill:#2196f3;" d="M322,66.793c0,1.771-1.436,3.207-3.207,3.207h-1.586c-1.772,0-3.207-1.436-3.207-3.207V40.207     c0-1.771,1.435-3.207,3.207-3.207h1.586c1.771,0,3.207,1.436,3.207,3.207V66.793z"/>
		</g>
		<g>
			<path style="fill:#3f5fb5;" d="M481.937,112.073c0,21.022-17.042,38.065-38.065,38.065c-21.02,0-38.065-17.042-38.065-38.065     c0-21.023,17.045-38.066,38.065-38.066C464.895,74.007,481.937,91.049,481.937,112.073z"/>
			<path style="fill:#FFFFFF;" d="M446.896,136.983l-25.748-22.295c-1.044-0.904-1.157-2.483-0.253-3.527     c0.903-1.043,2.483-1.157,3.526-0.253l20.57,17.812l16.409-38.376c0.544-1.269,2.014-1.856,3.281-1.316     c1.27,0.543,1.859,2.012,1.316,3.282L446.896,136.983z"/>
		</g>
		<g>
			<g>
				<path style="fill:#4361e2;" d="M28.19,192.031c14.625,31.176,21.459,56.02,37.852,85.422C88.733,318.157,89.699,324,89.699,324      h7.097c0,0-10.646-58.375-54.884-127.734c-12.864-20.167-26.477-31.362-26.477-31.362S25.8,186.938,28.19,192.031z"/>
				<path style="fill:#6981e9;" d="M64.642,255.4c9.823,19.725,28.679,70.6,28.679,70.6h-5.563c0,0-28.812-55.629-35.799-72.252      c-6.988-16.621-29.74-74.552-29.74-74.552S54.819,235.674,64.642,255.4z"/>
				<g>
					<path style="fill:#4361e2;" d="M94.343,326c0,0-15.054-63.954-18.839-98.021c-3.786-34.067,0-85.917,0-85.917       s9.464,27.859,14.668,64.292C95.377,242.783,100.581,326,100.581,326H94.343z"/>
					<path style="fill:#6981e9;" d="M81.951,241.167C84.733,265.191,95.481,326,95.481,326h5.69c0,0-4.374-75.835-9.823-111.651       c-6.014-39.538-11.861-59.063-11.861-59.063S79.169,217.142,81.951,241.167z"/>
				</g>
				<g>
					<path style="fill:#4361e2;" d="M111.922,161.179c0,0-11.887,51.24-12.361,85.188C99.088,280.315,95.482,326,95.482,326h8.403       c0,0,9.81-45.192,11.703-74.301C117.482,222.59,111.922,161.179,111.922,161.179z"/>
					<path style="fill:#6981e9;" d="M101.735,324.591c0,0,1.164-54.236,3.996-78.203c2.833-23.965,8.847-48.988,8.822-49.386       c-0.025-0.398,1.457,21.883,1.428,33.26c-0.029,11.378-0.413,24.996-1.498,33.112c-1.086,8.114-10.219,61.47-10.219,61.47       L101.735,324.591z"/>
				</g>
				<g>
					<path style="fill:#4361e2;" d="M148.725,182.794c-5.903,27.887-11.294,59.374-22.342,91.172       C111.089,317.985,113.217,326,113.217,326h-9.332c0,0,0.645-60.199,32.195-136.175c9.173-22.09,18.627-37.414,18.627-37.414       S149.89,177.288,148.725,182.794z"/>
					<path style="fill:#6981e9;" d="M129.799,230.849c8.161-23.399,18.926-48.055,18.926-48.055s-9.479,57.437-15.534,75.96       c-6.057,18.523-19.974,55.768-19.974,55.768S120.426,257.722,129.799,230.849z"/>
				</g>
				<path style="fill:#4361e2;" d="M34.066,288.369c0,0,3.124,4.81,21.091,13.786C71.644,310.393,73.22,326,73.22,326h16.697      c0,0-7.009-19-20.257-29.027C56.411,286.943,34.066,288.369,34.066,288.369z"/>
				<path style="fill:#4361e2;" d="M155.717,288.369c0,0-4.613,5.729-20.288,16.14C120.08,314.702,116.563,326,116.563,326h-13.957      c0,0,4.494-14.682,17.742-24.712C133.598,291.261,155.717,288.369,155.717,288.369z"/>
			</g>
			<g>
				<polygon style="fill:#6981e9;" points="62.454,323 128.881,323 117.948,383 72.48,383     "/>
				<path style="fill:#4361e2;" d="M116.146,323c-4.085,23-23.044,41.15-46.486,43.266L72.48,383h45.467l10.933-60H116.146z"/>
			</g>
		</g>
		<g>
			<path style="fill:#acbcff;" d="M265,428.658c0,5.712-4.631,10.342-10.344,10.342H110.344c-5.713,0-10.344-4.63-10.344-10.342     v-81.316c0-5.712,4.631-10.342,10.344-10.342h144.313c5.713,0,10.344,4.63,10.344,10.342V428.658z"/>
			<g>
				<g>
					<path style="fill:#2196f3;" d="M198,416.5c0,3.037-2.462,5.5-5.5,5.5h-52c-3.038,0-5.5-2.463-5.5-5.5l0,0       c0-3.037,2.462-5.5,5.5-5.5h52C195.538,411,198,413.463,198,416.5L198,416.5z"/>
					<g>
						<g>
							<path style="fill:#4361e2;" d="M254,359.613c0,1.934-1.019,3.387-2.876,3.387H137.24c-1.857,0-4.24-1.453-4.24-3.387v-0.472         c0-1.934,2.382-3.142,4.24-3.142h113.884c1.857,0,2.876,1.208,2.876,3.142V359.613z"/>
							<path style="fill:#4361e2;" d="M254,370.288c0,1.932-1.019,2.712-2.876,2.712H137.24c-1.857,0-4.24-0.78-4.24-2.712v-0.475         c0-1.932,2.382-2.814,4.24-2.814h113.884c1.857,0,2.876,0.882,2.876,2.814V370.288z"/>
						</g>
						<path style="fill:#3f5fb5;" d="M129.116,371.103c0,5.322-4.313,9.635-9.635,9.635c-5.322,0-9.636-4.313-9.636-9.635        c0-5.322,4.314-9.637,9.636-9.637C124.802,361.467,129.116,365.781,129.116,371.103z"/>
					</g>
				</g>
				<g>
					<rect x="135" y="400" style="fill:#040D31;" width="18" height="1"/>
					<rect x="161" y="400" style="fill:#040D31;" width="53" height="1"/>
					<rect x="221" y="400" style="fill:#040D31;" width="34" height="1"/>
				</g>
				<g>
					<rect x="135" y="390" style="fill:#040D31;" width="39" height="1"/>
					<rect x="181" y="390" style="fill:#040D31;" width="33" height="1"/>
					<rect x="221" y="390" style="fill:#040D31;" width="34" height="1"/>
				</g>
				<g>
					<rect x="135" y="382" style="fill:#040D31;" width="24" height="2"/>
					<rect x="166" y="382" style="fill:#040D31;" width="48" height="2"/>
					<rect x="221" y="382" style="fill:#040D31;" width="34" height="2"/>
				</g>
			</g>
		</g>
		<g>
			<path style="fill:#3f5fb5;" d="M259,296.21c0,9.825-7.965,17.79-17.789,17.79H80.789C70.964,314,63,306.035,63,296.21v-1.42     c0-9.825,7.964-17.79,17.789-17.79h160.422c9.824,0,17.789,7.965,17.789,17.79V296.21z"/>
			<g>
				<polygon style="fill:#bdc6f7;" points="90.166,283.736 93.545,290.584 101.103,291.682 95.635,297.013 96.926,304.539       90.166,300.984 83.406,304.539 84.698,297.013 79.23,291.682 86.787,290.584     "/>
				<polygon style="fill:#bdc6f7;" points="125.322,284.078 128.703,290.925 136.26,292.023 130.791,297.354 132.082,304.881       125.322,301.326 118.563,304.881 119.854,297.354 114.386,292.023 121.943,290.925     "/>
				<polygon style="fill:#bdc6f7;" points="160.478,283.736 163.858,290.584 171.415,291.682 165.947,297.013 167.239,304.539       160.478,300.984 153.719,304.539 155.01,297.013 149.542,291.682 157.099,290.584     "/>
				<polygon style="fill:#bdc6f7;" points="195.634,283.736 199.015,290.584 206.572,291.682 201.103,297.013 202.394,304.539       195.634,300.984 188.875,304.539 190.166,297.013 184.698,291.682 192.256,290.584     "/>
				<polygon style="fill:#bdc6f7;" points="230.791,283.736 234.17,290.584 241.727,291.682 236.259,297.013 237.551,304.539       230.791,300.984 224.031,304.539 225.323,297.013 219.854,291.682 227.411,290.584     "/>
			</g>
		</g>
		<g>
			<g>
				<g>
					<polygon style="fill:#2196f3;" points="251.356,462.661 200.502,352.029 195.325,296.878 232.476,337.332 283.724,447.055        277.072,457.728 264.158,464.034      "/>
					
						<rect x="238.243" y="344.194" transform="matrix(0.9086 -0.4177 0.4177 0.9086 -146.8464 139.489)" style="fill:#5264c7;" width="13.983" height="122.032"/>
					<polygon style="fill:#FFFFFF;" points="213.574,353.016 200.169,351.455 195.353,296.865 232.476,337.332 226.121,346.992             "/>
					<polygon style="fill:#040D31;" points="197.663,322 193.933,294.109 212.242,314.92 206.876,322      "/>
				</g>
				<g>
					<g>
						<path style="fill:#ffb567;" d="M185.915,166.302c0,0-1.291,46.462,21.745,78.745c33.945,47.575,86.021,47.404,114.641,44.099        c6.56-0.758,21.104-5.959,25.132-18.283c11.256-34.45-69.695-10.884-104.369-34.221        c-26.39-17.761-42.023-73.063-42.023-73.063L185.915,166.302z"/>
						<g>
							<path style="fill:#ffb567;" d="M178.462,156.611c2.618,5.123,7.436,9.611,7.454,9.691l15.125-2.724         c0.591-2.098,1.742-16.214,6.29-25.303c3.768-7.528,2.872-9.564,1.454-10.21c-1.419-0.648-3.051-0.913-5.618,3.67         c-1.04,1.857-3.226,5.815-4.025,7.103c-0.224-2.753-1.262-4.871-2.695-11.602c-1.695-7.943-4.812-19.593-7.806-21.391         c-2.716-1.632-4.331,2.87-3.823,5.054c0.371,1.589,3.907,13.496,3.433,18.823c-1.461-3.038-13.14,3.906-13.656,11.246         C174.412,143.558,173.918,147.716,178.462,156.611z"/>
							<path style="fill:#ce9130;" d="M190.719,135.98c0.973,2.045,2.072,5.828,0.66,7.141c-1.634,1.518-4.013-2.605-5.187-4.98         c-0.21,0.091-0.42,0.183-0.63,0.271c0.054,0.123,0.109,0.247,0.169,0.376c1.13,3.037,2.281,8.071-0.707,8.85         c-2.346,0.612-4.19-4.383-5.012-7.02c-0.23,0.089-0.46,0.178-0.69,0.267c0.308,1.472,0.863,2.939,1.122,4.397         c0.089,0.502,0.136,1.008,0.121,1.515c-0.048,1.686-2.144-0.273-2.425-0.556c-1.065-1.073-1.615-2.61-1.914-4.145         c-0.104,0.042-0.207,0.082-0.311,0.125c0.293,1.523,0.886,2.993,1.871,4.274c0.473,0.615,2.02,2.042,2.928,1.269         c0.791-0.673,0.231-2.518,0.082-3.296c-0.008-0.039-0.018-0.077-0.026-0.116c0.96,2.098,2.344,3.937,4.348,3.803         c2.782-0.185,2.68-3.706,1.962-6.845c1.131,1.761,2.612,3.18,4.352,2.53c2.544-0.948,1.004-5.921-0.089-8.199         C191.136,135.755,190.929,135.869,190.719,135.98z"/>
							<path style="fill:#ce9130;" d="M194.782,145.523c0.015-0.299-0.447-0.323-0.512-0.044c-1.013,4.428-2.557,9.551-1.047,14.01         c0.034,0.104,0.213,0.082,0.195-0.033C192.648,154.57,194.548,150.302,194.782,145.523z"/>
						</g>
					</g>
					<g>
						<polygon style="fill:#2196f3;" points="319.01,313.479 279.345,302.994 296.019,243.042 365.256,251.921       "/>
						<path style="fill:#2196f3;" d="M291.793,455h129.081c-0.745-30,1.564-62.6,7.447-80.445        c20.959-63.561,37.228-78.892,22.303-100.837c-10.388-15.271-37.402-22.617-48.593-23.06        c-10.214-0.403-40.891-0.124-40.891-0.124l-35.166-3.64c-4.409,12.447-11.851,52.952-15.84,88.966        C300.345,424.219,294.057,444,291.793,455z"/>
						<path style="fill:#5264c7;" d="M450.624,273.402c-10.388-15.273-37.402-22.461-48.593-22.9        c-0.412-0.019-0.869-0.032-1.346-0.046c0.163,17.268,40.079,11.442,21.96,46.539        c-25.762,49.903-80.104,90.418-120.749,103.863C297.67,427.538,293.167,448,291.793,455h129.081        c-0.745-30,1.564-62.6,7.447-80.445C449.28,310.993,465.549,295.347,450.624,273.402z"/>
						<polygon style="fill:#5264c7;" points="313.099,311.916 318.396,279.475 299.206,308.243       "/>
					</g>
					<g>
						<g>
							<path style="fill:#ffb567;" d="M362.077,259.548l3.478-32.781l36.811-10.337l-1.435,35.921c0,0-0.467,8.322-13.251,12.534         C366.069,271.998,362.077,259.548,362.077,259.548z"/>
							<path style="fill:#ce9130;" d="M363.034,250.514c0,0,19.028-2.215,27.503-14.514c5.417-7.856,4.814-13.358,4.814-13.358         l-29.542,10.195c0,0-1.272,0.641-1.591,6.544C363.784,247.359,363.034,250.514,363.034,250.514z"/>
							<path style="fill:#ffb567;" d="M369.31,173.421c-7.836,8.603-12.617,14.886-18.69,30.612         c-7.206,18.662-1.997,29.108,6.523,32.665c5.645,2.357,14.491,1.423,23.49-1.941c8.992-3.359,17.133-9.254,25.695-21.458         c8.56-12.204,6.839-33.425-6.695-41.885C394.225,168.033,377.958,163.926,369.31,173.421z"/>
							<path style="fill:#040D31;" d="M347.216,147.759c-4.015,10.325-0.239,18.77,4.689,25.681         c5.848,8.203,18.212,11.694,35.849,10.828c8.878-0.436,16.173,0.979,16.351,11.895c0.19,11.438-5.396,17.411-4.86,22.552         c0.232,2.238,1.072,9.917,1.072,9.917s29.403,4.895,38.488-28.031c6.871-24.896-4.849-37.219-26.915-43.391         c-17.959-5.022-12.933-2.805-27.732-5.042c-6.74-1.02-11.09-2.48-14.028-6.538c-3.12-4.308-2.98-16.387-2.98-16.387         S351.904,135.7,347.216,147.759z"/>
							<g>
								<path style="fill:#ffb567;" d="M408.322,221.598c-4.136,3.524-11.466,2.819-12.883-2.206          c-0.693-2.462,1.19-7.597,2.857-9.825c3.252-4.352,7.991-5.52,11.379-1.549          C413.063,211.992,412.457,218.071,408.322,221.598z"/>
								<path style="fill:#ce9130;" d="M405.954,216.256c-1.551,2.116-3.711,3.166-4.833,2.346          c-1.119-0.822-0.773-3.199,0.777-5.315c1.544-2.115,3.708-3.165,4.83-2.344          C407.848,211.762,407.502,214.139,405.954,216.256z"/>
							</g>
						</g>
						<g>
							<path style="fill:#040D31;" d="M369.746,215c-0.001,0-0.002,0-0.003,0c-2.943,0-5.972-2.311-6.713-4.154         c-0.372-0.925-0.209-1.936,0.448-2.572c2.719-2.638,12.109-12.764,12.204-12.866c0.284-0.304,0.759-0.347,1.061-0.065         c0.303,0.282,0.319,0.742,0.037,1.045c-0.388,0.416-9.512,10.191-12.258,12.855c-0.153,0.149-0.285,0.358-0.101,0.817         c0.541,1.344,3.038,2.974,5.327,2.983c0.414,0.002,0.749,0.567,0.747,0.981C370.494,214.438,370.159,215,369.746,215z"/>
							<path style="fill:#040D31;" d="M366.82,224.393c-1.463,0-2.925-0.2-4.189-0.749c-5.072-2.198-6.469-5.964-6.525-6.123         c-0.14-0.39,0.063-0.819,0.453-0.958c0.391-0.14,0.817,0.061,0.958,0.451l0,0c0.012,0.033,1.267,3.329,5.71,5.255         c3.461,1.5,9.242-0.079,10.993-0.751c0.383-0.149,0.821,0.044,0.969,0.432c0.148,0.387-0.045,0.82-0.432,0.969         C374.703,222.939,370.762,224.393,366.82,224.393z"/>
							<path style="fill:#040D31;" d="M366.666,193.33c-0.143,0.864-1.009,1.443-1.938,1.291c-0.928-0.152-1.563-0.977-1.422-1.84         c0.141-0.865,1.008-1.443,1.936-1.291C366.169,191.642,366.809,192.466,366.666,193.33z"/>
							<path style="fill:#040D31;" d="M386.246,201.043c-0.141,0.864-1.008,1.442-1.935,1.29c-0.928-0.152-1.564-0.977-1.424-1.842         c0.142-0.863,1.008-1.441,1.935-1.29C385.751,199.354,386.389,200.178,386.246,201.043z"/>
							<path style="fill:#040D31;" d="M372.594,191.085c-0.296,0-0.576-0.176-0.694-0.467c-0.007-0.016-0.802-1.877-2.896-3.064         c-2.517-1.427-4.753-0.075-4.847-0.017c-0.352,0.218-0.814,0.112-1.033-0.237c-0.22-0.35-0.117-0.809,0.232-1.031         c0.124-0.078,3.07-1.901,6.389-0.019c2.564,1.455,3.506,3.708,3.545,3.803c0.156,0.383-0.027,0.821-0.411,0.977         C372.784,191.067,372.688,191.085,372.594,191.085z"/>
							<path style="fill:#040D31;" d="M390.587,198.661c-0.296,0-0.576-0.176-0.694-0.467c-0.007-0.016-0.802-1.876-2.895-3.065         c-2.544-1.442-4.821-0.033-4.844-0.019c-0.353,0.222-0.814,0.117-1.035-0.231c-0.223-0.35-0.119-0.813,0.23-1.035         c0.125-0.078,3.066-1.902,6.389-0.019c2.564,1.456,3.505,3.708,3.544,3.803c0.156,0.383-0.027,0.821-0.411,0.978         C390.777,198.643,390.682,198.661,390.587,198.661z"/>
						</g>
					</g>
					<g>
						<g>
							<path style="fill:#ffb567;" d="M254.224,416.099c0,0,65.101,1.68,104.809-14.348c35.954-14.515,75.912-63.122,84.007-93.157         c5.502-20.425,13.048-32.311-10.545-43.969c-23.844-11.783-58.632,79.732-91.054,103.31         c-12.545,9.122-89.912,25.743-89.912,25.743L254.224,416.099z"/>
							<path style="fill:#ffb567;" d="M215.136,397.018c-1.812,5.249,2.378,17.625,8.318,21.784         c4.366,3.057,9.18,1.784,14.115,0.199c4.934-1.584,17.285-2.89,17.285-2.89l-3.326-22.434c0,0-4.314,1.192-9.039-1.81         c-4.725-3.002-10.204-9.034-10.887-9.901c-2.653-3.356-8.134-3.763-8.481,0.791c-0.149,1.976,7.419,10.299,7.419,10.299         s-10.581,1.295-11.838-1.437C217.217,388.391,215.554,395.81,215.136,397.018z"/>
						</g>
						<g>
							<path style="fill:#3f5fb5;" d="M366.203,326.361c0,0,29.138-46.774,35.99-53.682c6.852-6.909,23.17-19.777,38.664-10.211         c12.396,7.652,17.655,12.91,17.544,27.808c-0.2,26.836-34.913,77.447-34.913,77.447L366.203,326.361z"/>
							<path style="fill:#2196f3;" d="M458.397,290.281c-0.199,26.83-34.91,77.44-34.91,77.44l-34.832-25.153         c29.834-9.044,51.511-36.31,51.511-68.539c0-4.289-0.389-8.493-1.128-12.577c0.607,0.304,1.213,0.634,1.819,1.015         C453.255,270.119,458.511,275.375,458.397,290.281z"/>
						</g>
					</g>
				</g>
			</g>
			<path style="fill:#3f5fb5;" d="M319.655,326.977l-0.425-1.772c0.14-0.033,13.953-3.433,22.897-12.782     c8.98-9.388,11.852-19.542,11.881-19.644l1.757,0.484c-0.119,0.433-3.026,10.702-12.321,20.42     C334.121,323.428,320.242,326.836,319.655,326.977z"/>
			<path style="fill:#3f5fb5;" d="M318.547,354.429l-0.707-1.681c0.188-0.079,18.94-8.036,29.429-18.252     c8.808-8.578,16.822-26.564,16.902-26.744l1.666,0.736c-0.332,0.751-8.238,18.492-17.298,27.314     C337.801,346.262,319.328,354.101,318.547,354.429z"/>
		</g>
	</g>
</g>
</svg>