<svg xmlns="http://www.w3.org/2000/svg" xmlns:xlink="http://www.w3.org/1999/xlink" width="584" zoomAndPan="magnify" viewBox="0 0 438 245.999995" height="328" preserveAspectRatio="xMidYMid meet" version="1.0"><defs><filter x="0%" y="0%" width="100%" height="100%" id="f7fa270b4f"><feColorMatrix values="0 0 0 0 1 0 0 0 0 1 0 0 0 0 1 0 0 0 1 0" color-interpolation-filters="sRGB"/></filter><clipPath id="d07f84ad19"><path d="M 137 0 L 323.699219 0 L 323.699219 151 L 137 151 Z M 137 0 " clip-rule="nonzero"/></clipPath><clipPath id="078eeedfab"><path d="M 137 0 L 323.699219 0 L 323.699219 152 L 137 152 Z M 137 0 " clip-rule="nonzero"/></clipPath><mask id="d898fa094d"><g filter="url(#f7fa270b4f)"><rect x="-43.8" width="525.6" fill="#000000" y="-24.599999" height="295.199994" fill-opacity="0.15"/></g></mask><clipPath id="1e09f97505"><path d="M 74 0.121094 L 93 0.121094 L 93 19 L 74 19 Z M 74 0.121094 " clip-rule="nonzero"/></clipPath><clipPath id="d9d7d360e2"><path d="M 50 0.121094 L 69 0.121094 L 69 19 L 50 19 Z M 50 0.121094 " clip-rule="nonzero"/></clipPath><clipPath id="3b12b14300"><path d="M 26 0.121094 L 44 0.121094 L 44 19 L 26 19 Z M 26 0.121094 " clip-rule="nonzero"/></clipPath><clipPath id="304a94566c"><path d="M 1 0.121094 L 20 0.121094 L 20 19 L 1 19 Z M 1 0.121094 " clip-rule="nonzero"/></clipPath><clipPath id="a7ef5f07ac"><path d="M 98 0.121094 L 117 0.121094 L 117 19 L 98 19 Z M 98 0.121094 " clip-rule="nonzero"/></clipPath><clipPath id="97d9d223ba"><path d="M 123 0.121094 L 141.71875 0.121094 L 141.71875 19 L 123 19 Z M 123 0.121094 " clip-rule="nonzero"/></clipPath><clipPath id="a8778f5cd7"><path d="M 123 23 L 141.71875 23 L 141.71875 42 L 123 42 Z M 123 23 " clip-rule="nonzero"/></clipPath><clipPath id="9572aef3a7"><path d="M 123 48 L 141.71875 48 L 141.71875 67 L 123 67 Z M 123 48 " clip-rule="nonzero"/></clipPath><clipPath id="bc9f73fa82"><path d="M 123 72 L 141.71875 72 L 141.71875 91 L 123 91 Z M 123 72 " clip-rule="nonzero"/></clipPath><clipPath id="17980fda41"><path d="M 74 94 L 93 94 L 93 112.921875 L 74 112.921875 Z M 74 94 " clip-rule="nonzero"/></clipPath><clipPath id="1fada1c8af"><path d="M 1 94 L 20 94 L 20 112.921875 L 1 112.921875 Z M 1 94 " clip-rule="nonzero"/></clipPath><clipPath id="36aa23e938"><path d="M 25 94 L 44 94 L 44 112.921875 L 25 112.921875 Z M 25 94 " clip-rule="nonzero"/></clipPath><clipPath id="465b1b9d88"><path d="M 50 94 L 69 94 L 69 112.921875 L 50 112.921875 Z M 50 94 " clip-rule="nonzero"/></clipPath><clipPath id="c803224532"><rect x="0" width="142" y="0" height="113"/></clipPath><clipPath id="3d68de8ebc"><path d="M 137 0 L 323.699219 0 L 323.699219 17 L 137 17 Z M 137 0 " clip-rule="nonzero"/></clipPath><mask id="9031bbbf3d"><g filter="url(#f7fa270b4f)"><rect x="-43.8" width="525.6" fill="#000000" y="-24.599999" height="295.199994" fill-opacity="0.88"/></g></mask><clipPath id="47c9900098"><path d="M 1 0.71875 L 12.960938 0.71875 L 12.960938 4 L 1 4 Z M 1 0.71875 " clip-rule="nonzero"/></clipPath><clipPath id="53e7590d66"><path d="M 0.238281 3 L 12.960938 3 L 12.960938 6 L 0.238281 6 Z M 0.238281 3 " clip-rule="nonzero"/></clipPath><clipPath id="3ce00a7965"><path d="M 0.238281 5 L 6 5 L 6 6.960938 L 0.238281 6.960938 Z M 0.238281 5 " clip-rule="nonzero"/></clipPath><clipPath id="110acc6351"><rect x="0" width="13" y="0" height="7"/></clipPath><mask id="c83317024f"><g filter="url(#f7fa270b4f)"><rect x="-43.8" width="525.6" fill="#000000" y="-24.599999" height="295.199994" fill-opacity="0.88"/></g></mask><clipPath id="e6c998d340"><path d="M 0.519531 0.121094 L 11 0.121094 L 11 7 L 0.519531 7 Z M 0.519531 0.121094 " clip-rule="nonzero"/></clipPath><clipPath id="62f9e6da62"><path d="M 3 7 L 8 7 L 8 10.921875 L 3 10.921875 Z M 3 7 " clip-rule="nonzero"/></clipPath><clipPath id="52420725ec"><rect x="0" width="13" y="0" height="11"/></clipPath><mask id="7663f6e9ab"><g filter="url(#f7fa270b4f)"><rect x="-43.8" width="525.6" fill="#000000" y="-24.599999" height="295.199994" fill-opacity="0.88"/></g></mask><clipPath id="4f496b2568"><path d="M 0.078125 0.601562 L 13 0.601562 L 13 7 L 0.078125 7 Z M 0.078125 0.601562 " clip-rule="nonzero"/></clipPath><clipPath id="78805ca938"><path d="M 2 5 L 14.71875 5 L 14.71875 11 L 2 11 Z M 2 5 " clip-rule="nonzero"/></clipPath><clipPath id="e2855b0892"><path d="M 3 10 L 9 10 L 9 13.320312 L 3 13.320312 Z M 3 10 " clip-rule="nonzero"/></clipPath><clipPath id="13944ec684"><rect x="0" width="15" y="0" height="14"/></clipPath></defs><g clip-path="url(#d07f84ad19)"><path fill="#ffffff" d="M 147.53125 0.367188 L 313.433594 0.367188 C 314.085938 0.367188 314.734375 0.433594 315.375 0.558594 C 316.015625 0.6875 316.640625 0.875 317.242188 1.125 C 317.847656 1.375 318.421875 1.683594 318.964844 2.046875 C 319.511719 2.410156 320.011719 2.824219 320.476562 3.285156 C 320.9375 3.746094 321.351562 4.25 321.714844 4.792969 C 322.078125 5.335938 322.382812 5.910156 322.636719 6.511719 C 322.886719 7.117188 323.074219 7.738281 323.203125 8.382812 C 323.328125 9.023438 323.394531 9.667969 323.394531 10.324219 L 323.394531 140.78125 C 323.394531 141.4375 323.328125 142.082031 323.203125 142.722656 C 323.074219 143.367188 322.886719 143.988281 322.636719 144.589844 C 322.382812 145.195312 322.078125 145.769531 321.714844 146.3125 C 321.351562 146.855469 320.9375 147.359375 320.476562 147.820312 C 320.011719 148.28125 319.511719 148.695312 318.964844 149.058594 C 318.421875 149.421875 317.847656 149.726562 317.242188 149.976562 C 316.640625 150.230469 316.015625 150.417969 315.375 150.546875 C 314.734375 150.671875 314.085938 150.734375 313.433594 150.734375 L 147.53125 150.734375 C 146.875 150.734375 146.230469 150.671875 145.585938 150.546875 C 144.945312 150.417969 144.324219 150.230469 143.71875 149.976562 C 143.113281 149.726562 142.539062 149.421875 141.996094 149.058594 C 141.453125 148.695312 140.949219 148.28125 140.488281 147.820312 C 140.023438 147.359375 139.613281 146.855469 139.25 146.3125 C 138.886719 145.769531 138.578125 145.195312 138.328125 144.589844 C 138.078125 143.988281 137.890625 143.367188 137.761719 142.722656 C 137.632812 142.082031 137.570312 141.4375 137.570312 140.78125 L 137.570312 10.324219 C 137.570312 9.667969 137.632812 9.023438 137.761719 8.382812 C 137.890625 7.738281 138.078125 7.117188 138.328125 6.511719 C 138.578125 5.910156 138.886719 5.335938 139.25 4.792969 C 139.613281 4.25 140.023438 3.746094 140.488281 3.285156 C 140.949219 2.824219 141.453125 2.410156 141.996094 2.046875 C 142.539062 1.683594 143.113281 1.375 143.71875 1.125 C 144.324219 0.875 144.945312 0.6875 145.585938 0.558594 C 146.230469 0.433594 146.875 0.367188 147.53125 0.367188 Z M 147.53125 0.367188 " fill-opacity="1" fill-rule="nonzero"/></g><g clip-path="url(#078eeedfab)"><path fill="#292a2e" d="M 313.433594 151.046875 L 147.53125 151.046875 C 141.867188 151.046875 137.257812 146.441406 137.257812 140.78125 L 137.257812 10.324219 C 137.257812 4.664062 141.867188 0.0585938 147.53125 0.0585938 L 313.433594 0.0585938 C 319.097656 0.0585938 323.707031 4.664062 323.707031 10.324219 L 323.707031 140.78125 C 323.707031 146.445312 319.097656 151.050781 313.433594 151.050781 Z M 147.53125 0.679688 C 142.210938 0.679688 137.882812 5.007812 137.882812 10.324219 L 137.882812 140.78125 C 137.882812 146.097656 142.210938 150.425781 147.53125 150.425781 L 313.433594 150.425781 C 318.753906 150.425781 323.082031 146.097656 323.082031 140.78125 L 323.082031 10.324219 C 323.082031 5.007812 318.753906 0.679688 313.433594 0.679688 Z M 147.53125 0.679688 " fill-opacity="1" fill-rule="nonzero"/></g><path fill="#367cff" d="M 298.644531 27.402344 L 308.828125 27.402344 C 309.34375 27.402344 309.839844 27.5 310.316406 27.695312 C 310.792969 27.894531 311.214844 28.175781 311.578125 28.539062 C 311.941406 28.902344 312.222656 29.324219 312.421875 29.800781 C 312.617188 30.273438 312.71875 30.769531 312.71875 31.285156 L 312.71875 41.464844 C 312.71875 41.980469 312.617188 42.476562 312.421875 42.953125 C 312.222656 43.425781 311.941406 43.847656 311.578125 44.210938 C 311.214844 44.574219 310.792969 44.855469 310.316406 45.054688 C 309.839844 45.25 309.34375 45.347656 308.828125 45.347656 L 298.644531 45.347656 C 298.128906 45.347656 297.632812 45.25 297.15625 45.054688 C 296.679688 44.855469 296.257812 44.574219 295.894531 44.210938 C 295.527344 43.847656 295.25 43.425781 295.050781 42.953125 C 294.855469 42.476562 294.753906 41.980469 294.753906 41.464844 L 294.753906 31.285156 C 294.753906 30.769531 294.855469 30.273438 295.050781 29.800781 C 295.25 29.324219 295.527344 28.902344 295.894531 28.539062 C 296.257812 28.175781 296.679688 27.894531 297.15625 27.695312 C 297.632812 27.5 298.128906 27.402344 298.644531 27.402344 Z M 298.644531 27.402344 " fill-opacity="0.2" fill-rule="nonzero"/><path fill="#367cff" d="M 299.039062 50.070312 L 309.144531 50.070312 C 309.667969 50.070312 310.167969 50.171875 310.648438 50.371094 C 311.128906 50.570312 311.554688 50.855469 311.921875 51.222656 C 312.289062 51.589844 312.574219 52.015625 312.773438 52.496094 C 312.972656 52.976562 313.070312 53.476562 313.070312 53.996094 L 313.070312 64.097656 C 313.070312 64.617188 312.972656 65.117188 312.773438 65.597656 C 312.574219 66.078125 312.289062 66.503906 311.921875 66.871094 C 311.554688 67.238281 311.128906 67.523438 310.648438 67.722656 C 310.167969 67.921875 309.667969 68.019531 309.144531 68.019531 L 299.039062 68.019531 C 298.515625 68.019531 298.015625 67.921875 297.535156 67.722656 C 297.054688 67.523438 296.628906 67.238281 296.261719 66.871094 C 295.890625 66.503906 295.609375 66.078125 295.410156 65.597656 C 295.210938 65.117188 295.109375 64.617188 295.109375 64.097656 L 295.109375 53.996094 C 295.109375 53.476562 295.210938 52.976562 295.410156 52.496094 C 295.609375 52.015625 295.890625 51.589844 296.261719 51.222656 C 296.628906 50.855469 297.054688 50.570312 297.535156 50.371094 C 298.015625 50.171875 298.515625 50.070312 299.039062 50.070312 Z M 299.039062 50.070312 " fill-opacity="0.2" fill-rule="nonzero"/><path fill="#367cff" d="M 299.039062 75.324219 L 309.144531 75.324219 C 309.667969 75.324219 310.167969 75.421875 310.648438 75.621094 C 311.128906 75.820312 311.554688 76.105469 311.921875 76.472656 C 312.289062 76.839844 312.574219 77.265625 312.773438 77.746094 C 312.972656 78.226562 313.070312 78.726562 313.070312 79.246094 L 313.070312 89.347656 C 313.070312 89.867188 312.972656 90.367188 312.773438 90.847656 C 312.574219 91.328125 312.289062 91.753906 311.921875 92.121094 C 311.554688 92.488281 311.128906 92.773438 310.648438 92.972656 C 310.167969 93.171875 309.667969 93.269531 309.144531 93.269531 L 299.039062 93.269531 C 298.515625 93.269531 298.015625 93.171875 297.535156 92.972656 C 297.054688 92.773438 296.628906 92.488281 296.261719 92.121094 C 295.890625 91.753906 295.609375 91.328125 295.410156 90.847656 C 295.210938 90.367188 295.109375 89.867188 295.109375 89.347656 L 295.109375 79.246094 C 295.109375 78.726562 295.210938 78.226562 295.410156 77.746094 C 295.609375 77.265625 295.890625 76.839844 296.261719 76.472656 C 296.628906 76.105469 297.054688 75.820312 297.535156 75.621094 C 298.015625 75.421875 298.515625 75.324219 299.039062 75.324219 Z M 299.039062 75.324219 " fill-opacity="0.2" fill-rule="nonzero"/><path fill="#367cff" d="M 298.683594 99.28125 L 308.789062 99.28125 C 309.3125 99.28125 309.8125 99.378906 310.292969 99.578125 C 310.773438 99.777344 311.199219 100.0625 311.566406 100.429688 C 311.933594 100.796875 312.21875 101.222656 312.417969 101.703125 C 312.617188 102.183594 312.71875 102.683594 312.71875 103.203125 L 312.71875 113.304688 C 312.71875 113.824219 312.617188 114.328125 312.417969 114.808594 C 312.21875 115.289062 311.933594 115.710938 311.566406 116.082031 C 311.199219 116.449219 310.773438 116.730469 310.292969 116.929688 C 309.8125 117.128906 309.3125 117.230469 308.789062 117.230469 L 298.683594 117.230469 C 298.160156 117.230469 297.660156 117.128906 297.179688 116.929688 C 296.699219 116.730469 296.273438 116.449219 295.90625 116.082031 C 295.535156 115.710938 295.253906 115.289062 295.054688 114.808594 C 294.855469 114.328125 294.753906 113.824219 294.753906 113.304688 L 294.753906 103.203125 C 294.753906 102.683594 294.855469 102.183594 295.054688 101.703125 C 295.253906 101.222656 295.535156 100.796875 295.90625 100.429688 C 296.273438 100.0625 296.699219 99.777344 297.179688 99.578125 C 297.660156 99.378906 298.160156 99.28125 298.683594 99.28125 Z M 298.683594 99.28125 " fill-opacity="0.2" fill-rule="nonzero"/><g mask="url(#d898fa094d)"><g transform="matrix(1, 0, 0, 1, 147, 27)"><g clip-path="url(#c803224532)"><g clip-path="url(#1e09f97505)"><path fill="#367cff" d="M 78.398438 0.402344 L 88.585938 0.402344 C 89.101562 0.402344 89.597656 0.5 90.074219 0.695312 C 90.550781 0.894531 90.96875 1.175781 91.335938 1.539062 C 91.699219 1.902344 91.980469 2.324219 92.179688 2.800781 C 92.375 3.273438 92.472656 3.769531 92.472656 4.285156 L 92.472656 14.464844 C 92.472656 14.980469 92.375 15.476562 92.179688 15.953125 C 91.980469 16.425781 91.699219 16.847656 91.335938 17.210938 C 90.96875 17.574219 90.550781 17.855469 90.074219 18.054688 C 89.597656 18.25 89.101562 18.347656 88.585938 18.347656 L 78.398438 18.347656 C 77.882812 18.347656 77.386719 18.25 76.910156 18.054688 C 76.4375 17.855469 76.015625 17.574219 75.652344 17.210938 C 75.285156 16.847656 75.003906 16.425781 74.808594 15.953125 C 74.609375 15.476562 74.511719 14.980469 74.511719 14.464844 L 74.511719 4.285156 C 74.511719 3.769531 74.609375 3.273438 74.808594 2.800781 C 75.003906 2.324219 75.285156 1.902344 75.652344 1.539062 C 76.015625 1.175781 76.4375 0.894531 76.910156 0.695312 C 77.386719 0.5 77.882812 0.402344 78.398438 0.402344 Z M 78.398438 0.402344 " fill-opacity="1" fill-rule="nonzero"/></g><g clip-path="url(#d9d7d360e2)"><path fill="#367cff" d="M 53.984375 0.402344 L 64.171875 0.402344 C 64.6875 0.402344 65.183594 0.5 65.660156 0.695312 C 66.136719 0.894531 66.554688 1.175781 66.921875 1.539062 C 67.285156 1.902344 67.566406 2.324219 67.761719 2.800781 C 67.960938 3.273438 68.058594 3.769531 68.058594 4.285156 L 68.058594 14.464844 C 68.058594 14.980469 67.960938 15.476562 67.761719 15.953125 C 67.566406 16.425781 67.285156 16.847656 66.921875 17.210938 C 66.554688 17.574219 66.136719 17.855469 65.660156 18.054688 C 65.183594 18.25 64.6875 18.347656 64.171875 18.347656 L 53.984375 18.347656 C 53.46875 18.347656 52.972656 18.25 52.496094 18.054688 C 52.019531 17.855469 51.601562 17.574219 51.234375 17.210938 C 50.871094 16.847656 50.589844 16.425781 50.394531 15.953125 C 50.195312 15.476562 50.097656 14.980469 50.097656 14.464844 L 50.097656 4.285156 C 50.097656 3.769531 50.195312 3.273438 50.394531 2.800781 C 50.589844 2.324219 50.871094 1.902344 51.234375 1.539062 C 51.601562 1.175781 52.019531 0.894531 52.496094 0.695312 C 52.972656 0.5 53.46875 0.402344 53.984375 0.402344 Z M 53.984375 0.402344 " fill-opacity="1" fill-rule="nonzero"/></g><g clip-path="url(#3b12b14300)"><path fill="#367cff" d="M 29.925781 0.402344 L 40.113281 0.402344 C 40.628906 0.402344 41.125 0.5 41.601562 0.695312 C 42.078125 0.894531 42.496094 1.175781 42.863281 1.539062 C 43.226562 1.902344 43.507812 2.324219 43.703125 2.800781 C 43.902344 3.273438 44 3.769531 44 4.285156 L 44 14.464844 C 44 14.980469 43.902344 15.476562 43.703125 15.953125 C 43.507812 16.425781 43.226562 16.847656 42.863281 17.210938 C 42.496094 17.574219 42.078125 17.855469 41.601562 18.054688 C 41.125 18.25 40.628906 18.347656 40.113281 18.347656 L 29.925781 18.347656 C 29.410156 18.347656 28.914062 18.25 28.4375 18.054688 C 27.960938 17.855469 27.542969 17.574219 27.175781 17.210938 C 26.8125 16.847656 26.53125 16.425781 26.335938 15.953125 C 26.136719 15.476562 26.039062 14.980469 26.039062 14.464844 L 26.039062 4.285156 C 26.039062 3.769531 26.136719 3.273438 26.335938 2.800781 C 26.53125 2.324219 26.8125 1.902344 27.175781 1.539062 C 27.542969 1.175781 27.960938 0.894531 28.4375 0.695312 C 28.914062 0.5 29.410156 0.402344 29.925781 0.402344 Z M 29.925781 0.402344 " fill-opacity="1" fill-rule="nonzero"/></g><g clip-path="url(#304a94566c)"><path fill="#367cff" d="M 5.511719 0.402344 L 15.699219 0.402344 C 16.214844 0.402344 16.710938 0.5 17.1875 0.695312 C 17.660156 0.894531 18.082031 1.175781 18.445312 1.539062 C 18.8125 1.902344 19.09375 2.324219 19.289062 2.800781 C 19.488281 3.273438 19.585938 3.769531 19.585938 4.285156 L 19.585938 14.464844 C 19.585938 14.980469 19.488281 15.476562 19.289062 15.953125 C 19.09375 16.425781 18.8125 16.847656 18.445312 17.210938 C 18.082031 17.574219 17.660156 17.855469 17.1875 18.054688 C 16.710938 18.25 16.214844 18.347656 15.699219 18.347656 L 5.511719 18.347656 C 4.996094 18.347656 4.5 18.25 4.023438 18.054688 C 3.546875 17.855469 3.128906 17.574219 2.761719 17.210938 C 2.398438 16.847656 2.117188 16.425781 1.917969 15.953125 C 1.722656 15.476562 1.625 14.980469 1.625 14.464844 L 1.625 4.285156 C 1.625 3.769531 1.722656 3.273438 1.917969 2.800781 C 2.117188 2.324219 2.398438 1.902344 2.761719 1.539062 C 3.128906 1.175781 3.546875 0.894531 4.023438 0.695312 C 4.5 0.5 4.996094 0.402344 5.511719 0.402344 Z M 5.511719 0.402344 " fill-opacity="1" fill-rule="nonzero"/></g><g clip-path="url(#a7ef5f07ac)"><path fill="#367cff" d="M 102.8125 0.402344 L 113 0.402344 C 113.515625 0.402344 114.011719 0.5 114.488281 0.695312 C 114.964844 0.894531 115.382812 1.175781 115.75 1.539062 C 116.113281 1.902344 116.394531 2.324219 116.59375 2.800781 C 116.789062 3.273438 116.886719 3.769531 116.886719 4.285156 L 116.886719 14.464844 C 116.886719 14.980469 116.789062 15.476562 116.59375 15.953125 C 116.394531 16.425781 116.113281 16.847656 115.75 17.210938 C 115.382812 17.574219 114.964844 17.855469 114.488281 18.054688 C 114.011719 18.25 113.515625 18.347656 113 18.347656 L 102.8125 18.347656 C 102.296875 18.347656 101.800781 18.25 101.324219 18.054688 C 100.851562 17.855469 100.429688 17.574219 100.066406 17.210938 C 99.699219 16.847656 99.417969 16.425781 99.222656 15.953125 C 99.023438 15.476562 98.925781 14.980469 98.925781 14.464844 L 98.925781 4.285156 C 98.925781 3.769531 99.023438 3.273438 99.222656 2.800781 C 99.417969 2.324219 99.699219 1.902344 100.066406 1.539062 C 100.429688 1.175781 100.851562 0.894531 101.324219 0.695312 C 101.800781 0.5 102.296875 0.402344 102.8125 0.402344 Z M 102.8125 0.402344 " fill-opacity="1" fill-rule="nonzero"/></g><g clip-path="url(#97d9d223ba)"><path fill="#367cff" d="M 127.226562 0.402344 L 137.414062 0.402344 C 137.929688 0.402344 138.425781 0.5 138.902344 0.695312 C 139.378906 0.894531 139.800781 1.175781 140.164062 1.539062 C 140.527344 1.902344 140.808594 2.324219 141.007812 2.800781 C 141.203125 3.273438 141.300781 3.769531 141.300781 4.285156 L 141.300781 14.464844 C 141.300781 14.980469 141.203125 15.476562 141.007812 15.953125 C 140.808594 16.425781 140.527344 16.847656 140.164062 17.210938 C 139.800781 17.574219 139.378906 17.855469 138.902344 18.054688 C 138.425781 18.25 137.929688 18.347656 137.414062 18.347656 L 127.226562 18.347656 C 126.710938 18.347656 126.21875 18.25 125.742188 18.054688 C 125.265625 17.855469 124.84375 17.574219 124.480469 17.210938 C 124.113281 16.847656 123.832031 16.425781 123.636719 15.953125 C 123.4375 15.476562 123.339844 14.980469 123.339844 14.464844 L 123.339844 4.285156 C 123.339844 3.769531 123.4375 3.273438 123.636719 2.800781 C 123.832031 2.324219 124.113281 1.902344 124.480469 1.539062 C 124.84375 1.175781 125.265625 0.894531 125.742188 0.695312 C 126.21875 0.5 126.710938 0.402344 127.226562 0.402344 Z M 127.226562 0.402344 " fill-opacity="1" fill-rule="nonzero"/></g><path fill="#367cff" d="M 78.792969 23.070312 L 88.902344 23.070312 C 89.421875 23.070312 89.921875 23.171875 90.40625 23.371094 C 90.886719 23.570312 91.308594 23.855469 91.679688 24.222656 C 92.046875 24.589844 92.332031 25.015625 92.53125 25.496094 C 92.730469 25.976562 92.828125 26.476562 92.828125 26.996094 L 92.828125 37.097656 C 92.828125 37.617188 92.730469 38.117188 92.53125 38.597656 C 92.332031 39.078125 92.046875 39.503906 91.679688 39.871094 C 91.308594 40.238281 90.886719 40.523438 90.40625 40.722656 C 89.921875 40.921875 89.421875 41.019531 88.902344 41.019531 L 78.792969 41.019531 C 78.273438 41.019531 77.773438 40.921875 77.292969 40.722656 C 76.808594 40.523438 76.386719 40.238281 76.015625 39.871094 C 75.648438 39.503906 75.363281 39.078125 75.164062 38.597656 C 74.964844 38.117188 74.867188 37.617188 74.867188 37.097656 L 74.867188 26.996094 C 74.867188 26.476562 74.964844 25.976562 75.164062 25.496094 C 75.363281 25.015625 75.648438 24.589844 76.015625 24.222656 C 76.386719 23.855469 76.808594 23.570312 77.289062 23.371094 C 77.773438 23.171875 78.273438 23.070312 78.792969 23.070312 Z M 78.792969 23.070312 " fill-opacity="1" fill-rule="nonzero"/><path fill="#367cff" d="M 103.207031 23.070312 L 113.316406 23.070312 C 113.835938 23.070312 114.339844 23.171875 114.820312 23.371094 C 115.300781 23.570312 115.726562 23.855469 116.09375 24.222656 C 116.460938 24.589844 116.746094 25.015625 116.945312 25.496094 C 117.144531 25.976562 117.242188 26.476562 117.242188 26.996094 L 117.242188 37.097656 C 117.242188 37.617188 117.144531 38.117188 116.945312 38.597656 C 116.746094 39.078125 116.460938 39.503906 116.09375 39.871094 C 115.726562 40.238281 115.300781 40.523438 114.820312 40.722656 C 114.339844 40.921875 113.835938 41.019531 113.316406 41.019531 L 103.207031 41.019531 C 102.6875 41.019531 102.1875 40.921875 101.707031 40.722656 C 101.222656 40.523438 100.800781 40.238281 100.429688 39.871094 C 100.0625 39.503906 99.78125 39.078125 99.582031 38.597656 C 99.382812 38.117188 99.28125 37.617188 99.28125 37.097656 L 99.28125 26.996094 C 99.28125 26.476562 99.382812 25.976562 99.582031 25.496094 C 99.78125 25.015625 100.0625 24.589844 100.429688 24.222656 C 100.800781 23.855469 101.222656 23.570312 101.707031 23.371094 C 102.1875 23.171875 102.6875 23.070312 103.207031 23.070312 Z M 103.207031 23.070312 " fill-opacity="1" fill-rule="nonzero"/><g clip-path="url(#a8778f5cd7)"><path fill="#367cff" d="M 127.621094 23.070312 L 137.730469 23.070312 C 138.25 23.070312 138.753906 23.171875 139.234375 23.371094 C 139.714844 23.570312 140.140625 23.855469 140.507812 24.222656 C 140.875 24.589844 141.160156 25.015625 141.359375 25.496094 C 141.558594 25.976562 141.65625 26.476562 141.65625 26.996094 L 141.65625 37.097656 C 141.65625 37.617188 141.558594 38.117188 141.359375 38.597656 C 141.160156 39.078125 140.875 39.503906 140.507812 39.871094 C 140.140625 40.238281 139.714844 40.523438 139.234375 40.722656 C 138.753906 40.921875 138.25 41.019531 137.730469 41.019531 L 127.621094 41.019531 C 127.101562 41.019531 126.601562 40.921875 126.121094 40.722656 C 125.640625 40.523438 125.214844 40.238281 124.847656 39.871094 C 124.476562 39.503906 124.195312 39.078125 123.996094 38.597656 C 123.796875 38.117188 123.695312 37.617188 123.695312 37.097656 L 123.695312 26.996094 C 123.695312 26.476562 123.796875 25.976562 123.996094 25.496094 C 124.195312 25.015625 124.476562 24.589844 124.847656 24.222656 C 125.214844 23.855469 125.640625 23.570312 126.121094 23.371094 C 126.601562 23.171875 127.101562 23.070312 127.621094 23.070312 Z M 127.621094 23.070312 " fill-opacity="1" fill-rule="nonzero"/></g><path fill="#367cff" d="M 5.550781 23.070312 L 15.660156 23.070312 C 16.179688 23.070312 16.679688 23.171875 17.160156 23.371094 C 17.644531 23.570312 18.066406 23.855469 18.433594 24.222656 C 18.804688 24.589844 19.085938 25.015625 19.285156 25.496094 C 19.484375 25.976562 19.585938 26.476562 19.585938 26.996094 L 19.585938 37.097656 C 19.585938 37.617188 19.484375 38.117188 19.285156 38.597656 C 19.085938 39.078125 18.804688 39.503906 18.433594 39.871094 C 18.066406 40.238281 17.644531 40.523438 17.160156 40.722656 C 16.679688 40.921875 16.179688 41.019531 15.660156 41.019531 L 5.550781 41.019531 C 5.03125 41.019531 4.527344 40.921875 4.046875 40.722656 C 3.566406 40.523438 3.140625 40.238281 2.773438 39.871094 C 2.40625 39.503906 2.121094 39.078125 1.921875 38.597656 C 1.722656 38.117188 1.625 37.617188 1.625 37.097656 L 1.625 26.996094 C 1.625 26.476562 1.722656 25.976562 1.921875 25.496094 C 2.121094 25.015625 2.40625 24.589844 2.773438 24.222656 C 3.140625 23.855469 3.566406 23.570312 4.046875 23.371094 C 4.527344 23.171875 5.03125 23.070312 5.550781 23.070312 Z M 5.550781 23.070312 " fill-opacity="1" fill-rule="nonzero"/><path fill="#367cff" d="M 29.964844 23.070312 L 40.074219 23.070312 C 40.59375 23.070312 41.09375 23.171875 41.574219 23.371094 C 42.058594 23.570312 42.480469 23.855469 42.851562 24.222656 C 43.21875 24.589844 43.5 25.015625 43.699219 25.496094 C 43.902344 25.976562 44 26.476562 44 26.996094 L 44 37.097656 C 44 37.617188 43.902344 38.117188 43.699219 38.597656 C 43.5 39.078125 43.21875 39.503906 42.851562 39.871094 C 42.480469 40.238281 42.058594 40.523438 41.574219 40.722656 C 41.09375 40.921875 40.59375 41.019531 40.074219 41.019531 L 29.964844 41.019531 C 29.445312 41.019531 28.945312 40.921875 28.460938 40.722656 C 27.980469 40.523438 27.554688 40.238281 27.1875 39.871094 C 26.820312 39.503906 26.535156 39.078125 26.335938 38.597656 C 26.136719 38.117188 26.039062 37.617188 26.039062 37.097656 L 26.039062 26.996094 C 26.039062 26.476562 26.136719 25.976562 26.335938 25.496094 C 26.535156 25.015625 26.820312 24.589844 27.1875 24.222656 C 27.554688 23.855469 27.980469 23.570312 28.460938 23.371094 C 28.945312 23.171875 29.445312 23.070312 29.964844 23.070312 Z M 29.964844 23.070312 " fill-opacity="1" fill-rule="nonzero"/><path fill="#367cff" d="M 54.378906 23.070312 L 64.488281 23.070312 C 65.007812 23.070312 65.507812 23.171875 65.992188 23.371094 C 66.472656 23.570312 66.894531 23.855469 67.265625 24.222656 C 67.632812 24.589844 67.917969 25.015625 68.117188 25.496094 C 68.316406 25.976562 68.414062 26.476562 68.414062 26.996094 L 68.414062 37.097656 C 68.414062 37.617188 68.316406 38.117188 68.117188 38.597656 C 67.917969 39.078125 67.632812 39.503906 67.265625 39.871094 C 66.894531 40.238281 66.472656 40.523438 65.992188 40.722656 C 65.507812 40.921875 65.007812 41.019531 64.488281 41.019531 L 54.378906 41.019531 C 53.859375 41.019531 53.359375 40.921875 52.875 40.722656 C 52.394531 40.523438 51.972656 40.238281 51.601562 39.871094 C 51.234375 39.503906 50.949219 39.078125 50.75 38.597656 C 50.550781 38.117188 50.453125 37.617188 50.453125 37.097656 L 50.453125 26.996094 C 50.453125 26.476562 50.550781 25.976562 50.75 25.496094 C 50.949219 25.015625 51.234375 24.589844 51.601562 24.222656 C 51.972656 23.855469 52.394531 23.570312 52.875 23.371094 C 53.359375 23.171875 53.859375 23.070312 54.378906 23.070312 Z M 54.378906 23.070312 " fill-opacity="1" fill-rule="nonzero"/><path fill="#367cff" d="M 78.792969 48.324219 L 88.902344 48.324219 C 89.421875 48.324219 89.921875 48.421875 90.40625 48.621094 C 90.886719 48.820312 91.308594 49.105469 91.679688 49.472656 C 92.046875 49.839844 92.332031 50.265625 92.53125 50.746094 C 92.730469 51.226562 92.828125 51.726562 92.828125 52.246094 L 92.828125 62.347656 C 92.828125 62.867188 92.730469 63.367188 92.53125 63.847656 C 92.332031 64.328125 92.046875 64.753906 91.679688 65.121094 C 91.308594 65.488281 90.886719 65.773438 90.40625 65.972656 C 89.921875 66.171875 89.421875 66.269531 88.902344 66.269531 L 78.792969 66.269531 C 78.273438 66.269531 77.773438 66.171875 77.292969 65.972656 C 76.808594 65.773438 76.386719 65.488281 76.015625 65.121094 C 75.648438 64.753906 75.363281 64.328125 75.164062 63.847656 C 74.964844 63.367188 74.867188 62.867188 74.867188 62.347656 L 74.867188 52.246094 C 74.867188 51.726562 74.964844 51.226562 75.164062 50.746094 C 75.363281 50.265625 75.648438 49.839844 76.015625 49.472656 C 76.386719 49.105469 76.808594 48.820312 77.289062 48.621094 C 77.773438 48.421875 78.273438 48.324219 78.792969 48.324219 Z M 78.792969 48.324219 " fill-opacity="1" fill-rule="nonzero"/><path fill="#367cff" d="M 103.207031 48.324219 L 113.316406 48.324219 C 113.835938 48.324219 114.339844 48.421875 114.820312 48.621094 C 115.300781 48.820312 115.726562 49.105469 116.09375 49.472656 C 116.460938 49.839844 116.746094 50.265625 116.945312 50.746094 C 117.144531 51.226562 117.242188 51.726562 117.242188 52.246094 L 117.242188 62.347656 C 117.242188 62.867188 117.144531 63.367188 116.945312 63.847656 C 116.746094 64.328125 116.460938 64.753906 116.09375 65.121094 C 115.726562 65.488281 115.300781 65.773438 114.820312 65.972656 C 114.339844 66.171875 113.835938 66.269531 113.316406 66.269531 L 103.207031 66.269531 C 102.6875 66.269531 102.1875 66.171875 101.707031 65.972656 C 101.222656 65.773438 100.800781 65.488281 100.429688 65.121094 C 100.0625 64.753906 99.78125 64.328125 99.582031 63.847656 C 99.382812 63.367188 99.28125 62.867188 99.28125 62.347656 L 99.28125 52.246094 C 99.28125 51.726562 99.382812 51.226562 99.582031 50.746094 C 99.78125 50.265625 100.0625 49.839844 100.429688 49.472656 C 100.800781 49.105469 101.222656 48.820312 101.707031 48.621094 C 102.1875 48.421875 102.6875 48.324219 103.207031 48.324219 Z M 103.207031 48.324219 " fill-opacity="1" fill-rule="nonzero"/><g clip-path="url(#9572aef3a7)"><path fill="#367cff" d="M 127.621094 48.324219 L 137.730469 48.324219 C 138.25 48.324219 138.753906 48.421875 139.234375 48.621094 C 139.714844 48.820312 140.140625 49.105469 140.507812 49.472656 C 140.875 49.839844 141.160156 50.265625 141.359375 50.746094 C 141.558594 51.226562 141.65625 51.726562 141.65625 52.246094 L 141.65625 62.347656 C 141.65625 62.867188 141.558594 63.367188 141.359375 63.847656 C 141.160156 64.328125 140.875 64.753906 140.507812 65.121094 C 140.140625 65.488281 139.714844 65.773438 139.234375 65.972656 C 138.753906 66.171875 138.25 66.269531 137.730469 66.269531 L 127.621094 66.269531 C 127.101562 66.269531 126.601562 66.171875 126.121094 65.972656 C 125.640625 65.773438 125.214844 65.488281 124.847656 65.121094 C 124.476562 64.753906 124.195312 64.328125 123.996094 63.847656 C 123.796875 63.367188 123.695312 62.867188 123.695312 62.347656 L 123.695312 52.246094 C 123.695312 51.726562 123.796875 51.226562 123.996094 50.746094 C 124.195312 50.265625 124.476562 49.839844 124.847656 49.472656 C 125.214844 49.105469 125.640625 48.820312 126.121094 48.621094 C 126.601562 48.421875 127.101562 48.324219 127.621094 48.324219 Z M 127.621094 48.324219 " fill-opacity="1" fill-rule="nonzero"/></g><path fill="#367cff" d="M 5.550781 48.324219 L 15.660156 48.324219 C 16.179688 48.324219 16.679688 48.421875 17.160156 48.621094 C 17.644531 48.820312 18.066406 49.105469 18.433594 49.472656 C 18.804688 49.839844 19.085938 50.265625 19.285156 50.746094 C 19.484375 51.226562 19.585938 51.726562 19.585938 52.246094 L 19.585938 62.347656 C 19.585938 62.867188 19.484375 63.367188 19.285156 63.847656 C 19.085938 64.328125 18.804688 64.753906 18.433594 65.121094 C 18.066406 65.488281 17.644531 65.773438 17.160156 65.972656 C 16.679688 66.171875 16.179688 66.269531 15.660156 66.269531 L 5.550781 66.269531 C 5.03125 66.269531 4.527344 66.171875 4.046875 65.972656 C 3.566406 65.773438 3.140625 65.488281 2.773438 65.121094 C 2.40625 64.753906 2.121094 64.328125 1.921875 63.847656 C 1.722656 63.367188 1.625 62.867188 1.625 62.347656 L 1.625 52.246094 C 1.625 51.726562 1.722656 51.226562 1.921875 50.746094 C 2.121094 50.265625 2.40625 49.839844 2.773438 49.472656 C 3.140625 49.105469 3.566406 48.820312 4.046875 48.621094 C 4.527344 48.421875 5.03125 48.324219 5.550781 48.324219 Z M 5.550781 48.324219 " fill-opacity="1" fill-rule="nonzero"/><path fill="#367cff" d="M 29.964844 48.324219 L 40.074219 48.324219 C 40.59375 48.324219 41.09375 48.421875 41.574219 48.621094 C 42.058594 48.820312 42.480469 49.105469 42.851562 49.472656 C 43.21875 49.839844 43.5 50.265625 43.699219 50.746094 C 43.902344 51.226562 44 51.726562 44 52.246094 L 44 62.347656 C 44 62.867188 43.902344 63.367188 43.699219 63.847656 C 43.5 64.328125 43.21875 64.753906 42.851562 65.121094 C 42.480469 65.488281 42.058594 65.773438 41.574219 65.972656 C 41.09375 66.171875 40.59375 66.269531 40.074219 66.269531 L 29.964844 66.269531 C 29.445312 66.269531 28.945312 66.171875 28.460938 65.972656 C 27.980469 65.773438 27.554688 65.488281 27.1875 65.121094 C 26.820312 64.753906 26.535156 64.328125 26.335938 63.847656 C 26.136719 63.367188 26.039062 62.867188 26.039062 62.347656 L 26.039062 52.246094 C 26.039062 51.726562 26.136719 51.226562 26.335938 50.746094 C 26.535156 50.265625 26.820312 49.839844 27.1875 49.472656 C 27.554688 49.105469 27.980469 48.820312 28.460938 48.621094 C 28.945312 48.421875 29.445312 48.324219 29.964844 48.324219 Z M 29.964844 48.324219 " fill-opacity="1" fill-rule="nonzero"/><path fill="#367cff" d="M 54.378906 48.324219 L 64.488281 48.324219 C 65.007812 48.324219 65.507812 48.421875 65.992188 48.621094 C 66.472656 48.820312 66.894531 49.105469 67.265625 49.472656 C 67.632812 49.839844 67.917969 50.265625 68.117188 50.746094 C 68.316406 51.226562 68.414062 51.726562 68.414062 52.246094 L 68.414062 62.347656 C 68.414062 62.867188 68.316406 63.367188 68.117188 63.847656 C 67.917969 64.328125 67.632812 64.753906 67.265625 65.121094 C 66.894531 65.488281 66.472656 65.773438 65.992188 65.972656 C 65.507812 66.171875 65.007812 66.269531 64.488281 66.269531 L 54.378906 66.269531 C 53.859375 66.269531 53.359375 66.171875 52.875 65.972656 C 52.394531 65.773438 51.972656 65.488281 51.601562 65.121094 C 51.234375 64.753906 50.949219 64.328125 50.75 63.847656 C 50.550781 63.367188 50.453125 62.867188 50.453125 62.347656 L 50.453125 52.246094 C 50.453125 51.726562 50.550781 51.226562 50.75 50.746094 C 50.949219 50.265625 51.234375 49.839844 51.601562 49.472656 C 51.972656 49.105469 52.394531 48.820312 52.875 48.621094 C 53.359375 48.421875 53.859375 48.324219 54.378906 48.324219 Z M 54.378906 48.324219 " fill-opacity="1" fill-rule="nonzero"/><path fill="#367cff" d="M 78.792969 72.636719 L 88.902344 72.636719 C 89.421875 72.636719 89.921875 72.734375 90.40625 72.933594 C 90.886719 73.132812 91.308594 73.417969 91.679688 73.785156 C 92.046875 74.152344 92.332031 74.578125 92.53125 75.058594 C 92.730469 75.539062 92.828125 76.039062 92.828125 76.558594 L 92.828125 86.660156 C 92.828125 87.179688 92.730469 87.679688 92.53125 88.160156 C 92.332031 88.644531 92.046875 89.066406 91.679688 89.433594 C 91.308594 89.804688 90.886719 90.085938 90.40625 90.285156 C 89.921875 90.484375 89.421875 90.585938 88.902344 90.585938 L 78.792969 90.585938 C 78.273438 90.585938 77.773438 90.484375 77.292969 90.285156 C 76.808594 90.085938 76.386719 89.804688 76.015625 89.433594 C 75.648438 89.066406 75.363281 88.644531 75.164062 88.160156 C 74.964844 87.679688 74.867188 87.179688 74.867188 86.660156 L 74.867188 76.558594 C 74.867188 76.039062 74.964844 75.539062 75.164062 75.058594 C 75.363281 74.578125 75.648438 74.152344 76.015625 73.785156 C 76.386719 73.417969 76.808594 73.132812 77.289062 72.933594 C 77.773438 72.734375 78.273438 72.636719 78.792969 72.636719 Z M 78.792969 72.636719 " fill-opacity="1" fill-rule="nonzero"/><path fill="#367cff" d="M 102.851562 72.28125 L 112.960938 72.28125 C 113.480469 72.28125 113.984375 72.378906 114.464844 72.578125 C 114.945312 72.777344 115.371094 73.0625 115.738281 73.429688 C 116.105469 73.796875 116.390625 74.222656 116.589844 74.703125 C 116.789062 75.183594 116.886719 75.683594 116.886719 76.203125 L 116.886719 86.304688 C 116.886719 86.824219 116.789062 87.328125 116.589844 87.808594 C 116.390625 88.289062 116.105469 88.710938 115.738281 89.082031 C 115.371094 89.449219 114.945312 89.730469 114.464844 89.929688 C 113.984375 90.128906 113.480469 90.230469 112.960938 90.230469 L 102.851562 90.230469 C 102.332031 90.230469 101.832031 90.128906 101.351562 89.929688 C 100.867188 89.730469 100.445312 89.449219 100.078125 89.082031 C 99.707031 88.710938 99.425781 88.289062 99.226562 87.808594 C 99.027344 87.328125 98.925781 86.824219 98.925781 86.304688 L 98.925781 76.203125 C 98.925781 75.683594 99.027344 75.183594 99.226562 74.703125 C 99.425781 74.222656 99.707031 73.796875 100.078125 73.429688 C 100.445312 73.0625 100.867188 72.777344 101.351562 72.578125 C 101.832031 72.378906 102.332031 72.28125 102.851562 72.28125 Z M 102.851562 72.28125 " fill-opacity="1" fill-rule="nonzero"/><g clip-path="url(#bc9f73fa82)"><path fill="#367cff" d="M 127.265625 72.28125 L 137.375 72.28125 C 137.894531 72.28125 138.398438 72.378906 138.878906 72.578125 C 139.359375 72.777344 139.785156 73.0625 140.152344 73.429688 C 140.519531 73.796875 140.804688 74.222656 141.003906 74.703125 C 141.203125 75.183594 141.300781 75.683594 141.300781 76.203125 L 141.300781 86.304688 C 141.300781 86.824219 141.203125 87.328125 141.003906 87.808594 C 140.804688 88.289062 140.519531 88.710938 140.152344 89.082031 C 139.785156 89.449219 139.359375 89.730469 138.878906 89.929688 C 138.398438 90.128906 137.894531 90.230469 137.375 90.230469 L 127.265625 90.230469 C 126.746094 90.230469 126.246094 90.128906 125.765625 89.929688 C 125.285156 89.730469 124.859375 89.449219 124.492188 89.082031 C 124.121094 88.710938 123.839844 88.289062 123.640625 87.808594 C 123.441406 87.328125 123.339844 86.824219 123.339844 86.304688 L 123.339844 76.203125 C 123.339844 75.683594 123.441406 75.183594 123.640625 74.703125 C 123.839844 74.222656 124.121094 73.796875 124.492188 73.429688 C 124.859375 73.0625 125.285156 72.777344 125.765625 72.578125 C 126.246094 72.378906 126.746094 72.28125 127.265625 72.28125 Z M 127.265625 72.28125 " fill-opacity="1" fill-rule="nonzero"/></g><path fill="#367cff" d="M 5.550781 72.636719 L 15.660156 72.636719 C 16.179688 72.636719 16.679688 72.734375 17.160156 72.933594 C 17.644531 73.132812 18.066406 73.417969 18.433594 73.785156 C 18.804688 74.152344 19.085938 74.578125 19.285156 75.058594 C 19.484375 75.539062 19.585938 76.039062 19.585938 76.558594 L 19.585938 86.660156 C 19.585938 87.179688 19.484375 87.679688 19.285156 88.160156 C 19.085938 88.644531 18.804688 89.066406 18.433594 89.433594 C 18.066406 89.804688 17.644531 90.085938 17.160156 90.285156 C 16.679688 90.484375 16.179688 90.585938 15.660156 90.585938 L 5.550781 90.585938 C 5.03125 90.585938 4.527344 90.484375 4.046875 90.285156 C 3.566406 90.085938 3.140625 89.804688 2.773438 89.433594 C 2.40625 89.066406 2.121094 88.644531 1.921875 88.160156 C 1.722656 87.679688 1.625 87.179688 1.625 86.660156 L 1.625 76.558594 C 1.625 76.039062 1.722656 75.539062 1.921875 75.058594 C 2.121094 74.578125 2.40625 74.152344 2.773438 73.785156 C 3.140625 73.417969 3.566406 73.132812 4.046875 72.933594 C 4.527344 72.734375 5.03125 72.636719 5.550781 72.636719 Z M 5.550781 72.636719 " fill-opacity="1" fill-rule="nonzero"/><path fill="#367cff" d="M 29.964844 72.636719 L 40.074219 72.636719 C 40.59375 72.636719 41.09375 72.734375 41.574219 72.933594 C 42.058594 73.132812 42.480469 73.417969 42.851562 73.785156 C 43.21875 74.152344 43.5 74.578125 43.699219 75.058594 C 43.902344 75.539062 44 76.039062 44 76.558594 L 44 86.660156 C 44 87.179688 43.902344 87.679688 43.699219 88.160156 C 43.5 88.644531 43.21875 89.066406 42.851562 89.433594 C 42.480469 89.804688 42.058594 90.085938 41.574219 90.285156 C 41.09375 90.484375 40.59375 90.585938 40.074219 90.585938 L 29.964844 90.585938 C 29.445312 90.585938 28.945312 90.484375 28.460938 90.285156 C 27.980469 90.085938 27.554688 89.804688 27.1875 89.433594 C 26.820312 89.066406 26.535156 88.644531 26.335938 88.160156 C 26.136719 87.679688 26.039062 87.179688 26.039062 86.660156 L 26.039062 76.558594 C 26.039062 76.039062 26.136719 75.539062 26.335938 75.058594 C 26.535156 74.578125 26.820312 74.152344 27.1875 73.785156 C 27.554688 73.417969 27.980469 73.132812 28.460938 72.933594 C 28.945312 72.734375 29.445312 72.636719 29.964844 72.636719 Z M 29.964844 72.636719 " fill-opacity="1" fill-rule="nonzero"/><path fill="#367cff" d="M 54.378906 72.636719 L 64.488281 72.636719 C 65.007812 72.636719 65.507812 72.734375 65.992188 72.933594 C 66.472656 73.132812 66.894531 73.417969 67.265625 73.785156 C 67.632812 74.152344 67.917969 74.578125 68.117188 75.058594 C 68.316406 75.539062 68.414062 76.039062 68.414062 76.558594 L 68.414062 86.660156 C 68.414062 87.179688 68.316406 87.679688 68.117188 88.160156 C 67.917969 88.644531 67.632812 89.066406 67.265625 89.433594 C 66.894531 89.804688 66.472656 90.085938 65.992188 90.285156 C 65.507812 90.484375 65.007812 90.585938 64.488281 90.585938 L 54.378906 90.585938 C 53.859375 90.585938 53.359375 90.484375 52.875 90.285156 C 52.394531 90.085938 51.972656 89.804688 51.601562 89.433594 C 51.234375 89.066406 50.949219 88.644531 50.75 88.160156 C 50.550781 87.679688 50.453125 87.179688 50.453125 86.660156 L 50.453125 76.558594 C 50.453125 76.039062 50.550781 75.539062 50.75 75.058594 C 50.949219 74.578125 51.234375 74.152344 51.601562 73.785156 C 51.972656 73.417969 52.394531 73.132812 52.875 72.933594 C 53.359375 72.734375 53.859375 72.636719 54.378906 72.636719 Z M 54.378906 72.636719 " fill-opacity="1" fill-rule="nonzero"/><g clip-path="url(#17980fda41)"><path fill="#367cff" d="M 78.4375 94.65625 L 88.546875 94.65625 C 89.066406 94.65625 89.570312 94.757812 90.050781 94.957031 C 90.53125 95.15625 90.957031 95.4375 91.324219 95.808594 C 91.691406 96.175781 91.976562 96.597656 92.175781 97.082031 C 92.375 97.5625 92.472656 98.0625 92.472656 98.582031 L 92.472656 108.683594 C 92.472656 109.203125 92.375 109.703125 92.175781 110.183594 C 91.976562 110.664062 91.691406 111.089844 91.324219 111.457031 C 90.957031 111.824219 90.53125 112.109375 90.050781 112.308594 C 89.570312 112.507812 89.066406 112.605469 88.546875 112.605469 L 78.4375 112.605469 C 77.917969 112.605469 77.417969 112.507812 76.9375 112.308594 C 76.453125 112.109375 76.03125 111.824219 75.660156 111.457031 C 75.292969 111.089844 75.011719 110.664062 74.8125 110.183594 C 74.613281 109.703125 74.511719 109.203125 74.511719 108.683594 L 74.511719 98.582031 C 74.511719 98.0625 74.613281 97.5625 74.8125 97.082031 C 75.011719 96.597656 75.292969 96.175781 75.660156 95.808594 C 76.03125 95.4375 76.453125 95.15625 76.9375 94.957031 C 77.417969 94.757812 77.917969 94.65625 78.4375 94.65625 Z M 78.4375 94.65625 " fill-opacity="1" fill-rule="nonzero"/></g><g clip-path="url(#1fada1c8af)"><path fill="#367cff" d="M 5.195312 94.65625 L 15.304688 94.65625 C 15.824219 94.65625 16.324219 94.757812 16.804688 94.957031 C 17.289062 95.15625 17.710938 95.4375 18.082031 95.808594 C 18.449219 96.175781 18.730469 96.597656 18.929688 97.082031 C 19.128906 97.5625 19.230469 98.0625 19.230469 98.582031 L 19.230469 108.683594 C 19.230469 109.203125 19.128906 109.703125 18.929688 110.183594 C 18.730469 110.664062 18.449219 111.089844 18.082031 111.457031 C 17.710938 111.824219 17.289062 112.109375 16.804688 112.308594 C 16.324219 112.507812 15.824219 112.605469 15.304688 112.605469 L 5.195312 112.605469 C 4.675781 112.605469 4.171875 112.507812 3.691406 112.308594 C 3.210938 112.109375 2.785156 111.824219 2.417969 111.457031 C 2.050781 111.089844 1.765625 110.664062 1.566406 110.183594 C 1.367188 109.703125 1.269531 109.203125 1.269531 108.683594 L 1.269531 98.582031 C 1.269531 98.0625 1.367188 97.5625 1.566406 97.082031 C 1.765625 96.597656 2.050781 96.175781 2.417969 95.808594 C 2.785156 95.4375 3.210938 95.15625 3.691406 94.957031 C 4.171875 94.757812 4.675781 94.65625 5.195312 94.65625 Z M 5.195312 94.65625 " fill-opacity="1" fill-rule="nonzero"/></g><g clip-path="url(#36aa23e938)"><path fill="#367cff" d="M 29.609375 94.65625 L 39.71875 94.65625 C 40.238281 94.65625 40.738281 94.757812 41.222656 94.957031 C 41.703125 95.15625 42.125 95.4375 42.496094 95.808594 C 42.863281 96.175781 43.148438 96.597656 43.347656 97.082031 C 43.546875 97.5625 43.644531 98.0625 43.644531 98.582031 L 43.644531 108.683594 C 43.644531 109.203125 43.546875 109.703125 43.347656 110.183594 C 43.148438 110.664062 42.863281 111.089844 42.496094 111.457031 C 42.125 111.824219 41.703125 112.109375 41.222656 112.308594 C 40.738281 112.507812 40.238281 112.605469 39.71875 112.605469 L 29.609375 112.605469 C 29.089844 112.605469 28.589844 112.507812 28.105469 112.308594 C 27.625 112.109375 27.203125 111.824219 26.832031 111.457031 C 26.464844 111.089844 26.179688 110.664062 25.980469 110.183594 C 25.78125 109.703125 25.683594 109.203125 25.683594 108.683594 L 25.683594 98.582031 C 25.683594 98.0625 25.78125 97.5625 25.980469 97.082031 C 26.179688 96.597656 26.464844 96.175781 26.832031 95.808594 C 27.203125 95.4375 27.625 95.15625 28.105469 94.957031 C 28.589844 94.757812 29.089844 94.65625 29.609375 94.65625 Z M 29.609375 94.65625 " fill-opacity="1" fill-rule="nonzero"/></g><g clip-path="url(#465b1b9d88)"><path fill="#367cff" d="M 54.023438 94.65625 L 64.132812 94.65625 C 64.652344 94.65625 65.152344 94.757812 65.636719 94.957031 C 66.117188 95.15625 66.539062 95.4375 66.910156 95.808594 C 67.277344 96.175781 67.5625 96.597656 67.761719 97.082031 C 67.960938 97.5625 68.058594 98.0625 68.058594 98.582031 L 68.058594 108.683594 C 68.058594 109.203125 67.960938 109.703125 67.761719 110.183594 C 67.5625 110.664062 67.277344 111.089844 66.910156 111.457031 C 66.539062 111.824219 66.117188 112.109375 65.636719 112.308594 C 65.152344 112.507812 64.652344 112.605469 64.132812 112.605469 L 54.023438 112.605469 C 53.503906 112.605469 53.003906 112.507812 52.523438 112.308594 C 52.039062 112.109375 51.617188 111.824219 51.246094 111.457031 C 50.878906 111.089844 50.59375 110.664062 50.394531 110.183594 C 50.195312 109.703125 50.097656 109.203125 50.097656 108.683594 L 50.097656 98.582031 C 50.097656 98.0625 50.195312 97.5625 50.394531 97.082031 C 50.59375 96.597656 50.878906 96.175781 51.246094 95.808594 C 51.617188 95.4375 52.039062 95.15625 52.523438 94.957031 C 53.003906 94.757812 53.503906 94.65625 54.023438 94.65625 Z M 54.023438 94.65625 " fill-opacity="1" fill-rule="nonzero"/></g></g></g></g><g clip-path="url(#3d68de8ebc)"><path fill="#292a2e" d="M 323.394531 10.324219 L 323.394531 16.703125 L 137.570312 16.703125 L 137.570312 10.324219 C 137.570312 4.824219 142.027344 0.367188 147.53125 0.367188 L 313.433594 0.367188 C 318.933594 0.367188 323.394531 4.824219 323.394531 10.324219 Z M 323.394531 10.324219 " fill-opacity="1" fill-rule="nonzero"/></g><path fill="#ffffff" d="M 201.25 123.644531 L 210.90625 123.644531 C 211.191406 123.644531 211.46875 123.699219 211.734375 123.808594 C 212 123.917969 212.234375 124.074219 212.4375 124.277344 C 212.640625 124.480469 212.796875 124.714844 212.90625 124.980469 C 213.015625 125.246094 213.074219 125.519531 213.074219 125.808594 L 213.074219 135.457031 C 213.074219 135.742188 213.015625 136.019531 212.90625 136.285156 C 212.796875 136.550781 212.640625 136.785156 212.4375 136.988281 C 212.234375 137.191406 212 137.347656 211.734375 137.457031 C 211.46875 137.566406 211.191406 137.621094 210.90625 137.621094 L 201.25 137.621094 C 200.964844 137.621094 200.6875 137.566406 200.421875 137.457031 C 200.15625 137.347656 199.921875 137.191406 199.71875 136.988281 C 199.515625 136.785156 199.359375 136.550781 199.25 136.285156 C 199.140625 136.019531 199.085938 135.742188 199.085938 135.457031 L 199.085938 125.808594 C 199.085938 125.519531 199.140625 125.246094 199.25 124.980469 C 199.359375 124.714844 199.515625 124.480469 199.71875 124.277344 C 199.921875 124.074219 200.15625 123.917969 200.421875 123.808594 C 200.6875 123.699219 200.964844 123.644531 201.25 123.644531 Z M 201.25 123.644531 " fill-opacity="1" fill-rule="nonzero"/><path fill="#367cff" d="M 161.601562 94.152344 L 149.679688 91.996094 C 148.976562 91.867188 148.511719 91.195312 148.636719 90.492188 L 150.480469 80.3125 L 154.148438 77.871094 L 164.21875 79.691406 C 164.921875 79.820312 165.390625 80.492188 165.261719 81.195312 L 163.105469 93.109375 C 162.976562 93.8125 162.304688 94.277344 161.601562 94.152344 Z M 161.601562 94.152344 " fill-opacity="1" fill-rule="nonzero"/><path fill="#fffffa" d="M 154.148438 77.871094 L 150.480469 80.3125 L 153.613281 80.933594 Z M 154.148438 77.871094 " fill-opacity="0.29" fill-rule="nonzero"/><g mask="url(#9031bbbf3d)"><g transform="matrix(1, 0, 0, 1, 150, 84)"><g clip-path="url(#110acc6351)"><g clip-path="url(#47c9900098)"><path fill="#ffffff" d="M 12.53125 3.207031 C 12.519531 3.207031 12.507812 3.207031 12.496094 3.203125 L 1.34375 1.140625 C 1.242188 1.125 1.179688 1.03125 1.195312 0.929688 C 1.214844 0.832031 1.308594 0.769531 1.40625 0.785156 L 12.5625 2.847656 C 12.660156 2.867188 12.726562 2.960938 12.707031 3.058594 C 12.691406 3.144531 12.617188 3.203125 12.53125 3.207031 Z M 12.53125 3.207031 " fill-opacity="1" fill-rule="nonzero"/></g><g clip-path="url(#53e7590d66)"><path fill="#ffffff" d="M 12.132812 5.542969 C 12.121094 5.542969 12.109375 5.542969 12.097656 5.542969 L 0.941406 3.480469 C 0.84375 3.460938 0.78125 3.367188 0.796875 3.269531 C 0.816406 3.171875 0.910156 3.105469 1.007812 3.125 L 12.164062 5.1875 C 12.261719 5.203125 12.324219 5.296875 12.308594 5.394531 C 12.292969 5.480469 12.21875 5.542969 12.132812 5.542969 Z M 12.132812 5.542969 " fill-opacity="1" fill-rule="nonzero"/></g><g clip-path="url(#3ce00a7965)"><path fill="#ffffff" d="M 5.589844 6.496094 C 5.578125 6.496094 5.566406 6.496094 5.550781 6.492188 L 0.605469 5.578125 C 0.507812 5.558594 0.441406 5.464844 0.460938 5.367188 C 0.476562 5.269531 0.570312 5.203125 0.671875 5.222656 L 5.617188 6.136719 C 5.714844 6.15625 5.78125 6.25 5.761719 6.347656 C 5.746094 6.433594 5.671875 6.492188 5.589844 6.496094 Z M 5.589844 6.496094 " fill-opacity="1" fill-rule="nonzero"/></g></g></g></g><path fill="#ffffff" d="M 162.585938 85.304688 C 162.542969 85.304688 162.5 85.300781 162.453125 85.292969 L 160.039062 84.855469 C 159.847656 84.820312 159.679688 84.710938 159.566406 84.546875 C 159.457031 84.386719 159.414062 84.191406 159.449219 83.996094 L 159.855469 81.4375 C 159.929688 81.039062 160.308594 80.777344 160.703125 80.84375 L 163.125 81.257812 C 163.320312 81.289062 163.488281 81.398438 163.601562 81.5625 C 163.714844 81.722656 163.757812 81.921875 163.722656 82.113281 L 163.308594 84.703125 C 163.242188 85.058594 162.933594 85.304688 162.585938 85.304688 Z M 160.578125 81.117188 C 160.367188 81.117188 160.175781 81.269531 160.136719 81.484375 L 159.730469 84.046875 C 159.707031 84.167969 159.734375 84.289062 159.800781 84.386719 C 159.871094 84.484375 159.972656 84.550781 160.09375 84.574219 L 162.507812 85.015625 C 162.746094 85.058594 162.980469 84.898438 163.027344 84.65625 L 163.441406 82.0625 C 163.464844 81.945312 163.4375 81.824219 163.367188 81.726562 C 163.300781 81.625 163.195312 81.558594 163.074219 81.539062 L 160.65625 81.125 C 160.628906 81.121094 160.605469 81.117188 160.578125 81.117188 Z M 160.578125 81.117188 " fill-opacity="1" fill-rule="nonzero"/><path fill="#367cff" d="M 203.207031 135.246094 C 203.183594 135.246094 203.15625 135.246094 203.132812 135.242188 C 202.898438 135.222656 202.683594 135.101562 202.539062 134.914062 L 200.003906 131.582031 C 199.722656 131.210938 199.792969 130.6875 200.164062 130.40625 C 200.535156 130.125 201.0625 130.195312 201.339844 130.566406 L 203.320312 133.167969 L 210.917969 126.238281 C 211.261719 125.925781 211.792969 125.949219 212.105469 126.292969 C 212.417969 126.636719 212.394531 127.167969 212.050781 127.480469 L 203.773438 135.027344 C 203.617188 135.167969 203.417969 135.246094 203.207031 135.246094 Z M 203.207031 135.246094 " fill-opacity="1" fill-rule="nonzero"/><path fill="#0cbc8b" d="M 313.652344 39.089844 L 303.605469 45.847656 C 303.011719 46.25 302.207031 46.089844 301.808594 45.5 L 296.027344 36.917969 L 296.953125 32.613281 L 305.4375 26.902344 C 306.03125 26.503906 306.835938 26.660156 307.238281 27.25 L 314.003906 37.292969 C 314.402344 37.886719 314.246094 38.6875 313.652344 39.089844 Z M 313.652344 39.089844 " fill-opacity="1" fill-rule="nonzero"/><path fill="#fffffa" d="M 296.953125 32.613281 L 296.027344 36.917969 L 298.703125 35.179688 Z M 296.953125 32.613281 " fill-opacity="0.29" fill-rule="nonzero"/><g mask="url(#c83317024f)"><g transform="matrix(1, 0, 0, 1, 299, 33)"><g clip-path="url(#52420725ec)"><g clip-path="url(#e6c998d340)"><path fill="#ffffff" d="M 10.472656 0.460938 C 10.464844 0.46875 10.457031 0.476562 10.445312 0.484375 L 1.011719 6.777344 C 0.929688 6.835938 0.816406 6.8125 0.761719 6.730469 C 0.707031 6.644531 0.730469 6.535156 0.8125 6.480469 L 10.246094 0.183594 C 10.328125 0.128906 10.441406 0.152344 10.496094 0.234375 C 10.542969 0.304688 10.53125 0.402344 10.472656 0.460938 Z M 10.472656 0.460938 " fill-opacity="1" fill-rule="nonzero"/></g><path fill="#ffffff" d="M 11.820312 2.414062 C 11.808594 2.421875 11.800781 2.429688 11.789062 2.4375 L 2.359375 8.734375 C 2.273438 8.789062 2.164062 8.765625 2.105469 8.683594 C 2.050781 8.601562 2.074219 8.488281 2.15625 8.433594 L 11.589844 2.136719 C 11.671875 2.082031 11.785156 2.105469 11.839844 2.1875 C 11.890625 2.261719 11.878906 2.355469 11.820312 2.414062 Z M 11.820312 2.414062 " fill-opacity="1" fill-rule="nonzero"/><g clip-path="url(#62f9e6da62)"><path fill="#ffffff" d="M 7.792969 7.65625 C 7.785156 7.664062 7.773438 7.671875 7.765625 7.679688 L 3.578125 10.472656 C 3.496094 10.527344 3.382812 10.503906 3.328125 10.421875 C 3.273438 10.339844 3.296875 10.226562 3.378906 10.171875 L 7.5625 7.378906 C 7.644531 7.324219 7.757812 7.347656 7.8125 7.429688 C 7.863281 7.503906 7.851562 7.597656 7.792969 7.65625 Z M 7.792969 7.65625 " fill-opacity="1" fill-rule="nonzero"/></g></g></g></g><path fill="#292a2e" d="M 315.953125 245.945312 L 130.328125 245.945312 C 130.21875 245.945312 130.128906 245.859375 130.128906 245.746094 C 130.128906 245.636719 130.21875 245.546875 130.328125 245.546875 L 315.953125 245.546875 C 316.066406 245.546875 316.152344 245.636719 316.152344 245.746094 C 316.152344 245.859375 316.066406 245.945312 315.953125 245.945312 Z M 315.953125 245.945312 " fill-opacity="1" fill-rule="nonzero"/><path fill="#367cff" d="M 282.136719 233.351562 C 282.136719 233.351562 280.847656 240.023438 274.59375 240.398438 C 268.339844 240.769531 269.695312 245.746094 269.695312 245.746094 L 293.59375 245.746094 L 293.59375 233.816406 Z M 282.136719 233.351562 " fill-opacity="1" fill-rule="nonzero"/><path fill="#262626" d="M 289.507812 111.597656 C 289.507812 111.597656 289.429688 109.589844 289.445312 114.140625 C 289.507812 131.117188 290.371094 150.507812 291.09375 161.855469 C 292.25 180.097656 294.648438 237.609375 294.648438 237.609375 L 277.800781 237.476562 L 263.722656 110.90625 Z M 289.507812 111.597656 " fill-opacity="1" fill-rule="nonzero"/><path fill="#0a0a0a" d="M 271.4375 131.839844 C 271.4375 131.839844 270.785156 144.160156 270.664062 147.050781 C 270.386719 153.738281 270.136719 160.707031 270.136719 168.5625 L 267.8125 147.933594 C 267.8125 147.933594 269.625 141.480469 271.4375 131.839844 Z M 271.4375 131.839844 " fill-opacity="1" fill-rule="nonzero"/><path fill="#367cff" d="M 251.324219 233.351562 C 251.324219 233.351562 250.035156 240.023438 243.78125 240.398438 C 237.527344 240.769531 238.882812 245.746094 238.882812 245.746094 L 262.78125 245.746094 L 262.78125 233.816406 C 262.78125 233.816406 251.324219 233.351562 251.324219 233.351562 Z M 251.324219 233.351562 " fill-opacity="1" fill-rule="nonzero"/><path fill="#262626" d="M 246.574219 112.914062 C 246.574219 112.914062 244.898438 171.507812 245.101562 174.34375 L 247.515625 237.171875 L 264.671875 237.457031 L 266.023438 171.480469 C 266.023438 171.480469 266.226562 153.28125 270.628906 136.382812 C 272.886719 127.710938 274.226562 118.828125 274.671875 109.875 C 274.671875 109.875 246.574219 112.914062 246.574219 112.914062 Z M 246.574219 112.914062 " fill-opacity="1" fill-rule="nonzero"/><path fill="#333333" d="M 289.675781 111.59375 L 289.726562 111.597656 C 289.726562 111.597656 289.691406 110.609375 289.675781 111.59375 Z M 289.675781 111.59375 " fill-opacity="1" fill-rule="nonzero"/><path fill="#ff9e85" d="M 257.074219 61.683594 C 257.125 61.675781 257.6875 71.042969 268.578125 70.226562 C 276.117188 69.660156 278.804688 61.667969 278.980469 61.667969 C 278.167969 61.496094 276.796875 61.246094 276.4375 61.050781 C 275.25 60.414062 273.558594 59.75 273.175781 57.449219 C 272.957031 56.121094 273.328125 49.328125 273.214844 47.984375 L 261.863281 50.566406 C 262.027344 53.402344 263.15625 59.980469 259.191406 61.144531 C 258.53125 61.335938 257.820312 61.515625 257.074219 61.683594 Z M 257.074219 61.683594 " fill-opacity="1" fill-rule="nonzero"/><path fill="#ff9e85" d="M 262.183594 54.992188 C 266.753906 55.34375 272.621094 53.40625 273.722656 47.3125 L 274.722656 41.8125 C 275.824219 35.71875 273.519531 30.199219 267.777344 29.15625 C 262.035156 28.117188 256.847656 32.28125 255.742188 38.375 L 255.300781 40.8125 C 255.210938 41.3125 255.097656 42.222656 255.0625 43.347656 C 254.988281 45.589844 254.882812 49.003906 255.996094 51.511719 C 257.042969 53.878906 259.261719 54.765625 262.183594 54.992188 Z M 262.183594 54.992188 " fill-opacity="1" fill-rule="nonzero"/><path fill="#0c0c0c" d="M 272.433594 28.847656 C 270.96875 28.367188 268.898438 27.964844 266.835938 27.894531 C 266.652344 27.171875 266.242188 26.609375 265.640625 26.371094 C 264.636719 25.980469 263.410156 26.609375 262.59375 27.828125 C 262.140625 27.132812 261.523438 26.507812 260.710938 26.253906 C 258.460938 25.554688 258.351562 28.78125 258.351562 28.78125 C 258.351562 28.78125 254.785156 25.265625 254.675781 29.75 C 254.539062 35.171875 255.535156 36.761719 256.265625 37.164062 C 257.703125 37.957031 258.769531 37.824219 259.339844 38.988281 C 261.0625 42.523438 259.375 52.472656 261.367188 53.71875 C 264.421875 55.628906 270.671875 55.695312 272.703125 55.550781 C 273.484375 55.492188 274.214844 54.589844 274.546875 53.878906 C 275.605469 51.585938 277.976562 46.390625 278.636719 44.242188 C 279.851562 40.273438 279.761719 31.238281 272.433594 28.847656 Z M 272.433594 28.847656 " fill-opacity="1" fill-rule="nonzero"/><path fill="#ff9e85" d="M 260.003906 50.164062 C 261.765625 49.972656 262.988281 47.933594 262.800781 46.171875 C 262.605469 44.410156 261.074219 43.59375 259.308594 43.785156 L 258.53125 45.0625 L 258.488281 50.328125 Z M 260.003906 50.164062 " fill-opacity="1" fill-rule="nonzero"/><path fill="#367cff" d="M 244.363281 80.707031 C 244.6875 84.511719 246.261719 108.230469 246.574219 112.914062 L 289.488281 112.914062 C 289.730469 108.691406 290.820312 90.222656 291.738281 81.960938 C 292.617188 74.078125 294.339844 70.132812 293.078125 67.800781 C 291.015625 63.992188 285.378906 61.792969 281.535156 61.273438 C 279.191406 60.957031 275.660156 60.726562 275.660156 60.726562 C 275.660156 60.726562 259.183594 60.726562 259.136719 60.726562 C 257.566406 60.726562 248.417969 61.464844 246.394531 63.023438 C 242.855469 65.746094 243.675781 72.652344 244.363281 80.707031 Z M 244.363281 80.707031 " fill-opacity="1" fill-rule="nonzero"/><path fill="#0c0c0c" d="M 243.769531 75.945312 C 243.695312 75.945312 243.632812 75.886719 243.628906 75.808594 L 243.28125 69.773438 C 243.277344 69.691406 243.335938 69.625 243.414062 69.621094 C 243.492188 69.617188 243.5625 69.675781 243.566406 69.753906 L 243.914062 75.792969 C 243.917969 75.871094 243.855469 75.9375 243.777344 75.945312 C 243.777344 75.945312 243.773438 75.945312 243.769531 75.945312 Z M 243.769531 75.945312 " fill-opacity="1" fill-rule="nonzero"/><path fill="#367cff" d="M 298.765625 112.664062 C 301.164062 112.664062 303.449219 111.566406 304.941406 109.65625 C 306.609375 107.519531 307.054688 104.671875 306.117188 102.128906 C 305.671875 100.925781 295.28125 73.421875 293.300781 68.324219 L 278.648438 74.257812 C 279.761719 77.125 283.792969 87.984375 287.03125 96.734375 L 281.652344 96.148438 L 279.957031 111.714844 L 297.917969 112.621094 C 298.203125 112.652344 298.484375 112.664062 298.765625 112.664062 Z M 298.765625 112.664062 " fill-opacity="1" fill-rule="nonzero"/><path fill="#0c0c0c" d="M 289.351562 112.910156 L 290.40625 82.121094 L 290.691406 82.128906 L 289.636719 112.921875 Z M 289.351562 112.910156 " fill-opacity="1" fill-rule="nonzero"/><path fill="#0cbc8b" d="M 213 49.28125 L 200.007812 55.007812 C 199.421875 55.265625 198.734375 55 198.476562 54.414062 L 193.664062 43.511719 L 195.542969 38.933594 L 206.332031 34.175781 C 206.917969 33.917969 207.601562 34.183594 207.859375 34.769531 L 213.589844 47.753906 C 213.851562 48.339844 213.585938 49.023438 213 49.28125 Z M 213 49.28125 " fill-opacity="1" fill-rule="nonzero"/><path fill="#fffffa" d="M 195.542969 38.933594 L 193.664062 43.511719 L 196.972656 42.121094 Z M 195.542969 38.933594 " fill-opacity="0.29" fill-rule="nonzero"/><g mask="url(#7663f6e9ab)"><g transform="matrix(1, 0, 0, 1, 196, 39)"><g clip-path="url(#13944ec684)"><g clip-path="url(#4f496b2568)"><path fill="#ffffff" d="M 12.234375 1.140625 C 12.226562 1.148438 12.214844 1.15625 12.199219 1.160156 L 0.519531 6.257812 C 0.417969 6.300781 0.296875 6.253906 0.253906 6.152344 C 0.207031 6.050781 0.253906 5.929688 0.359375 5.882812 L 12.039062 0.789062 C 12.140625 0.746094 12.261719 0.792969 12.304688 0.894531 C 12.34375 0.984375 12.3125 1.085938 12.234375 1.140625 Z M 12.234375 1.140625 " fill-opacity="1" fill-rule="nonzero"/></g><path fill="#ffffff" d="M 13.222656 3.347656 C 13.210938 3.355469 13.199219 3.363281 13.1875 3.367188 L 1.507812 8.464844 C 1.40625 8.507812 1.285156 8.460938 1.238281 8.359375 C 1.195312 8.257812 1.242188 8.136719 1.34375 8.089844 L 13.023438 2.996094 C 13.128906 2.953125 13.246094 3 13.292969 3.101562 C 13.332031 3.191406 13.300781 3.292969 13.222656 3.347656 Z M 13.222656 3.347656 " fill-opacity="1" fill-rule="nonzero"/><g clip-path="url(#78805ca938)"><path fill="#ffffff" d="M 14.324219 5.777344 C 14.3125 5.785156 14.300781 5.789062 14.289062 5.796875 L 2.605469 10.890625 C 2.503906 10.9375 2.382812 10.890625 2.339844 10.785156 C 2.296875 10.683594 2.339844 10.5625 2.445312 10.519531 L 14.125 5.425781 C 14.226562 5.378906 14.347656 5.425781 14.390625 5.527344 C 14.429688 5.617188 14.398438 5.722656 14.324219 5.777344 Z M 14.324219 5.777344 " fill-opacity="1" fill-rule="nonzero"/></g><g clip-path="url(#e2855b0892)"><path fill="#ffffff" d="M 8.832031 10.777344 C 8.820312 10.785156 8.808594 10.789062 8.796875 10.796875 L 3.613281 13.054688 C 3.511719 13.101562 3.390625 13.054688 3.347656 12.953125 C 3.300781 12.847656 3.347656 12.730469 3.453125 12.683594 L 8.632812 10.425781 C 8.734375 10.378906 8.855469 10.425781 8.898438 10.527344 C 8.9375 10.617188 8.90625 10.722656 8.832031 10.777344 Z M 8.832031 10.777344 " fill-opacity="1" fill-rule="nonzero"/></g></g></g></g><path fill="#ff9e85" d="M 202.261719 48.285156 C 202.011719 47.625 201.261719 47.304688 200.605469 47.589844 C 199.992188 47.859375 199.734375 48.59375 199.972656 49.222656 L 200.382812 50.921875 C 200.5625 51.667969 200.15625 52.429688 199.4375 52.699219 C 198.734375 52.964844 197.945312 52.671875 197.578125 52.015625 C 197.578125 52.015625 195.015625 46.609375 194.96875 46.386719 C 194.550781 46.796875 193.816406 47.804688 193.664062 48.566406 C 193.660156 48.570312 194.40625 54.640625 194.824219 55.066406 L 199.160156 61.75 C 200.933594 63.5625 206.882812 60.542969 206.882812 60.542969 Z M 202.261719 48.285156 " fill-opacity="1" fill-rule="nonzero"/><path fill="#367cff" d="M 220.074219 98.175781 C 219.4375 98.175781 218.796875 98.105469 218.167969 97.957031 C 215.949219 97.441406 214.035156 96.050781 212.859375 94.101562 L 194.199219 63.125 L 208.625 54.445312 L 222.8125 77.996094 L 246.394531 63.023438 L 256.382812 76.410156 L 224.628906 96.835938 C 223.257812 97.71875 221.675781 98.175781 220.070312 98.175781 Z M 220.074219 98.175781 " fill-opacity="1" fill-rule="nonzero"/><path fill="#0c0c0c" d="M 244.601562 84.125 C 244.550781 84.125 244.5 84.097656 244.476562 84.046875 C 244.4375 83.976562 244.464844 83.890625 244.535156 83.855469 L 248.613281 81.753906 C 248.683594 81.71875 248.769531 81.746094 248.804688 81.816406 C 248.839844 81.886719 248.8125 81.972656 248.742188 82.007812 L 244.667969 84.109375 C 244.648438 84.121094 244.625 84.125 244.601562 84.125 Z M 244.601562 84.125 " fill-opacity="1" fill-rule="nonzero"/><path fill="#367cff" d="M 256.859375 61.617188 L 258.882812 58.457031 C 259.0625 58.175781 259.375 58.003906 259.710938 58.003906 L 274.957031 58.003906 C 275.234375 58.003906 275.5 58.125 275.6875 58.328125 L 278.648438 61.617188 Z M 256.859375 61.617188 " fill-opacity="1" fill-rule="nonzero"/><path fill="#292a2e" d="M 138.582031 188.242188 L 139.074219 188.1875 L 145.160156 243.746094 L 144.664062 243.800781 Z M 138.582031 188.242188 " fill-opacity="1" fill-rule="nonzero"/><path fill="#292a2e" d="M 151.839844 242.03125 L 154.832031 212.441406 L 155.324219 212.492188 L 152.332031 242.082031 Z M 151.839844 242.03125 " fill-opacity="1" fill-rule="nonzero"/><path fill="#292a2e" d="M 137.769531 238.457031 L 159.980469 238.457031 L 159.980469 245.65625 L 137.769531 245.65625 Z M 137.769531 238.457031 " fill-opacity="1" fill-rule="nonzero"/><path fill="#ffffff" d="M 137.769531 238.457031 L 159.980469 238.457031 L 159.980469 245.65625 L 137.769531 245.65625 Z M 137.769531 238.457031 " fill-opacity="0.2" fill-rule="nonzero"/><path fill="#0cbc8b" d="M 168.886719 205.980469 C 169.683594 206.578125 170.421875 207.234375 171.101562 207.949219 C 171.785156 208.664062 172.394531 209.425781 172.9375 210.230469 C 173.480469 211.039062 173.941406 211.875 174.324219 212.738281 C 174.707031 213.605469 175.003906 214.484375 175.210938 215.375 C 175.417969 216.265625 175.535156 217.15625 175.5625 218.039062 C 175.585938 218.921875 175.519531 219.785156 175.363281 220.628906 C 175.203125 221.472656 174.957031 222.277344 174.621094 223.042969 C 174.285156 223.8125 173.867188 224.527344 173.367188 225.195312 C 172.867188 225.859375 172.296875 226.457031 171.648438 226.992188 C 171.003906 227.527344 170.296875 227.988281 169.53125 228.371094 C 168.765625 228.757812 167.953125 229.0625 167.097656 229.28125 C 166.238281 229.503906 165.355469 229.636719 164.4375 229.683594 C 163.523438 229.730469 162.597656 229.691406 161.65625 229.5625 C 160.71875 229.4375 159.789062 229.222656 158.863281 228.925781 C 157.9375 228.628906 157.035156 228.25 156.160156 227.796875 C 155.28125 227.339844 154.445312 226.8125 153.652344 226.214844 C 152.859375 225.617188 152.121094 224.960938 151.4375 224.246094 C 150.757812 223.53125 150.144531 222.769531 149.601562 221.964844 C 149.058594 221.160156 148.597656 220.324219 148.214844 219.457031 C 147.832031 218.589844 147.539062 217.710938 147.328125 216.820312 C 147.121094 215.929688 147.003906 215.039062 146.980469 214.15625 C 146.953125 213.273438 147.019531 212.410156 147.179688 211.566406 C 147.335938 210.722656 147.582031 209.917969 147.917969 209.152344 C 148.253906 208.382812 148.671875 207.667969 149.171875 207.003906 C 149.671875 206.335938 150.246094 205.738281 150.890625 205.203125 C 151.539062 204.667969 152.242188 204.207031 153.007812 203.824219 C 153.773438 203.4375 154.585938 203.132812 155.445312 202.914062 C 156.300781 202.695312 157.1875 202.558594 158.101562 202.511719 C 159.019531 202.464844 159.945312 202.503906 160.882812 202.632812 C 161.820312 202.757812 162.753906 202.972656 163.679688 203.269531 C 164.605469 203.566406 165.503906 203.945312 166.382812 204.398438 C 167.257812 204.855469 168.09375 205.382812 168.886719 205.980469 Z M 168.886719 205.980469 " fill-opacity="1" fill-rule="nonzero"/><path fill="#ffffff" d="M 168.886719 205.980469 C 169.683594 206.578125 170.421875 207.234375 171.101562 207.949219 C 171.785156 208.664062 172.394531 209.425781 172.9375 210.230469 C 173.480469 211.039062 173.941406 211.875 174.324219 212.738281 C 174.707031 213.605469 175.003906 214.484375 175.210938 215.375 C 175.417969 216.265625 175.535156 217.15625 175.5625 218.039062 C 175.585938 218.921875 175.519531 219.785156 175.363281 220.628906 C 175.203125 221.472656 174.957031 222.277344 174.621094 223.042969 C 174.285156 223.8125 173.867188 224.527344 173.367188 225.195312 C 172.867188 225.859375 172.296875 226.457031 171.648438 226.992188 C 171.003906 227.527344 170.296875 227.988281 169.53125 228.371094 C 168.765625 228.757812 167.953125 229.0625 167.097656 229.28125 C 166.238281 229.503906 165.355469 229.636719 164.4375 229.683594 C 163.523438 229.730469 162.597656 229.691406 161.65625 229.5625 C 160.71875 229.4375 159.789062 229.222656 158.863281 228.925781 C 157.9375 228.628906 157.035156 228.25 156.160156 227.796875 C 155.28125 227.339844 154.445312 226.8125 153.652344 226.214844 C 152.859375 225.617188 152.121094 224.960938 151.4375 224.246094 C 150.757812 223.53125 150.144531 222.769531 149.601562 221.964844 C 149.058594 221.160156 148.597656 220.324219 148.214844 219.457031 C 147.832031 218.589844 147.539062 217.710938 147.328125 216.820312 C 147.121094 215.929688 147.003906 215.039062 146.980469 214.15625 C 146.953125 213.273438 147.019531 212.410156 147.179688 211.566406 C 147.335938 210.722656 147.582031 209.917969 147.917969 209.152344 C 148.253906 208.382812 148.671875 207.667969 149.171875 207.003906 C 149.671875 206.335938 150.246094 205.738281 150.890625 205.203125 C 151.539062 204.667969 152.242188 204.207031 153.007812 203.824219 C 153.773438 203.4375 154.585938 203.132812 155.445312 202.914062 C 156.300781 202.695312 157.1875 202.558594 158.101562 202.511719 C 159.019531 202.464844 159.945312 202.503906 160.882812 202.632812 C 161.820312 202.757812 162.753906 202.972656 163.679688 203.269531 C 164.605469 203.566406 165.503906 203.945312 166.382812 204.398438 C 167.257812 204.855469 168.09375 205.382812 168.886719 205.980469 Z M 168.886719 205.980469 " fill-opacity="0.2" fill-rule="nonzero"/><path fill="#ffffff" d="M 173.367188 225.195312 C 173.082031 225.574219 172.773438 225.933594 172.445312 226.261719 C 167.8125 229.21875 160.976562 228.753906 155.554688 224.675781 C 148.875 219.652344 146.867188 211.050781 151.078125 205.464844 C 151.363281 205.082031 151.671875 204.726562 151.996094 204.394531 C 156.628906 201.4375 163.464844 201.902344 168.890625 205.980469 C 175.570312 211.003906 177.574219 219.605469 173.367188 225.195312 Z M 173.367188 225.195312 " fill-opacity="0.5" fill-rule="nonzero"/><path fill="#0cbc8b" d="M 146.390625 184.4375 C 146.914062 185.113281 147.355469 185.84375 147.714844 186.625 C 148.074219 187.410156 148.34375 188.230469 148.527344 189.085938 C 148.710938 189.945312 148.800781 190.824219 148.796875 191.722656 C 148.792969 192.625 148.699219 193.527344 148.515625 194.4375 C 148.328125 195.34375 148.050781 196.238281 147.6875 197.121094 C 147.324219 198 146.878906 198.851562 146.351562 199.671875 C 145.824219 200.492188 145.226562 201.265625 144.558594 201.992188 C 143.886719 202.71875 143.160156 203.386719 142.371094 203.996094 C 141.585938 204.601562 140.753906 205.136719 139.882812 205.597656 C 139.007812 206.0625 138.105469 206.445312 137.179688 206.746094 C 136.253906 207.046875 135.316406 207.261719 134.371094 207.390625 C 133.425781 207.519531 132.492188 207.558594 131.566406 207.511719 C 130.640625 207.460938 129.738281 207.324219 128.867188 207.097656 C 127.996094 206.871094 127.167969 206.5625 126.382812 206.167969 C 125.597656 205.773438 124.871094 205.304688 124.207031 204.761719 C 123.539062 204.214844 122.945312 203.601562 122.421875 202.925781 C 121.898438 202.25 121.457031 201.519531 121.097656 200.734375 C 120.738281 199.953125 120.46875 199.132812 120.285156 198.273438 C 120.105469 197.417969 120.011719 196.539062 120.015625 195.636719 C 120.019531 194.738281 120.113281 193.832031 120.300781 192.925781 C 120.484375 192.019531 120.761719 191.125 121.125 190.242188 C 121.488281 189.363281 121.933594 188.511719 122.460938 187.691406 C 122.988281 186.871094 123.585938 186.097656 124.253906 185.371094 C 124.925781 184.644531 125.652344 183.976562 126.441406 183.367188 C 127.226562 182.761719 128.058594 182.226562 128.929688 181.761719 C 129.804688 181.300781 130.707031 180.917969 131.632812 180.617188 C 132.558594 180.3125 133.496094 180.097656 134.441406 179.972656 C 135.386719 179.84375 136.320312 179.804688 137.246094 179.851562 C 138.175781 179.902344 139.074219 180.039062 139.945312 180.265625 C 140.816406 180.492188 141.644531 180.800781 142.429688 181.195312 C 143.214844 181.585938 143.941406 182.058594 144.605469 182.601562 C 145.273438 183.148438 145.867188 183.761719 146.390625 184.4375 Z M 146.390625 184.4375 " fill-opacity="1" fill-rule="nonzero"/><path fill="#ffffff" d="M 140.277344 202.527344 C 135.152344 206.484375 128.636719 207.089844 123.914062 204.511719 C 123.375 204.039062 122.875 203.507812 122.421875 202.925781 C 118.023438 197.230469 119.820312 188.472656 126.441406 183.367188 C 131.566406 179.414062 138.082031 178.808594 142.800781 181.382812 C 143.339844 181.855469 143.839844 182.386719 144.292969 182.972656 C 148.695312 188.667969 146.894531 197.425781 140.277344 202.527344 Z M 140.277344 202.527344 " fill-opacity="0.2" fill-rule="nonzero"/></svg>