<svg xmlns="http://www.w3.org/2000/svg" xmlns:xlink="http://www.w3.org/1999/xlink" width="584" zoomAndPan="magnify" viewBox="0 0 438 245.999995" height="328" preserveAspectRatio="xMidYMid meet" version="1.0"><defs><clipPath id="f2dd89db4c"><path d="M 27.265625 0 L 410.515625 0 L 410.515625 246 L 27.265625 246 Z M 27.265625 0 " clip-rule="nonzero"/></clipPath><clipPath id="d6c2ac2d39"><path d="M 27.265625 0 L 410.515625 0 L 410.515625 246 L 27.265625 246 Z M 27.265625 0 " clip-rule="nonzero"/></clipPath></defs><g clip-path="url(#f2dd89db4c)"><path fill="#ffffff" d="M 104.324219 170.710938 C 103.175781 170.765625 102.027344 170.796875 100.878906 170.796875 C 99.769531 170.796875 98.664062 170.765625 97.5625 170.714844 C 97.269531 170.703125 96.980469 170.6875 96.6875 170.671875 C 95.65625 170.613281 94.628906 170.539062 93.601562 170.4375 C 93.28125 170.402344 92.964844 170.363281 92.644531 170.328125 C 91.917969 170.246094 91.191406 170.152344 90.464844 170.050781 C 90.035156 169.988281 89.605469 169.925781 89.175781 169.859375 C 88.289062 169.714844 87.402344 169.558594 86.519531 169.382812 C 86.042969 169.289062 85.566406 169.179688 85.089844 169.074219 C 84.546875 168.957031 84.003906 168.832031 83.464844 168.699219 C 82.988281 168.585938 82.511719 168.46875 82.035156 168.34375 C 81.179688 168.117188 80.324219 167.875 79.476562 167.617188 C 79.058594 167.488281 78.644531 167.351562 78.230469 167.21875 C 77.582031 167.007812 76.933594 166.789062 76.292969 166.5625 C 75.96875 166.445312 75.640625 166.335938 75.316406 166.214844 C 74.371094 165.863281 73.429688 165.492188 72.496094 165.101562 C 72.289062 165.015625 72.085938 164.921875 71.878906 164.835938 C 70.945312 164.4375 70.023438 164.019531 69.109375 163.582031 C 69.054688 163.554688 69.003906 163.53125 68.949219 163.507812 C 67.378906 162.75 65.835938 161.941406 64.320312 161.074219 C 64.285156 161.054688 64.269531 161.015625 64.242188 160.992188 C 42.164062 148.265625 27.265625 124.441406 27.265625 97.1875 C 27.265625 56.597656 60.289062 23.574219 100.878906 23.574219 C 101.429688 23.574219 101.972656 23.601562 102.519531 23.613281 C 101.847656 18.824219 101.203125 10.261719 104.300781 6.058594 C 106.511719 3.058594 110.191406 1.316406 115.234375 0.875 C 124.6875 0.0507812 136.785156 4.167969 140.011719 7.242188 C 141.734375 8.878906 142.679688 11.167969 142.679688 13.6875 C 142.679688 16.363281 141.605469 19.046875 139.878906 20.691406 C 139.484375 21.066406 138.980469 21.363281 138.40625 21.601562 C 138.207031 22.667969 137.996094 23.699219 137.796875 24.667969 C 137.347656 26.847656 136.960938 28.734375 136.886719 30.195312 C 136.84375 31.054688 136.929688 32.050781 137.050781 33.113281 C 159.378906 45.769531 174.488281 69.738281 174.488281 97.1875 C 174.488281 110.898438 170.710938 123.734375 164.15625 134.738281 C 164.148438 134.757812 164.152344 134.78125 164.140625 134.800781 C 164.0625 134.929688 163.980469 135.050781 163.902344 135.179688 C 163.777344 135.390625 163.640625 135.59375 163.511719 135.804688 C 163.019531 136.601562 162.515625 137.394531 161.992188 138.171875 C 161.894531 138.320312 161.789062 138.46875 161.6875 138.617188 C 161.113281 139.457031 160.527344 140.285156 159.921875 141.097656 C 159.855469 141.183594 159.789062 141.273438 159.722656 141.359375 C 159.070312 142.230469 158.394531 143.089844 157.703125 143.929688 C 157.671875 143.96875 157.640625 144.007812 157.609375 144.042969 C 156.875 144.929688 156.121094 145.800781 155.351562 146.652344 C 155.347656 146.65625 155.34375 146.660156 155.339844 146.664062 C 152.820312 149.433594 150.097656 152.03125 147.15625 154.414062 C 144.609375 156.476562 141.929688 158.355469 139.144531 160.046875 C 138.902344 160.195312 138.652344 160.335938 138.410156 160.480469 C 137.738281 160.875 137.066406 161.269531 136.382812 161.644531 C 135.871094 161.925781 135.355469 162.195312 134.839844 162.464844 C 134.429688 162.679688 134.019531 162.890625 133.605469 163.097656 C 132.9375 163.429688 132.265625 163.75 131.589844 164.0625 C 131.34375 164.175781 131.09375 164.289062 130.847656 164.398438 C 130.042969 164.757812 129.234375 165.105469 128.417969 165.433594 C 128.347656 165.464844 128.277344 165.492188 128.203125 165.519531 C 123.597656 167.367188 118.761719 168.761719 113.753906 169.648438 C 113.546875 169.6875 113.34375 169.726562 113.140625 169.761719 C 112.371094 169.890625 111.597656 170.003906 110.824219 170.109375 C 110.414062 170.167969 110.007812 170.21875 109.597656 170.265625 C 108.949219 170.34375 108.300781 170.417969 107.648438 170.476562 C 107.035156 170.535156 106.421875 170.574219 105.804688 170.617188 C 105.3125 170.648438 104.816406 170.6875 104.324219 170.710938 Z M 410.734375 242.152344 C 410.734375 244.25 409.035156 245.949219 406.9375 245.949219 L 120.675781 245.949219 C 118.578125 245.949219 116.878906 244.25 116.878906 242.152344 C 116.878906 240.054688 118.578125 238.351562 120.675781 238.351562 L 201.46875 238.351562 C 201.109375 238.230469 200.789062 238.007812 200.5625 237.691406 C 200.214844 237.203125 200.125 236.578125 200.320312 236.011719 L 205.550781 220.878906 L 183.953125 220.878906 C 182.679688 220.878906 181.523438 220.082031 181.070312 218.890625 L 158.636719 159.902344 C 158.277344 158.957031 158.40625 157.890625 158.980469 157.054688 C 159.558594 156.21875 160.507812 155.722656 161.519531 155.722656 L 259.242188 155.722656 C 260.398438 155.722656 261.449219 156.445312 261.855469 157.523438 L 280.328125 206.097656 C 281.515625 201.28125 288.738281 172.855469 296.152344 161.984375 C 296.152344 161.984375 296.152344 161.980469 296.152344 161.980469 C 296.375 161.65625 296.574219 161.375 296.765625 161.117188 C 296.980469 160.824219 297.179688 160.566406 297.371094 160.339844 C 297.679688 159.972656 298.007812 159.609375 298.347656 159.25 C 298.410156 159.183594 298.476562 159.113281 298.542969 159.046875 C 298.863281 158.710938 299.191406 158.382812 299.535156 158.054688 C 299.550781 158.042969 299.5625 158.03125 299.574219 158.019531 C 299.972656 157.640625 300.390625 157.269531 300.820312 156.902344 C 304.105469 154.105469 307.859375 152.011719 311.273438 150.496094 C 310.878906 150.023438 310.542969 149.527344 310.328125 148.984375 C 309.414062 146.707031 309.046875 144.476562 309.050781 142.269531 C 307.867188 141.769531 307.039062 140.816406 306.914062 139.691406 C 306.320312 139.085938 304.386719 136.8125 304.925781 133.53125 C 305.480469 130.113281 308.554688 128.546875 309.265625 128.226562 C 308.46875 126.816406 308.007812 125.191406 308.007812 123.460938 C 308.007812 119.746094 310.101562 116.515625 313.171875 114.878906 C 313.070312 114.367188 312.960938 113.835938 312.847656 113.285156 C 312.441406 111.308594 311.980469 109.066406 311.6875 106.757812 C 311.511719 105.363281 311.148438 100.574219 313.96875 97.644531 C 314.289062 97.3125 314.648438 97.003906 315.015625 96.703125 C 316.921875 92.6875 319.855469 89.914062 327.835938 89.414062 C 330.136719 89.273438 332.730469 89.324219 335.257812 89.804688 C 335.992188 89.820312 345.691406 90.214844 350.578125 99.148438 C 352.34375 102.371094 352.96875 105.386719 353.632812 108.582031 C 354.296875 111.773438 354.996094 115.078125 356.828125 119.164062 C 356.949219 119.402344 357.058594 119.648438 357.160156 119.898438 C 357.164062 119.910156 357.167969 119.921875 357.175781 119.933594 C 358.480469 122.6875 360.246094 124.75 362.113281 126.933594 C 364.488281 129.707031 366.941406 132.578125 368.5625 137.066406 C 369.519531 139.71875 370.6875 144.800781 367.753906 149.074219 C 366.613281 150.738281 364.96875 152.097656 362.847656 153.15625 C 364.824219 154.226562 366.703125 155.414062 368.367188 156.714844 C 368.40625 156.746094 368.445312 156.777344 368.484375 156.808594 C 368.835938 157.085938 369.175781 157.371094 369.507812 157.660156 C 369.542969 157.691406 369.582031 157.722656 369.621094 157.753906 C 369.960938 158.058594 370.285156 158.363281 370.601562 158.675781 C 370.609375 158.6875 370.625 158.699219 370.632812 158.710938 C 370.953125 159.03125 371.257812 159.355469 371.542969 159.6875 C 371.613281 159.765625 371.683594 159.847656 371.75 159.929688 C 372.082031 160.328125 372.394531 160.730469 372.664062 161.128906 C 372.671875 161.140625 372.679688 161.148438 372.6875 161.160156 C 372.722656 161.210938 372.757812 161.273438 372.792969 161.324219 C 372.933594 161.539062 373.074219 161.753906 373.210938 161.984375 C 373.214844 161.992188 373.222656 162 373.226562 162.011719 C 373.230469 162.011719 373.230469 162.015625 373.230469 162.015625 C 377.589844 169.253906 381.296875 184.71875 383.398438 198.511719 C 383.402344 198.546875 383.410156 198.582031 383.414062 198.613281 C 383.414062 198.613281 383.414062 198.613281 383.414062 198.617188 C 383.75 200.824219 384.046875 202.992188 384.296875 205.070312 C 384.371094 205.644531 385.929688 218.328125 384.285156 225.601562 C 383.929688 227.1875 383.0625 228.4375 381.882812 229.46875 C 381.859375 229.492188 381.855469 229.527344 381.828125 229.550781 C 381.636719 229.71875 381.429688 229.871094 381.21875 230.023438 C 381.136719 230.085938 381.054688 230.144531 380.972656 230.203125 C 380.769531 230.34375 380.558594 230.472656 380.339844 230.601562 C 380.21875 230.671875 380.09375 230.742188 379.96875 230.808594 C 379.761719 230.925781 379.550781 231.039062 379.332031 231.144531 C 379.15625 231.226562 378.972656 231.304688 378.789062 231.382812 C 378.472656 231.519531 378.148438 231.652344 377.8125 231.773438 C 377.578125 231.859375 377.34375 231.945312 377.101562 232.023438 C 376.921875 232.078125 376.738281 232.132812 376.558594 232.1875 C 376.285156 232.269531 376.003906 232.34375 375.722656 232.417969 C 375.570312 232.457031 375.417969 232.5 375.265625 232.535156 C 374.339844 232.757812 373.382812 232.941406 372.40625 233.089844 C 372.335938 233.101562 372.265625 233.109375 372.195312 233.121094 C 371.738281 233.1875 371.28125 233.25 370.820312 233.304688 C 370.757812 233.308594 370.695312 233.316406 370.628906 233.324219 C 369.566406 233.449219 368.492188 233.539062 367.429688 233.605469 C 367.390625 233.609375 367.351562 233.609375 367.3125 233.613281 C 366.832031 233.640625 366.355469 233.667969 365.878906 233.6875 C 365.785156 233.691406 365.691406 233.695312 365.597656 233.699219 C 365.085938 233.722656 364.574219 233.742188 364.074219 233.753906 L 364.628906 237.789062 C 364.652344 237.957031 364.605469 238.125 364.5 238.253906 C 364.46875 238.296875 364.425781 238.324219 364.382812 238.355469 L 406.9375 238.355469 C 409.035156 238.351562 410.734375 240.054688 410.734375 242.152344 Z M 255.199219 220.878906 L 231.929688 220.878906 L 227.648438 233.253906 C 227.597656 233.40625 227.621094 233.5625 227.714844 233.691406 C 227.730469 233.71875 227.757812 233.730469 227.78125 233.753906 C 227.832031 233.738281 227.882812 233.71875 227.941406 233.71875 L 269.746094 233.71875 C 269.140625 233.519531 268.59375 233.089844 268.175781 232.441406 C 268.058594 232.257812 267.949219 232.054688 267.847656 231.839844 C 267.332031 232.488281 266.652344 232.910156 265.902344 233.003906 C 265.800781 233.015625 265.699219 233.023438 265.597656 233.023438 C 264.695312 233.023438 263.863281 232.519531 263.277344 231.613281 C 262.292969 230.085938 261.976562 227.492188 262.285156 223.441406 C 262.304688 223.160156 262.335938 222.894531 262.363281 222.628906 C 262.003906 223.148438 261.609375 223.828125 261.242188 224.722656 C 261.011719 225.296875 260.84375 225.882812 260.683594 226.445312 C 260.371094 227.550781 260.074219 228.597656 259.320312 229.488281 C 258.800781 230.097656 257.636719 230.617188 256.492188 230.375 C 255.558594 230.179688 254.882812 229.519531 254.582031 228.511719 C 254.027344 226.640625 253.972656 223.785156 255.199219 220.878906 Z M 309.902344 136.265625 C 310.367188 134.535156 310.980469 132.800781 311.691406 131.0625 C 311.03125 130.535156 310.441406 129.921875 309.9375 129.242188 C 309.914062 129.257812 309.894531 129.277344 309.867188 129.289062 C 309.835938 129.300781 306.628906 130.625 306.125 133.726562 C 305.796875 135.714844 306.570312 137.253906 307.199219 138.132812 C 307.683594 137.210938 308.683594 136.519531 309.902344 136.265625 Z M 191.359375 78.722656 C 189.046875 78.722656 187.167969 80.601562 187.167969 82.914062 L 187.167969 121.632812 C 187.167969 123.945312 189.050781 125.828125 191.359375 125.828125 L 262.714844 125.828125 L 283.222656 146.335938 C 283.339844 146.453125 283.496094 146.511719 283.652344 146.511719 C 283.730469 146.511719 283.8125 146.496094 283.886719 146.46875 C 284.113281 146.375 284.261719 146.152344 284.261719 145.90625 L 284.261719 125.828125 L 294.265625 125.828125 C 296.578125 125.828125 298.457031 123.945312 298.457031 121.632812 L 298.457031 82.914062 C 298.457031 80.601562 296.578125 78.722656 294.265625 78.722656 Z M 188.222656 48.71875 L 198.226562 48.71875 L 198.226562 68.796875 C 198.226562 69.042969 198.375 69.265625 198.601562 69.359375 C 198.679688 69.390625 198.757812 69.402344 198.835938 69.402344 C 198.996094 69.402344 199.148438 69.34375 199.265625 69.226562 L 219.777344 48.71875 L 291.128906 48.71875 C 293.441406 48.71875 295.320312 46.835938 295.320312 44.523438 L 295.320312 5.804688 C 295.320312 3.492188 293.441406 1.609375 291.128906 1.609375 L 188.222656 1.609375 C 185.914062 1.609375 184.03125 3.492188 184.03125 5.804688 L 184.03125 44.523438 C 184.03125 46.835938 185.914062 48.71875 188.222656 48.71875 Z M 316.347656 26.628906 C 316.25 26.304688 316.433594 25.96875 316.753906 25.871094 C 333.195312 20.957031 348.605469 21.75 357.976562 27.996094 C 363.773438 31.855469 367.109375 37.601562 367.894531 45.074219 C 368.1875 47.875 368.101562 50.859375 367.625 53.824219 C 372.738281 54.0625 379.179688 55.675781 382.65625 61.671875 C 392.050781 77.875 379.238281 96.867188 379.105469 97.058594 C 378.988281 97.230469 378.800781 97.320312 378.605469 97.320312 C 378.488281 97.320312 378.367188 97.289062 378.261719 97.214844 C 377.984375 97.027344 377.914062 96.648438 378.105469 96.371094 C 378.230469 96.1875 390.609375 77.816406 381.605469 62.28125 C 378.367188 56.703125 372.25 55.230469 367.40625 55.03125 C 365.820312 63.082031 361.324219 70.816406 353.6875 74.273438 C 349.25 76.285156 345.101562 75.859375 342.589844 73.136719 C 340.527344 70.90625 339.972656 68.359375 340.988281 65.773438 C 343.261719 59.996094 353.457031 54.664062 363.714844 53.886719 C 364.539062 53.824219 365.46875 53.785156 366.46875 53.792969 C 366.902344 51.105469 367.003906 48.222656 366.683594 45.199219 C 365.9375 38.105469 362.785156 32.660156 357.304688 29.007812 C 348.226562 22.960938 333.199219 22.222656 317.105469 27.035156 C 316.777344 27.132812 316.441406 26.949219 316.347656 26.628906 Z M 366.246094 55.007812 C 366.230469 55.007812 366.21875 55.007812 366.203125 55.007812 C 365.335938 55.007812 364.527344 55.046875 363.808594 55.101562 C 353.964844 55.84375 344.238281 60.832031 342.121094 66.21875 C 341.273438 68.371094 341.730469 70.417969 343.480469 72.3125 C 345.621094 74.628906 349.246094 74.949219 353.183594 73.167969 C 359 70.535156 364.445312 63.890625 366.246094 55.007812 Z M 117.996094 215.898438 C 118.253906 215.898438 118.484375 215.734375 118.570312 215.492188 L 127.296875 190.28125 C 127.375 190.0625 127.316406 189.816406 127.152344 189.652344 C 126.988281 189.488281 126.746094 189.433594 126.523438 189.507812 L 101.316406 198.238281 C 101.207031 198.273438 101.121094 198.347656 101.050781 198.433594 C 101.035156 198.453125 101.023438 198.46875 101.011719 198.492188 C 100.953125 198.582031 100.914062 198.683594 100.910156 198.796875 C 100.910156 198.800781 100.90625 198.804688 100.90625 198.808594 C 100.90625 198.820312 100.917969 198.832031 100.917969 198.84375 C 100.921875 198.898438 100.921875 198.953125 100.941406 199.011719 C 100.953125 199.054688 100.984375 199.085938 101.003906 199.121094 C 101.015625 199.140625 101.027344 199.160156 101.039062 199.175781 C 101.105469 199.265625 101.191406 199.328125 101.292969 199.367188 C 101.300781 199.371094 101.304688 199.382812 101.3125 199.382812 L 113.457031 203.671875 L 117.417969 215.484375 C 117.5 215.734375 117.679688 215.878906 117.996094 215.898438 Z M 117.996094 215.898438 " fill-opacity="1" fill-rule="nonzero"/></g><path fill="#1673ff" d="M 147.925781 63.933594 C 147.683594 64.15625 147.496094 64.445312 147.40625 64.789062 L 145.117188 73.480469 C 140.8125 73.882812 136.96875 80.097656 136.269531 81.292969 L 105.296875 94.019531 L 95.425781 73.300781 C 95.28125 73 94.921875 72.867188 94.617188 73.015625 C 94.3125 73.15625 94.183594 73.519531 94.328125 73.824219 L 104.433594 95.03125 L 77.679688 106.023438 C 77.679688 106.015625 77.679688 106.007812 77.675781 106 L 69.164062 87.277344 L 69.101562 87.136719 C 68.960938 86.832031 68.605469 86.691406 68.296875 86.835938 C 67.988281 86.972656 67.855469 87.335938 67.992188 87.640625 L 68.898438 89.632812 L 76.554688 106.46875 C 76.890625 107.53125 82.632812 125.136719 94.839844 125.136719 C 108.894531 125.136719 136.089844 102.574219 140.269531 99.03125 L 146.9375 100.785156 L 146.9375 115.832031 L 146.171875 153.644531 L 146.167969 153.925781 C 146.164062 154.164062 146.296875 154.378906 146.507812 154.484375 C 146.59375 154.527344 146.683594 154.546875 146.777344 154.546875 C 146.910156 154.546875 147.046875 154.5 147.160156 154.410156 C 144.609375 156.476562 141.929688 158.351562 139.144531 160.046875 C 138.902344 160.195312 138.652344 160.332031 138.410156 160.476562 C 137.738281 160.875 137.066406 161.269531 136.382812 161.644531 C 135.875 161.925781 135.359375 162.195312 134.839844 162.464844 C 134.429688 162.675781 134.023438 162.890625 133.605469 163.097656 C 132.941406 163.425781 132.265625 163.75 131.589844 164.058594 C 131.34375 164.171875 131.097656 164.285156 130.847656 164.398438 C 130.042969 164.753906 129.234375 165.105469 128.421875 165.433594 C 128.347656 165.460938 128.277344 165.488281 128.203125 165.519531 C 123.546875 167.382812 118.703125 168.765625 113.753906 169.648438 C 113.550781 169.683594 113.347656 169.722656 113.140625 169.757812 C 112.371094 169.890625 111.597656 170.003906 110.824219 170.109375 C 110.417969 170.164062 110.007812 170.214844 109.597656 170.265625 C 108.949219 170.34375 108.300781 170.414062 107.648438 170.476562 C 107.035156 170.53125 106.421875 170.574219 105.808594 170.617188 C 105.3125 170.648438 104.820312 170.6875 104.324219 170.710938 C 103.175781 170.765625 102.027344 170.800781 100.878906 170.800781 C 99.769531 170.800781 98.664062 170.765625 97.5625 170.714844 C 97.269531 170.703125 96.980469 170.6875 96.691406 170.671875 C 95.65625 170.613281 94.628906 170.539062 93.601562 170.4375 C 93.28125 170.40625 92.964844 170.363281 92.644531 170.328125 C 91.917969 170.246094 91.191406 170.152344 90.46875 170.050781 C 90.039062 169.988281 89.605469 169.929688 89.179688 169.859375 C 88.289062 169.714844 87.402344 169.558594 86.519531 169.382812 C 86.042969 169.289062 85.566406 169.179688 85.089844 169.078125 C 84.546875 168.957031 84.003906 168.832031 83.464844 168.699219 C 82.988281 168.585938 82.511719 168.472656 82.039062 168.34375 C 81.179688 168.117188 80.324219 167.875 79.476562 167.617188 C 79.058594 167.488281 78.644531 167.351562 78.230469 167.21875 C 77.582031 167.007812 76.933594 166.789062 76.292969 166.5625 C 75.96875 166.445312 75.640625 166.335938 75.320312 166.214844 C 74.371094 165.867188 73.429688 165.492188 72.496094 165.101562 C 72.289062 165.015625 72.085938 164.925781 71.878906 164.835938 C 70.949219 164.4375 70.023438 164.019531 69.109375 163.582031 C 69.054688 163.554688 69.003906 163.53125 68.949219 163.507812 C 67.382812 162.75 65.835938 161.941406 64.320312 161.074219 C 64.285156 161.054688 64.269531 161.015625 64.242188 160.992188 C 64.101562 160.871094 64.007812 160.703125 64.015625 160.515625 C 64.03125 160.183594 64.050781 159.832031 64.066406 159.488281 C 64.527344 150.050781 65.167969 136.757812 65.820312 122.484375 C 65.933594 120.019531 66.035156 117.515625 66.140625 114.996094 C 66.984375 94.296875 67.859375 72.886719 74.996094 65.8125 C 85.21875 55.675781 103.246094 52.566406 106.601562 52.066406 L 106.601562 52.59375 C 106.605469 52.929688 106.875 53.199219 107.210938 53.199219 C 107.546875 53.199219 107.820312 52.925781 107.820312 52.589844 L 107.816406 52.371094 C 108.53125 53.203125 112.488281 57.453125 118.773438 57.613281 C 124.757812 57.773438 127.609375 55.164062 128.222656 54.523438 L 128.222656 54.753906 C 128.222656 55.089844 128.492188 55.363281 128.828125 55.363281 C 129.164062 55.363281 129.4375 55.089844 129.4375 54.753906 L 129.4375 54.324219 C 131.757812 55.140625 142.980469 59.207031 149.542969 63.515625 C 148.949219 63.375 148.351562 63.546875 147.925781 63.933594 Z M 161.613281 95.496094 C 161.023438 96 160.265625 96.464844 159.324219 96.890625 L 158.011719 101.863281 C 157.894531 102.324219 157.601562 102.707031 157.1875 102.949219 C 156.914062 103.109375 156.605469 103.191406 156.296875 103.191406 C 156.144531 103.191406 155.992188 103.171875 155.839844 103.132812 L 148.152344 101.105469 L 148.152344 115.820312 L 163.011719 115.246094 L 163.011719 115.222656 C 163.011719 114.886719 163.28125 114.613281 163.617188 114.613281 C 163.953125 114.613281 164.226562 114.886719 164.226562 115.222656 C 164.226562 114.457031 164.191406 104.949219 162.714844 94.214844 C 162.457031 94.671875 162.085938 95.097656 161.613281 95.496094 Z M 315.179688 228.480469 L 315.246094 228.480469 C 315.234375 228.46875 315.226562 228.457031 315.214844 228.441406 C 315.203125 228.457031 315.191406 228.46875 315.179688 228.480469 Z M 358.085938 199.3125 L 302.097656 199.3125 L 301.996094 210.292969 L 358.339844 210.292969 Z M 297.488281 228.480469 L 299.523438 228.480469 C 299.527344 228.09375 299.570312 227.679688 299.65625 227.238281 C 299.460938 227.351562 299.253906 227.464844 299.070312 227.578125 C 298.507812 227.90625 297.988281 228.214844 297.488281 228.480469 Z M 284.914062 218.152344 C 285.132812 218.726562 285.066406 219.359375 284.753906 219.882812 C 286.925781 223.039062 288.539062 226.738281 288.214844 228.480469 L 293.144531 228.480469 C 293.121094 228.457031 293.089844 228.445312 293.070312 228.417969 C 292.554688 227.808594 292.152344 226.679688 293.136719 224.765625 C 294.460938 222.195312 296.9375 219.527344 299.960938 217.503906 L 284.667969 217.503906 Z M 357.664062 181.121094 L 299.996094 181.121094 C 298.765625 183.550781 297.757812 186.390625 297.773438 189.195312 C 297.777344 190.285156 297.886719 191.242188 298.054688 192.101562 L 357.917969 192.101562 Z M 280.085938 226.136719 C 279.929688 226.800781 279.722656 227.628906 279.476562 228.480469 L 281.515625 228.480469 C 281.171875 227.976562 280.839844 227.414062 280.515625 226.863281 C 280.367188 226.613281 280.226562 226.367188 280.085938 226.136719 Z M 364.246094 235.003906 C 364.269531 235.175781 364.21875 235.351562 364.105469 235.484375 C 363.988281 235.617188 363.820312 235.691406 363.644531 235.691406 L 323.171875 235.691406 L 323.171875 237.769531 C 323.171875 238.0625 322.964844 238.292969 322.691406 238.355469 L 364.382812 238.355469 C 364.425781 238.324219 364.46875 238.296875 364.503906 238.253906 C 364.605469 238.125 364.652344 237.957031 364.628906 237.792969 L 364.078125 233.753906 Z M 368.363281 156.714844 C 368.40625 156.746094 368.445312 156.777344 368.484375 156.808594 C 368.445312 156.777344 368.40625 156.746094 368.363281 156.714844 Z M 302.5 155.71875 L 366.828125 155.71875 C 366.957031 155.71875 367.078125 155.757812 367.179688 155.832031 C 367.59375 156.125 367.984375 156.417969 368.363281 156.714844 C 366.703125 155.414062 364.824219 154.222656 362.847656 153.15625 C 362.402344 152.914062 361.953125 152.679688 361.496094 152.449219 C 354.167969 148.738281 346.105469 146.59375 344.0625 146.082031 C 343.820312 146.019531 343.65625 145.980469 343.59375 145.964844 C 343.453125 145.933594 343.308594 145.949219 343.179688 146.015625 C 343.171875 146.023438 343.050781 146.082031 342.847656 146.183594 C 341.339844 146.914062 334.917969 149.878906 329.898438 149.652344 C 325.183594 149.488281 322.984375 147.847656 322.425781 147.359375 C 322.328125 147.273438 322.273438 147.21875 322.273438 147.214844 C 322.128906 147.050781 321.910156 146.976562 321.695312 147.023438 C 321.640625 147.035156 321.46875 147.070312 321.207031 147.128906 C 319.960938 147.414062 316.535156 148.28125 312.441406 149.992188 C 312.058594 150.148438 311.667969 150.320312 311.273438 150.492188 C 307.859375 152.011719 304.105469 154.105469 300.820312 156.902344 C 301.246094 156.546875 301.679688 156.191406 302.132812 155.847656 C 302.238281 155.765625 302.367188 155.71875 302.5 155.71875 Z M 299.574219 158.019531 C 299.972656 157.640625 300.390625 157.269531 300.820312 156.902344 C 300.398438 157.265625 299.980469 157.632812 299.574219 158.019531 Z M 370.632812 158.710938 C 370.957031 159.03125 371.261719 159.359375 371.542969 159.683594 C 371.257812 159.355469 370.953125 159.027344 370.632812 158.710938 Z M 369.507812 157.660156 C 369.179688 157.375 368.84375 157.089844 368.484375 156.808594 C 368.835938 157.085938 369.175781 157.371094 369.507812 157.660156 Z M 369.617188 157.753906 C 369.964844 158.058594 370.289062 158.367188 370.597656 158.675781 C 370.285156 158.363281 369.960938 158.054688 369.617188 157.753906 Z M 370.632812 158.710938 C 370.621094 158.699219 370.609375 158.6875 370.601562 158.675781 C 370.609375 158.6875 370.621094 158.699219 370.632812 158.710938 Z M 369.617188 157.753906 C 369.582031 157.722656 369.542969 157.691406 369.507812 157.660156 C 369.542969 157.691406 369.582031 157.722656 369.617188 157.753906 Z M 381.832031 229.550781 C 381.855469 229.527344 381.863281 229.492188 381.882812 229.464844 C 381.667969 229.65625 381.457031 229.851562 381.21875 230.023438 C 381.429688 229.871094 381.636719 229.714844 381.832031 229.550781 Z M 373.238281 162.621094 C 373.128906 162.8125 372.925781 162.929688 372.707031 162.929688 L 296.65625 162.929688 C 296.429688 162.929688 296.222656 162.804688 296.117188 162.605469 C 296.011719 162.410156 296.027344 162.167969 296.152344 161.984375 C 288.738281 172.855469 281.515625 201.28125 280.328125 206.097656 L 280.878906 207.546875 L 281.925781 210.292969 L 300.78125 210.292969 L 300.882812 199.3125 L 282.898438 199.3125 C 282.707031 199.3125 282.53125 199.222656 282.414062 199.070312 C 282.300781 198.921875 282.261719 198.726562 282.3125 198.542969 C 282.8125 196.726562 283.382812 194.703125 284.019531 192.539062 C 284.09375 192.28125 284.332031 192.101562 284.601562 192.101562 L 296.816406 192.101562 C 296.660156 191.230469 296.5625 190.273438 296.554688 189.203125 C 296.539062 186.375 297.453125 183.5625 298.621094 181.121094 L 288.484375 181.121094 C 288.285156 181.121094 288.101562 181.027344 287.988281 180.867188 C 287.875 180.707031 287.84375 180.5 287.910156 180.316406 C 288.652344 178.175781 289.398438 176.152344 290.125 174.296875 C 290.214844 174.0625 290.4375 173.910156 290.691406 173.910156 L 303.335938 173.910156 C 303.4375 173.796875 303.511719 173.710938 303.535156 173.6875 C 303.757812 173.4375 304.144531 173.417969 304.394531 173.640625 C 304.476562 173.714844 304.523438 173.8125 304.554688 173.910156 L 377.59375 173.910156 C 377.863281 173.910156 378.097656 174.089844 378.175781 174.347656 C 378.730469 176.21875 379.28125 178.246094 379.808594 180.367188 C 379.855469 180.550781 379.8125 180.742188 379.695312 180.886719 C 379.582031 181.035156 379.40625 181.121094 379.21875 181.121094 L 358.878906 181.121094 L 359.132812 192.101562 L 381.8125 192.101562 C 382.109375 192.101562 382.359375 192.3125 382.414062 192.601562 C 382.761719 194.542969 383.09375 196.527344 383.398438 198.511719 C 381.296875 184.71875 377.589844 169.25 373.230469 162.015625 C 373.339844 162.203125 373.34375 162.433594 373.238281 162.621094 Z M 383.398438 198.511719 C 383.40625 198.542969 383.410156 198.578125 383.414062 198.613281 C 383.410156 198.578125 383.40625 198.542969 383.398438 198.511719 Z M 384.296875 205.070312 C 384.050781 202.992188 383.75 200.820312 383.414062 198.613281 C 383.441406 198.789062 383.390625 198.964844 383.277344 199.101562 C 383.160156 199.234375 382.992188 199.3125 382.816406 199.3125 L 359.300781 199.3125 L 359.558594 210.289062 L 384.214844 210.289062 C 384.535156 210.289062 384.800781 210.539062 384.820312 210.859375 C 384.957031 212.996094 385.027344 215.027344 385.03125 216.894531 C 385.03125 217.054688 384.96875 217.210938 384.855469 217.324219 C 384.738281 217.4375 384.585938 217.503906 384.421875 217.503906 L 323.320312 217.503906 C 326.710938 219.433594 329.128906 221.945312 330.183594 224.386719 C 330.933594 226.121094 330.722656 227.511719 330.316406 228.480469 L 381.433594 228.480469 C 381.6875 228.480469 381.914062 228.640625 382.003906 228.878906 C 382.082031 229.085938 382.019531 229.300781 381.882812 229.464844 C 383.0625 228.4375 383.929688 227.183594 384.285156 225.601562 C 385.933594 218.324219 384.371094 205.644531 384.296875 205.070312 Z M 296.765625 161.113281 C 296.5625 161.386719 296.355469 161.683594 296.152344 161.984375 C 296.152344 161.980469 296.152344 161.980469 296.152344 161.980469 C 296.375 161.65625 296.574219 161.375 296.765625 161.113281 Z M 309.050781 142.269531 C 309.429688 142.425781 309.835938 142.542969 310.273438 142.597656 C 310.480469 142.625 310.6875 142.648438 310.902344 142.648438 C 313.117188 142.648438 314.921875 141.191406 314.921875 139.398438 C 314.921875 137.691406 313.273438 136.300781 311.195312 136.175781 C 311.097656 136.167969 311.003906 136.152344 310.902344 136.152344 C 310.554688 136.152344 310.226562 136.195312 309.902344 136.265625 C 308.683594 136.515625 307.683594 137.210938 307.199219 138.132812 C 306.992188 138.523438 306.878906 138.949219 306.878906 139.402344 C 306.878906 139.5 306.902344 139.59375 306.914062 139.691406 C 307.039062 140.816406 307.867188 141.769531 309.050781 142.269531 Z M 283.222656 146.335938 L 262.714844 125.828125 L 191.359375 125.828125 C 189.046875 125.828125 187.167969 123.945312 187.167969 121.632812 L 187.167969 82.914062 C 187.167969 80.601562 189.050781 78.722656 191.359375 78.722656 L 294.265625 78.722656 C 296.578125 78.722656 298.457031 80.601562 298.457031 82.914062 L 298.457031 121.632812 C 298.457031 123.945312 296.578125 125.828125 294.265625 125.828125 L 284.261719 125.828125 L 284.261719 145.90625 C 284.261719 146.152344 284.113281 146.375 283.886719 146.46875 C 283.8125 146.496094 283.730469 146.511719 283.652344 146.511719 C 283.496094 146.515625 283.339844 146.453125 283.222656 146.335938 Z M 260.546875 109.476562 C 263.1875 109.476562 265.335938 107.328125 265.335938 104.691406 C 265.335938 102.050781 263.1875 99.90625 260.546875 99.90625 C 257.910156 99.90625 255.765625 102.050781 255.765625 104.691406 C 255.765625 107.328125 257.910156 109.476562 260.546875 109.476562 Z M 242.8125 99.90625 C 240.175781 99.90625 238.027344 102.050781 238.027344 104.691406 C 238.027344 107.328125 240.175781 109.476562 242.8125 109.476562 C 245.453125 109.476562 247.597656 107.328125 247.597656 104.691406 C 247.597656 102.050781 245.453125 99.90625 242.8125 99.90625 Z M 220.292969 104.691406 C 220.292969 107.328125 222.4375 109.476562 225.074219 109.476562 C 227.714844 109.476562 229.863281 107.328125 229.863281 104.691406 C 229.863281 102.050781 227.714844 99.90625 225.074219 99.90625 C 222.4375 99.90625 220.292969 102.050781 220.292969 104.691406 Z M 220.292969 104.691406 " fill-opacity="1" fill-rule="nonzero"/><path fill="#f58e6d" d="M 145.285156 73.457031 C 145.230469 73.457031 145.171875 73.472656 145.117188 73.480469 L 147.40625 64.785156 C 147.496094 64.445312 147.683594 64.15625 147.925781 63.933594 C 148.351562 63.546875 148.949219 63.371094 149.542969 63.515625 C 149.554688 63.515625 149.566406 63.515625 149.582031 63.519531 L 165.191406 67.632812 C 166.140625 67.882812 166.710938 68.859375 166.457031 69.808594 L 164.945312 75.546875 C 164.875 75.492188 164.796875 75.441406 164.703125 75.425781 C 164.472656 75.378906 164.234375 75.472656 164.097656 75.664062 C 164.089844 75.671875 163.871094 75.960938 163.488281 76.308594 C 162.910156 76.832031 161.953125 77.496094 160.734375 77.53125 C 158.660156 77.59375 148.851562 78.160156 146.300781 78.308594 L 146.003906 74.886719 L 145.925781 74.011719 C 145.898438 73.683594 145.609375 73.445312 145.285156 73.457031 Z M 157.917969 97.453125 C 157.644531 97.554688 157.367188 97.652344 157.070312 97.746094 C 153.3125 98.929688 148.492188 99.09375 144.984375 99.015625 C 142.855469 98.964844 141.210938 98.824219 140.582031 98.765625 C 140.5 98.832031 140.390625 98.925781 140.269531 99.03125 L 146.9375 100.785156 L 148.152344 101.105469 L 155.839844 103.128906 C 155.992188 103.167969 156.144531 103.191406 156.296875 103.191406 C 156.605469 103.191406 156.914062 103.105469 157.1875 102.945312 C 157.601562 102.707031 157.894531 102.320312 158.011719 101.863281 L 159.324219 96.890625 C 158.894531 97.085938 158.425781 97.273438 157.917969 97.453125 Z M 322.566406 233.71875 L 227.941406 233.71875 C 227.882812 233.71875 227.832031 233.738281 227.78125 233.75 C 227.871094 233.835938 227.980469 233.894531 228.105469 233.894531 L 253.238281 233.894531 C 254.035156 233.894531 254.742188 234.308594 255.148438 234.933594 C 255.382812 235.292969 255.523438 235.71875 255.523438 236.179688 C 255.523438 236.53125 255.433594 236.863281 255.289062 237.160156 C 255.019531 237.730469 254.519531 238.164062 253.910156 238.351562 L 322.691406 238.351562 C 322.964844 238.292969 323.171875 238.0625 323.171875 237.769531 L 323.171875 234.328125 C 323.171875 233.992188 322.902344 233.71875 322.566406 233.71875 Z M 237.574219 202.078125 L 212.484375 202.078125 C 212.226562 202.078125 211.996094 202.242188 211.910156 202.488281 L 205.972656 219.664062 L 205.554688 220.878906 L 183.953125 220.878906 C 182.679688 220.878906 181.523438 220.082031 181.070312 218.890625 L 158.636719 159.902344 C 158.277344 158.957031 158.40625 157.890625 158.980469 157.054688 C 159.558594 156.21875 160.507812 155.722656 161.519531 155.722656 L 257.105469 155.722656 C 257.359375 155.722656 257.582031 155.875 257.671875 156.113281 L 257.988281 156.9375 L 281.839844 219.664062 L 281.992188 220.054688 C 282.058594 220.242188 282.035156 220.453125 281.921875 220.617188 C 281.808594 220.78125 281.621094 220.878906 281.421875 220.878906 L 231.929688 220.878906 L 232.347656 219.664062 L 238.148438 202.886719 C 238.210938 202.699219 238.183594 202.496094 238.070312 202.335938 C 237.957031 202.171875 237.769531 202.078125 237.574219 202.078125 Z M 203.640625 181.027344 L 229.867188 181.027344 C 230.203125 181.027344 230.472656 180.757812 230.472656 180.421875 C 230.472656 180.085938 230.203125 179.8125 229.867188 179.8125 L 203.640625 179.8125 C 203.304688 179.8125 203.03125 180.085938 203.03125 180.421875 C 203.03125 180.757812 203.304688 181.027344 203.640625 181.027344 Z M 231.527344 185.394531 C 231.863281 185.394531 232.132812 185.121094 232.132812 184.785156 C 232.132812 184.449219 231.863281 184.179688 231.527344 184.179688 L 205.300781 184.179688 C 204.964844 184.179688 204.691406 184.449219 204.691406 184.785156 C 204.691406 185.121094 204.964844 185.394531 205.300781 185.394531 Z M 206.957031 189.757812 L 233.183594 189.757812 C 233.519531 189.757812 233.792969 189.488281 233.792969 189.152344 C 233.792969 188.816406 233.519531 188.542969 233.183594 188.542969 L 206.957031 188.542969 C 206.621094 188.542969 206.351562 188.816406 206.351562 189.152344 C 206.351562 189.488281 206.621094 189.757812 206.957031 189.757812 Z M 235.453125 193.515625 C 235.453125 193.179688 235.179688 192.90625 234.84375 192.90625 L 208.617188 192.90625 C 208.28125 192.90625 208.011719 193.179688 208.011719 193.515625 C 208.011719 193.851562 208.28125 194.125 208.617188 194.125 L 234.84375 194.125 C 235.179688 194.125 235.453125 193.851562 235.453125 193.515625 Z M 184.03125 44.523438 L 184.03125 5.804688 C 184.03125 3.492188 185.914062 1.609375 188.222656 1.609375 L 291.128906 1.609375 C 293.441406 1.609375 295.320312 3.492188 295.320312 5.804688 L 295.320312 44.523438 C 295.320312 46.835938 293.441406 48.71875 291.128906 48.71875 L 219.777344 48.71875 L 199.265625 69.226562 C 199.148438 69.34375 198.996094 69.402344 198.835938 69.402344 C 198.757812 69.402344 198.679688 69.390625 198.601562 69.359375 C 198.375 69.261719 198.226562 69.042969 198.226562 68.796875 L 198.226562 48.71875 L 188.222656 48.71875 C 185.914062 48.71875 184.03125 46.835938 184.03125 44.523438 Z M 197.53125 13.007812 C 197.53125 13.34375 197.804688 13.613281 198.140625 13.613281 L 281.210938 13.613281 C 281.546875 13.613281 281.820312 13.34375 281.820312 13.007812 C 281.820312 12.671875 281.546875 12.398438 281.210938 12.398438 L 198.140625 12.398438 C 197.804688 12.398438 197.53125 12.667969 197.53125 13.007812 Z M 197.53125 25.164062 C 197.53125 25.5 197.804688 25.773438 198.140625 25.773438 L 281.210938 25.773438 C 281.546875 25.773438 281.820312 25.5 281.820312 25.164062 C 281.820312 24.828125 281.546875 24.554688 281.210938 24.554688 L 198.140625 24.554688 C 197.804688 24.554688 197.53125 24.828125 197.53125 25.164062 Z M 197.53125 37.320312 C 197.53125 37.65625 197.804688 37.929688 198.140625 37.929688 L 281.210938 37.929688 C 281.546875 37.929688 281.820312 37.65625 281.820312 37.320312 C 281.820312 36.984375 281.546875 36.714844 281.210938 36.714844 L 198.140625 36.714844 C 197.804688 36.714844 197.53125 36.984375 197.53125 37.320312 Z M 101.292969 199.367188 C 101.300781 199.371094 101.304688 199.382812 101.3125 199.382812 L 113.457031 203.671875 L 113.363281 203.390625 C 113.257812 203.070312 113.429688 202.726562 113.746094 202.621094 C 113.890625 202.570312 114.039062 202.585938 114.167969 202.636719 C 114.226562 202.664062 114.28125 202.699219 114.328125 202.742188 C 114.347656 202.753906 114.367188 202.765625 114.378906 202.78125 C 114.4375 202.84375 114.488281 202.914062 114.515625 203.003906 L 118.003906 213.40625 L 125.738281 191.066406 L 101.714844 199.386719 C 101.570312 199.433594 101.421875 199.421875 101.292969 199.367188 Z M 100.90625 198.808594 C 100.90625 198.820312 100.917969 198.832031 100.917969 198.84375 C 100.917969 198.828125 100.910156 198.8125 100.910156 198.796875 C 100.910156 198.800781 100.90625 198.804688 100.90625 198.808594 Z M 100.90625 198.808594 " fill-opacity="1" fill-rule="nonzero"/><g clip-path="url(#d6c2ac2d39)"><path fill="#313131" d="M 280.878906 207.546875 L 281.925781 210.292969 L 282.386719 211.507812 L 284.207031 216.289062 L 284.667969 217.503906 L 284.914062 218.152344 C 285.132812 218.726562 285.066406 219.359375 284.757812 219.882812 C 286.929688 223.039062 288.539062 226.738281 288.214844 228.480469 C 288.195312 228.582031 288.1875 228.691406 288.15625 228.777344 C 288.023438 229.132812 287.820312 229.433594 287.585938 229.699219 C 287.214844 230.109375 286.746094 230.421875 286.167969 230.578125 C 285.011719 230.886719 283.574219 230.585938 282.675781 229.84375 C 282.625 229.800781 282.582031 229.742188 282.53125 229.699219 C 282.179688 229.371094 281.839844 228.957031 281.515625 228.480469 C 281.171875 227.976562 280.84375 227.414062 280.519531 226.863281 C 280.371094 226.613281 280.226562 226.367188 280.085938 226.136719 C 279.933594 226.800781 279.722656 227.628906 279.476562 228.480469 C 279.359375 228.886719 279.234375 229.296875 279.101562 229.699219 C 278.644531 231.054688 278.097656 232.308594 277.503906 232.871094 C 277.054688 233.296875 276.507812 233.578125 275.9375 233.71875 L 274.355469 233.71875 C 274.28125 233.699219 274.207031 233.6875 274.136719 233.664062 C 273.90625 233.582031 273.703125 233.46875 273.511719 233.339844 C 273.226562 233.148438 272.988281 232.898438 272.792969 232.609375 C 272.695312 232.738281 272.589844 232.859375 272.480469 232.96875 C 272.128906 233.316406 271.726562 233.574219 271.289062 233.71875 L 269.75 233.71875 C 269.144531 233.519531 268.597656 233.089844 268.179688 232.441406 C 268.058594 232.257812 267.953125 232.054688 267.851562 231.839844 C 267.335938 232.488281 266.652344 232.910156 265.90625 233.003906 C 265.804688 233.015625 265.699219 233.019531 265.597656 233.019531 C 264.699219 233.019531 263.867188 232.519531 263.28125 231.609375 C 262.296875 230.085938 261.980469 227.488281 262.289062 223.441406 C 262.308594 223.160156 262.335938 222.890625 262.367188 222.625 C 262.003906 223.148438 261.609375 223.828125 261.246094 224.722656 C 261.011719 225.296875 260.847656 225.878906 260.6875 226.445312 C 260.375 227.550781 260.078125 228.59375 259.320312 229.488281 C 258.804688 230.097656 257.636719 230.617188 256.492188 230.375 C 255.5625 230.179688 254.882812 229.519531 254.585938 228.511719 C 254.03125 226.640625 253.976562 223.785156 255.203125 220.878906 L 256.535156 220.878906 C 255.210938 223.648438 255.230469 226.40625 255.75 228.167969 C 255.921875 228.742188 256.257812 229.085938 256.742188 229.1875 C 257.425781 229.335938 258.148438 228.992188 258.394531 228.703125 C 258.980469 228.011719 259.230469 227.132812 259.519531 226.113281 C 259.6875 225.515625 259.863281 224.902344 260.121094 224.265625 C 260.828125 222.535156 261.648438 221.476562 262.222656 220.878906 L 263.867188 220.878906 C 263.71875 221.628906 263.578125 222.53125 263.5 223.53125 C 263.21875 227.253906 263.480469 229.679688 264.300781 230.949219 C 264.703125 231.570312 265.199219 231.875 265.753906 231.796875 C 266.421875 231.714844 267.035156 231.109375 267.351562 230.253906 C 267.046875 228.765625 266.996094 226.804688 267.1875 224.269531 C 267.277344 223.066406 267.496094 221.882812 267.71875 220.878906 L 268.96875 220.878906 C 268.730469 221.890625 268.492188 223.128906 268.398438 224.363281 C 268.117188 228.082031 268.378906 230.507812 269.199219 231.78125 C 269.601562 232.402344 270.097656 232.691406 270.652344 232.625 C 271.316406 232.542969 271.929688 231.9375 272.25 231.085938 C 272.027344 229.148438 272.222656 224.496094 273.089844 220.878906 L 274.34375 220.878906 C 273.449219 224.398438 273.21875 229.273438 273.476562 231.09375 C 273.574219 231.804688 273.953125 232.3125 274.539062 232.515625 C 275.222656 232.753906 276.082031 232.542969 276.671875 231.988281 C 277.609375 231.101562 278.71875 226.933594 279.195312 224.519531 C 279.195312 224.515625 279.199219 224.511719 279.203125 224.507812 C 279.203125 224.5 279.199219 224.492188 279.203125 224.484375 C 279.503906 223.316406 279.820312 221.800781 280.003906 220.878906 L 281.246094 220.878906 C 281.082031 221.703125 280.769531 223.226562 280.453125 224.496094 C 280.8125 224.976562 281.179688 225.589844 281.566406 226.246094 C 282.15625 227.25 282.824219 228.382812 283.453125 228.90625 C 284.054688 229.40625 285.066406 229.613281 285.851562 229.402344 C 286.425781 229.25 286.816406 228.898438 287.015625 228.359375 C 287.394531 227.328125 285.917969 223.792969 283.835938 220.699219 C 283.585938 220.808594 283.316406 220.878906 283.035156 220.878906 L 281.425781 220.878906 C 281.625 220.878906 281.8125 220.78125 281.925781 220.617188 C 282.039062 220.453125 282.0625 220.242188 281.992188 220.054688 L 281.84375 219.664062 L 283.035156 219.664062 C 283.300781 219.664062 283.542969 219.539062 283.691406 219.320312 C 283.84375 219.101562 283.875 218.832031 283.78125 218.585938 L 260.722656 157.953125 C 260.492188 157.34375 259.898438 156.9375 259.246094 156.9375 L 257.992188 156.9375 L 257.679688 156.113281 C 257.589844 155.875 257.363281 155.71875 257.109375 155.71875 L 259.246094 155.71875 C 260.402344 155.71875 261.453125 156.445312 261.863281 157.523438 L 280.332031 206.097656 Z M 64.0625 159.488281 C 42.785156 146.867188 28.480469 123.671875 28.480469 97.1875 C 28.480469 57.265625 60.957031 24.789062 100.878906 24.789062 C 101.488281 24.789062 102.09375 24.820312 102.703125 24.835938 C 102.722656 24.960938 102.746094 25.101562 102.765625 25.21875 C 102.777344 25.28125 102.800781 25.335938 102.828125 25.386719 C 102.429688 25.488281 102.027344 25.648438 101.625 25.890625 C 100.675781 26.457031 100.019531 27.457031 99.726562 28.785156 C 99.242188 30.960938 99.785156 33.714844 101.078125 35.636719 C 102.613281 37.925781 105.339844 38.324219 106.582031 38.382812 L 106.601562 52.0625 L 106.601562 52.589844 C 106.601562 52.925781 106.875 53.199219 107.207031 53.199219 L 107.210938 53.199219 C 107.542969 53.199219 107.816406 52.925781 107.816406 52.589844 L 107.816406 52.367188 L 107.796875 37.777344 C 107.796875 37.609375 107.726562 37.449219 107.605469 37.335938 C 107.496094 37.234375 107.359375 37.183594 107.210938 37.175781 C 107.1875 37.175781 107.171875 37.167969 107.152344 37.167969 C 107.121094 37.167969 103.6875 37.339844 102.085938 34.960938 C 100.984375 33.324219 100.5 30.890625 100.914062 29.046875 C 101.066406 28.355469 101.421875 27.429688 102.246094 26.929688 C 104.371094 25.652344 106.640625 27.371094 106.816406 27.507812 C 106.964844 27.636719 107.082031 27.753906 107.210938 27.878906 C 107.878906 28.523438 108.296875 29.070312 108.605469 29.484375 C 109.089844 30.136719 109.507812 30.695312 110.414062 30.695312 C 112.152344 30.695312 116.136719 22.777344 119.039062 16.472656 C 119.167969 17.785156 119.574219 19.261719 120.589844 20.496094 C 121.199219 21.230469 121.894531 21.320312 122.375 21.277344 C 123.875 21.121094 125.496094 19.21875 126.648438 17.53125 L 126.128906 21.179688 C 126.085938 21.503906 126.304688 21.808594 126.625 21.863281 C 126.949219 21.921875 132.996094 22.960938 137.085938 22 C 136.925781 22.835938 136.761719 23.652344 136.605469 24.421875 C 136.144531 26.652344 135.75 28.578125 135.671875 30.132812 C 135.609375 31.382812 135.785156 32.8125 135.96875 34.328125 C 136.453125 38.300781 137.003906 42.796875 133.855469 46.546875 C 131.691406 49.121094 128.621094 50.691406 125.203125 50.960938 C 122.335938 51.195312 117.914062 50.597656 113.152344 46.476562 C 112.898438 46.261719 112.515625 46.289062 112.292969 46.539062 C 112.074219 46.792969 112.101562 47.179688 112.355469 47.398438 C 116.835938 51.273438 121.070312 52.21875 124.132812 52.21875 C 124.542969 52.21875 124.933594 52.203125 125.300781 52.175781 C 126.304688 52.09375 127.277344 51.902344 128.21875 51.625 L 128.21875 54.753906 C 128.21875 55.089844 128.488281 55.363281 128.824219 55.363281 C 129.160156 55.363281 129.433594 55.089844 129.433594 54.753906 L 129.433594 51.203125 C 131.496094 50.375 133.328125 49.0625 134.785156 47.328125 C 138.148438 43.324219 137.703125 38.546875 137.230469 34.617188 C 158.761719 47.179688 173.273438 70.511719 173.273438 97.1875 C 173.273438 109.875 169.980469 121.800781 164.222656 132.183594 L 164.222656 115.222656 C 164.222656 114.886719 163.953125 114.613281 163.617188 114.613281 C 163.28125 114.613281 163.007812 114.886719 163.007812 115.222656 L 163.007812 134.320312 C 158.851562 141.265625 153.609375 147.417969 147.40625 152.628906 L 148.152344 115.859375 C 148.152344 115.847656 148.144531 115.835938 148.144531 115.820312 L 148.152344 115.820312 L 148.152344 101.105469 L 146.9375 100.789062 L 146.9375 115.835938 L 146.171875 153.644531 L 146.164062 153.925781 C 146.160156 154.164062 146.292969 154.382812 146.507812 154.484375 C 146.589844 154.527344 146.683594 154.546875 146.773438 154.546875 C 146.910156 154.546875 147.046875 154.5 147.15625 154.410156 C 150.09375 152.03125 152.816406 149.433594 155.335938 146.660156 C 155.339844 146.65625 155.34375 146.652344 155.347656 146.648438 C 156.121094 145.796875 156.875 144.929688 157.605469 144.042969 C 157.636719 144.003906 157.671875 143.96875 157.703125 143.929688 C 158.394531 143.085938 159.066406 142.230469 159.722656 141.359375 C 159.789062 141.269531 159.855469 141.183594 159.921875 141.097656 C 160.527344 140.28125 161.113281 139.457031 161.683594 138.617188 C 161.789062 138.46875 161.890625 138.320312 161.992188 138.171875 C 162.515625 137.394531 163.019531 136.601562 163.511719 135.804688 C 163.640625 135.59375 163.773438 135.386719 163.902344 135.175781 C 163.980469 135.050781 164.0625 134.929688 164.136719 134.800781 C 164.148438 134.78125 164.144531 134.757812 164.15625 134.738281 C 170.710938 123.734375 174.488281 110.898438 174.488281 97.1875 C 174.488281 69.738281 159.378906 45.769531 137.050781 33.113281 C 136.929688 32.050781 136.84375 31.054688 136.886719 30.195312 C 136.960938 28.734375 137.347656 26.847656 137.792969 24.667969 C 137.992188 23.699219 138.203125 22.667969 138.402344 21.597656 C 138.980469 21.363281 139.484375 21.0625 139.878906 20.6875 C 141.605469 19.046875 142.675781 16.363281 142.675781 13.683594 C 142.679688 11.167969 141.730469 8.878906 140.011719 7.238281 C 136.785156 4.164062 124.6875 0.0507812 115.234375 0.875 C 110.191406 1.316406 106.511719 3.058594 104.300781 6.058594 C 101.203125 10.261719 101.847656 18.824219 102.519531 23.613281 C 101.972656 23.601562 101.425781 23.574219 100.875 23.574219 C 60.289062 23.574219 27.265625 56.597656 27.265625 97.1875 C 27.265625 124.441406 42.164062 148.265625 64.238281 160.992188 C 64.097656 160.871094 64.003906 160.703125 64.011719 160.515625 C 64.03125 160.183594 64.046875 159.832031 64.0625 159.488281 Z M 131.6875 27.59375 L 131.570312 30.101562 C 131.554688 30.433594 131.816406 30.71875 132.148438 30.734375 C 132.160156 30.734375 132.167969 30.734375 132.179688 30.734375 C 132.5 30.734375 132.769531 30.480469 132.785156 30.15625 L 132.902344 27.652344 C 132.917969 27.316406 132.65625 27.03125 132.324219 27.015625 C 131.957031 26.980469 131.703125 27.261719 131.6875 27.59375 Z M 122.066406 30.113281 C 122.390625 30.113281 122.660156 29.859375 122.675781 29.535156 L 122.789062 27.03125 C 122.804688 26.695312 122.546875 26.410156 122.210938 26.394531 C 121.855469 26.359375 121.589844 26.636719 121.574219 26.972656 L 121.460938 29.476562 C 121.445312 29.8125 121.703125 30.097656 122.039062 30.113281 C 122.046875 30.113281 122.058594 30.113281 122.066406 30.113281 Z M 126.757812 36.9375 C 126.445312 36.914062 126.140625 37.183594 126.125 37.515625 C 126.113281 37.851562 126.371094 38.136719 126.707031 38.148438 C 126.816406 38.15625 126.921875 38.15625 127.023438 38.15625 C 128.429688 38.15625 129.523438 37.738281 130.050781 36.988281 C 130.359375 36.550781 130.628906 35.792969 130.171875 34.65625 C 128.496094 30.523438 128.855469 28.265625 128.859375 28.238281 C 128.917969 27.910156 128.699219 27.59375 128.371094 27.535156 C 128.042969 27.46875 127.722656 27.691406 127.664062 28.019531 C 127.644531 28.125 127.21875 30.601562 129.042969 35.113281 C 129.246094 35.617188 129.253906 36.011719 129.058594 36.285156 C 128.742188 36.734375 127.859375 36.984375 126.757812 36.9375 Z M 135.03125 25.75 C 135.21875 25.75 135.402344 25.664062 135.523438 25.503906 C 135.722656 25.230469 135.664062 24.851562 135.394531 24.652344 C 133.558594 23.296875 131.191406 23.316406 131.097656 23.316406 C 130.761719 23.320312 130.492188 23.59375 130.5 23.929688 C 130.503906 24.265625 130.773438 24.484375 131.113281 24.53125 C 131.144531 24.519531 133.171875 24.519531 134.671875 25.628906 C 134.78125 25.710938 134.90625 25.75 135.03125 25.75 Z M 124.890625 22.863281 C 124.746094 22.832031 121.339844 22.085938 118.769531 24.050781 C 118.503906 24.253906 118.453125 24.632812 118.65625 24.902344 C 118.777344 25.058594 118.957031 25.140625 119.140625 25.140625 C 119.269531 25.140625 119.398438 25.101562 119.507812 25.015625 C 121.621094 23.40625 124.59375 24.042969 124.621094 24.050781 C 124.949219 24.125 125.277344 23.917969 125.347656 23.589844 C 125.421875 23.261719 125.21875 22.9375 124.890625 22.863281 Z M 140.582031 98.765625 C 141.210938 98.824219 142.855469 98.964844 144.984375 99.015625 C 148.492188 99.097656 153.3125 98.929688 157.070312 97.746094 C 157.367188 97.652344 157.644531 97.554688 157.917969 97.457031 C 158.425781 97.273438 158.894531 97.085938 159.324219 96.890625 C 160.265625 96.464844 161.023438 96 161.613281 95.5 C 162.085938 95.097656 162.457031 94.671875 162.714844 94.214844 C 162.722656 94.203125 162.730469 94.191406 162.738281 94.175781 C 163.371094 93.023438 163.269531 91.886719 163.152344 91.304688 C 163.457031 90.972656 163.90625 90.339844 164.253906 89.273438 C 164.644531 88.066406 164.472656 87.191406 164.304688 86.726562 C 164.667969 86.117188 165.433594 84.714844 165.476562 83.707031 C 165.515625 82.785156 165.078125 81.882812 164.785156 81.386719 C 166.035156 79.34375 165.214844 76.023438 165.179688 75.871094 C 165.144531 75.734375 165.054688 75.632812 164.945312 75.550781 C 164.875 75.496094 164.796875 75.441406 164.703125 75.425781 C 164.472656 75.378906 164.234375 75.472656 164.097656 75.664062 C 164.089844 75.671875 163.871094 75.960938 163.488281 76.308594 C 162.910156 76.835938 161.953125 77.496094 160.734375 77.535156 C 158.660156 77.59375 148.851562 78.164062 146.300781 78.3125 L 146.003906 74.886719 L 145.925781 74.011719 C 145.898438 73.683594 145.609375 73.449219 145.285156 73.457031 C 145.230469 73.460938 145.171875 73.476562 145.117188 73.480469 C 140.8125 73.882812 136.96875 80.101562 136.269531 81.292969 L 105.296875 94.019531 L 95.425781 73.300781 C 95.28125 73 94.921875 72.867188 94.617188 73.015625 C 94.3125 73.160156 94.183594 73.523438 94.328125 73.824219 L 104.433594 95.03125 L 104.445312 95.0625 C 104.453125 95.074219 104.464844 95.078125 104.472656 95.089844 C 104.515625 95.171875 104.574219 95.234375 104.644531 95.285156 C 104.667969 95.300781 104.6875 95.316406 104.710938 95.328125 C 104.796875 95.375 104.894531 95.40625 104.992188 95.40625 C 104.992188 95.40625 104.996094 95.40625 104.996094 95.40625 C 105.007812 95.40625 105.023438 95.398438 105.035156 95.398438 C 105.101562 95.394531 105.164062 95.386719 105.226562 95.363281 L 136.925781 82.335938 C 137.050781 82.285156 137.15625 82.191406 137.222656 82.074219 C 137.261719 82.003906 140.914062 75.566406 144.769531 74.75 L 145.140625 79.003906 C 145.171875 79.332031 145.464844 79.585938 145.78125 79.558594 C 145.910156 79.550781 158.449219 78.816406 160.769531 78.75 C 162.28125 78.707031 163.457031 77.957031 164.199219 77.3125 C 164.332031 78.492188 164.3125 80.09375 163.582031 80.988281 C 163.574219 80.996094 163.578125 81.007812 163.570312 81.015625 C 163.5625 81.03125 163.546875 81.039062 163.535156 81.054688 C 162.535156 82.675781 160.019531 82.664062 159.988281 82.667969 C 159.664062 82.707031 159.378906 82.933594 159.375 83.269531 C 159.371094 83.601562 159.636719 83.878906 159.972656 83.882812 C 159.976562 83.882812 159.988281 83.882812 160.003906 83.882812 C 160.308594 83.882812 162.519531 83.828125 163.957031 82.441406 C 164.128906 82.8125 164.28125 83.253906 164.261719 83.65625 C 164.234375 84.351562 163.539062 85.679688 163.105469 86.355469 C 163.105469 86.355469 163.105469 86.355469 163.105469 86.359375 C 162.46875 87.363281 160.152344 87.515625 159.398438 87.484375 C 159.070312 87.464844 158.78125 87.734375 158.769531 88.070312 C 158.757812 88.40625 159.019531 88.6875 159.355469 88.699219 C 159.398438 88.703125 159.484375 88.703125 159.605469 88.703125 C 160.292969 88.703125 162.058594 88.613281 163.273438 87.832031 C 163.277344 88.117188 163.234375 88.472656 163.097656 88.898438 C 162.683594 90.171875 162.121094 90.617188 162.121094 90.617188 C 162.113281 90.625 162.109375 90.636719 162.101562 90.644531 C 162.078125 90.664062 162.050781 90.675781 162.03125 90.695312 C 161.449219 91.308594 159.609375 91.574219 158.585938 91.59375 C 158.253906 91.601562 157.984375 91.878906 157.992188 92.214844 C 158 92.546875 158.269531 92.808594 158.601562 92.808594 C 158.605469 92.808594 158.609375 92.808594 158.613281 92.808594 C 158.867188 92.804688 160.707031 92.738281 162.019531 92.125 C 162.027344 92.542969 161.960938 93.066406 161.671875 93.59375 C 161.050781 94.734375 159.378906 95.742188 156.703125 96.585938 C 150.398438 98.574219 140.550781 97.539062 140.449219 97.53125 C 140.28125 97.511719 140.117188 97.5625 139.988281 97.671875 C 139.683594 97.9375 109.320312 123.921875 94.839844 123.921875 C 94.835938 123.921875 94.835938 123.921875 94.835938 123.921875 C 83.414062 123.921875 77.757812 106.25 77.703125 106.070312 C 77.699219 106.058594 77.6875 106.050781 77.683594 106.039062 C 77.683594 106.03125 77.683594 106.027344 77.679688 106.023438 C 77.679688 106.015625 77.679688 106.007812 77.675781 106 L 69.164062 87.28125 L 69.101562 87.136719 C 68.960938 86.832031 68.605469 86.695312 68.292969 86.835938 C 67.988281 86.972656 67.855469 87.335938 67.992188 87.640625 L 68.898438 89.632812 L 76.554688 106.46875 C 76.890625 107.535156 82.632812 125.136719 94.839844 125.136719 C 108.894531 125.136719 136.085938 102.574219 140.269531 99.03125 C 140.390625 98.925781 140.5 98.835938 140.582031 98.765625 Z M 319.636719 129.765625 C 319.753906 129.609375 319.941406 129.523438 320.140625 129.523438 C 320.199219 129.527344 326.167969 129.667969 328.859375 128.191406 C 329.039062 128.09375 329.261719 128.09375 329.445312 128.191406 C 329.628906 128.292969 329.746094 128.480469 329.757812 128.691406 C 329.84375 130.207031 329.085938 133.292969 325.574219 134.097656 C 325.160156 134.191406 324.761719 134.234375 324.390625 134.234375 C 321.59375 134.234375 320.015625 131.78125 319.546875 130.316406 C 319.484375 130.128906 319.519531 129.921875 319.636719 129.765625 Z M 321.058594 130.742188 C 321.628906 131.796875 322.933594 133.449219 325.304688 132.910156 C 327.570312 132.394531 328.257812 130.757812 328.460938 129.699219 C 326.085938 130.574219 322.695312 130.722656 321.058594 130.742188 Z M 317.609375 114.933594 C 317.273438 114.949219 317.015625 115.234375 317.03125 115.570312 L 317.144531 118.074219 C 317.160156 118.398438 317.429688 118.652344 317.753906 118.652344 C 317.761719 118.652344 317.773438 118.652344 317.78125 118.652344 C 318.117188 118.636719 318.375 118.351562 318.359375 118.015625 L 318.242188 115.511719 C 318.230469 115.175781 317.933594 114.90625 317.609375 114.933594 Z M 327.863281 118.03125 C 327.875 118.03125 327.882812 118.03125 327.890625 118.03125 C 328.226562 118.015625 328.488281 117.730469 328.46875 117.394531 L 328.355469 114.890625 C 328.339844 114.554688 328.050781 114.28125 327.71875 114.3125 C 327.382812 114.328125 327.125 114.613281 327.140625 114.945312 L 327.257812 117.449219 C 327.273438 117.777344 327.542969 118.03125 327.863281 118.03125 Z M 319.878906 124.902344 C 320.410156 125.65625 321.503906 126.074219 322.90625 126.074219 C 323.011719 126.074219 323.117188 126.070312 323.222656 126.066406 C 323.558594 126.050781 323.820312 125.769531 323.804688 125.433594 C 323.792969 125.097656 323.496094 124.828125 323.171875 124.851562 C 322.066406 124.898438 321.191406 124.652344 320.871094 124.203125 C 320.679688 123.929688 320.683594 123.53125 320.890625 123.03125 C 322.714844 118.519531 322.289062 116.042969 322.269531 115.9375 C 322.210938 115.609375 321.898438 115.386719 321.566406 115.453125 C 321.238281 115.511719 321.015625 115.824219 321.074219 116.15625 C 321.078125 116.175781 321.4375 118.433594 319.761719 122.574219 C 319.300781 123.710938 319.570312 124.46875 319.878906 124.902344 Z M 293.070312 228.417969 C 292.554688 227.808594 292.152344 226.679688 293.136719 224.765625 C 294.460938 222.195312 296.9375 219.527344 299.960938 217.503906 C 300.207031 217.335938 300.464844 217.183594 300.71875 217.027344 L 300.722656 216.289062 L 300.769531 211.507812 L 300.78125 210.292969 L 300.882812 199.3125 L 300.882812 199.046875 C 300.609375 198.867188 300.195312 198.558594 299.730469 198.097656 C 298.820312 197.1875 297.71875 195.675781 297.082031 193.316406 C 296.980469 192.9375 296.894531 192.527344 296.816406 192.101562 C 296.664062 191.230469 296.5625 190.273438 296.558594 189.203125 C 296.539062 186.375 297.453125 183.5625 298.621094 181.121094 C 298.820312 180.707031 299.027344 180.300781 299.238281 179.90625 C 300.3125 177.90625 301.496094 176.234375 302.347656 175.128906 C 302.789062 174.558594 303.132812 174.148438 303.335938 173.914062 C 303.4375 173.800781 303.511719 173.710938 303.535156 173.6875 C 303.757812 173.4375 304.144531 173.417969 304.394531 173.644531 C 304.476562 173.71875 304.523438 173.8125 304.554688 173.914062 C 304.617188 174.113281 304.585938 174.335938 304.4375 174.5 C 304.425781 174.515625 304.222656 174.746094 303.910156 175.128906 C 303.203125 175.996094 301.890625 177.71875 300.648438 179.90625 C 300.425781 180.300781 300.210938 180.703125 299.996094 181.125 C 298.761719 183.554688 297.757812 186.394531 297.773438 189.195312 C 297.777344 190.289062 297.886719 191.246094 298.054688 192.101562 C 298.136719 192.53125 298.234375 192.941406 298.347656 193.316406 C 299.308594 196.519531 301.179688 197.8125 301.65625 198.097656 C 301.710938 198.132812 301.757812 198.15625 301.769531 198.164062 C 301.972656 198.269531 302.105469 198.480469 302.101562 198.710938 L 302.097656 199.3125 L 301.996094 210.292969 L 301.984375 211.507812 L 301.941406 216.289062 L 301.941406 216.324219 C 301.964844 216.3125 301.984375 216.300781 302.007812 216.289062 C 304.515625 214.964844 307.273438 214.121094 310.007812 214.121094 C 310.011719 214.121094 310.015625 214.121094 310.019531 214.121094 C 311.519531 214.121094 312.964844 214.246094 314.351562 214.457031 L 358.410156 213.304688 L 358.367188 211.507812 L 358.339844 210.292969 L 358.085938 199.3125 L 358.058594 198.097656 L 357.945312 193.316406 L 357.917969 192.101562 L 357.664062 181.121094 L 357.632812 179.90625 L 357.523438 175.128906 L 357.507812 174.535156 C 357.503906 174.199219 357.765625 173.921875 358.101562 173.914062 C 358.445312 173.914062 358.71875 174.171875 358.726562 174.503906 L 358.738281 175.128906 L 358.851562 179.90625 L 358.878906 181.121094 L 359.132812 192.101562 L 359.164062 193.316406 L 359.273438 198.097656 L 359.300781 199.3125 L 359.558594 210.292969 L 359.585938 211.507812 L 359.640625 213.882812 C 359.648438 214.21875 359.382812 214.496094 359.046875 214.503906 L 318.941406 215.554688 C 319.601562 215.777344 320.234375 216.023438 320.851562 216.289062 C 321.722656 216.660156 322.550781 217.0625 323.320312 217.503906 C 326.710938 219.433594 329.128906 221.945312 330.183594 224.386719 C 330.933594 226.121094 330.722656 227.511719 330.316406 228.480469 C 330.242188 228.660156 330.164062 228.824219 330.082031 228.972656 C 329.9375 229.230469 329.765625 229.46875 329.574219 229.699219 C 329.203125 230.15625 328.75 230.558594 328.226562 230.894531 C 335.320312 231.414062 354.195312 232.710938 363.367188 232.554688 C 363.371094 232.554688 363.371094 232.554688 363.371094 232.554688 C 363.375 232.554688 363.378906 232.554688 363.382812 232.554688 C 363.714844 232.554688 363.984375 232.820312 363.988281 233.152344 C 363.996094 233.488281 363.726562 233.765625 363.390625 233.769531 C 363.222656 233.773438 363.027344 233.773438 362.851562 233.777344 C 362.507812 233.777344 362.167969 233.785156 361.800781 233.785156 C 349.949219 233.785156 326.566406 231.992188 325.410156 231.902344 C 324.949219 231.964844 324.441406 232 323.898438 232 C 321.492188 232 318.480469 231.324219 316.425781 229.699219 C 315.976562 229.34375 315.585938 228.933594 315.246094 228.480469 C 315.234375 228.46875 315.226562 228.457031 315.214844 228.441406 C 315.203125 228.457031 315.191406 228.46875 315.179688 228.480469 C 314.808594 228.894531 314.453125 229.308594 314.128906 229.699219 C 313.925781 229.945312 313.726562 230.183594 313.546875 230.40625 C 313.246094 230.773438 312.980469 231.097656 312.761719 231.347656 C 312.105469 232.089844 311.183594 232.511719 310.21875 232.511719 C 310.191406 232.511719 310.160156 232.511719 310.132812 232.511719 C 309.328125 232.488281 308.609375 232.175781 308.210938 231.667969 C 308.191406 231.644531 308.183594 231.617188 308.167969 231.589844 C 307.628906 232.007812 306.914062 232.25 306.152344 232.25 C 306.070312 232.25 305.984375 232.246094 305.902344 232.242188 C 305.054688 232.183594 304.320312 231.835938 303.886719 231.285156 C 303.886719 231.285156 303.886719 231.285156 303.886719 231.28125 C 303.351562 231.671875 302.730469 231.898438 302.109375 231.898438 C 301.96875 231.898438 301.824219 231.886719 301.683594 231.863281 C 300.789062 231.714844 300.085938 231.089844 299.757812 230.15625 C 299.710938 230.015625 299.671875 229.859375 299.636719 229.699219 C 299.554688 229.339844 299.515625 228.929688 299.523438 228.484375 C 299.527344 228.097656 299.570312 227.679688 299.65625 227.238281 C 299.460938 227.351562 299.253906 227.46875 299.070312 227.578125 C 298.507812 227.910156 297.988281 228.214844 297.488281 228.484375 C 296.933594 228.777344 296.410156 229.023438 295.898438 229.183594 C 295.0625 229.445312 293.875 229.273438 293.144531 228.484375 C 293.121094 228.457031 293.089844 228.445312 293.070312 228.417969 Z M 294 227.636719 C 294.355469 228.058594 295.074219 228.164062 295.53125 228.023438 C 296.375 227.757812 297.335938 227.1875 298.449219 226.53125 C 298.992188 226.207031 299.574219 225.871094 300.171875 225.546875 C 300.398438 225 300.679688 224.433594 301.050781 223.855469 C 303.152344 220.578125 306.867188 217.828125 307.023438 217.710938 C 307.289062 217.511719 307.671875 217.566406 307.871094 217.839844 C 308.070312 218.109375 308.015625 218.492188 307.742188 218.691406 C 307.738281 218.695312 307.625 218.777344 307.441406 218.921875 C 306.53125 219.632812 303.722656 221.9375 302.074219 224.511719 C 300.640625 226.75 300.550781 228.734375 300.90625 229.75 C 301.089844 230.273438 301.429688 230.589844 301.886719 230.667969 C 302.402344 230.75 302.988281 230.515625 303.421875 230.082031 C 303.238281 228.765625 303.753906 226.855469 305.441406 224.671875 C 307.046875 222.59375 309.527344 220.316406 310.640625 219.332031 C 310.96875 219.042969 311.183594 218.859375 311.214844 218.832031 C 311.472656 218.613281 311.855469 218.644531 312.074219 218.898438 C 312.234375 219.085938 312.253906 219.34375 312.15625 219.550781 C 312.121094 219.628906 312.074219 219.699219 312.003906 219.757812 C 311.96875 219.789062 308.402344 222.828125 306.402344 225.417969 C 304.390625 228.023438 304.378906 229.941406 304.847656 230.539062 C 305.0625 230.8125 305.488281 230.996094 305.984375 231.03125 C 306.601562 231.074219 307.199219 230.882812 307.550781 230.539062 C 307.597656 230.496094 307.65625 230.464844 307.710938 230.4375 C 307.5 228.875 308.574219 227.023438 309.519531 225.648438 C 310.996094 223.503906 314.289062 221.234375 315.53125 220.421875 C 315.804688 220.242188 315.980469 220.132812 316.015625 220.109375 C 316.304688 219.933594 316.675781 220.023438 316.851562 220.308594 C 317.027344 220.59375 316.941406 220.96875 316.65625 221.144531 C 316.652344 221.144531 316.636719 221.15625 316.625 221.160156 C 316.332031 221.347656 312.125 224.003906 310.523438 226.335938 C 308.988281 228.570312 308.53125 230.109375 309.167969 230.914062 C 309.308594 231.09375 309.671875 231.28125 310.164062 231.296875 C 310.542969 231.320312 311.25 231.222656 311.851562 230.542969 C 312.0625 230.300781 312.316406 229.992188 312.609375 229.636719 C 313.988281 227.949219 316.074219 225.40625 318.363281 224.351562 C 318.378906 224.34375 318.390625 224.335938 318.40625 224.328125 C 318.707031 224.191406 319.070312 224.324219 319.207031 224.632812 C 319.347656 224.9375 319.210938 225.296875 318.90625 225.433594 C 317.917969 225.882812 316.949219 226.679688 316.054688 227.566406 C 317.855469 230.226562 322.476562 231.105469 325.3125 230.691406 C 326.960938 230.449219 328.347656 229.585938 329.019531 228.382812 C 329.597656 227.347656 329.613281 226.132812 329.070312 224.867188 C 327.042969 220.183594 319.363281 215.335938 310.019531 215.335938 C 310.015625 215.335938 310.011719 215.335938 310.007812 215.335938 C 303.640625 215.339844 296.703125 220.503906 294.21875 225.324219 C 293.6875 226.351562 293.609375 227.171875 294 227.636719 Z M 203.03125 180.421875 C 203.03125 180.757812 203.304688 181.027344 203.640625 181.027344 L 229.867188 181.027344 C 230.203125 181.027344 230.472656 180.757812 230.472656 180.421875 C 230.472656 180.085938 230.203125 179.8125 229.867188 179.8125 L 203.640625 179.8125 C 203.304688 179.8125 203.03125 180.085938 203.03125 180.421875 Z M 205.296875 185.394531 L 231.523438 185.394531 C 231.859375 185.394531 232.132812 185.121094 232.132812 184.785156 C 232.132812 184.449219 231.859375 184.179688 231.523438 184.179688 L 205.296875 184.179688 C 204.960938 184.179688 204.691406 184.449219 204.691406 184.785156 C 204.691406 185.121094 204.960938 185.394531 205.296875 185.394531 Z M 206.957031 189.757812 L 233.183594 189.757812 C 233.519531 189.757812 233.792969 189.488281 233.792969 189.152344 C 233.792969 188.816406 233.519531 188.542969 233.183594 188.542969 L 206.957031 188.542969 C 206.621094 188.542969 206.351562 188.816406 206.351562 189.152344 C 206.351562 189.488281 206.621094 189.757812 206.957031 189.757812 Z M 208.617188 194.125 L 234.84375 194.125 C 235.179688 194.125 235.453125 193.851562 235.453125 193.515625 C 235.453125 193.179688 235.179688 192.90625 234.84375 192.90625 L 208.617188 192.90625 C 208.28125 192.90625 208.011719 193.179688 208.011719 193.515625 C 208.011719 193.851562 208.28125 194.125 208.617188 194.125 Z M 306.914062 139.691406 C 306.320312 139.085938 304.386719 136.8125 304.921875 133.53125 C 305.480469 130.109375 308.554688 128.546875 309.265625 128.222656 C 308.46875 126.816406 308.007812 125.191406 308.007812 123.457031 C 308.007812 119.746094 310.101562 116.515625 313.171875 114.878906 C 313.070312 114.367188 312.960938 113.835938 312.847656 113.285156 C 312.441406 111.304688 311.980469 109.066406 311.6875 106.757812 C 311.511719 105.359375 311.148438 100.574219 313.96875 97.640625 C 314.289062 97.3125 314.648438 97.003906 315.015625 96.703125 C 316.921875 92.683594 319.855469 89.910156 327.835938 89.414062 C 330.136719 89.273438 332.730469 89.324219 335.257812 89.800781 C 335.992188 89.820312 345.691406 90.214844 350.578125 99.144531 C 352.34375 102.367188 352.96875 105.386719 353.632812 108.582031 C 354.296875 111.773438 354.996094 115.078125 356.828125 119.164062 C 356.949219 119.402344 357.058594 119.648438 357.160156 119.898438 C 357.164062 119.910156 357.167969 119.921875 357.175781 119.933594 C 358.480469 122.6875 360.246094 124.75 362.113281 126.933594 C 364.488281 129.707031 366.941406 132.578125 368.5625 137.066406 C 369.519531 139.714844 370.6875 144.800781 367.753906 149.074219 C 366.613281 150.738281 364.96875 152.097656 362.847656 153.15625 C 362.402344 152.914062 361.953125 152.679688 361.496094 152.449219 C 354.167969 148.742188 346.105469 146.59375 344.0625 146.082031 C 343.820312 146.023438 343.65625 145.980469 343.59375 145.96875 C 343.453125 145.933594 343.308594 145.953125 343.179688 146.015625 C 343.171875 146.023438 343.050781 146.082031 342.847656 146.183594 L 342.828125 131.597656 C 340.167969 129.863281 338.40625 126.867188 338.40625 123.460938 C 338.40625 122.304688 338.617188 121.199219 338.988281 120.171875 L 335.25 106.023438 C 334.839844 107.125 334.363281 108.730469 334.179688 110.589844 C 334.148438 110.898438 333.886719 111.136719 333.574219 111.136719 C 333.570312 111.136719 333.566406 111.136719 333.5625 111.136719 C 333.460938 111.136719 323.355469 110.949219 313.640625 111.066406 C 313.773438 111.742188 313.910156 112.410156 314.039062 113.039062 C 314.496094 115.269531 314.890625 117.195312 314.96875 118.75 C 315.03125 119.996094 314.859375 121.429688 314.671875 122.941406 C 314.1875 126.914062 313.636719 131.414062 316.789062 135.164062 C 318.953125 137.738281 322.023438 139.304688 325.4375 139.578125 C 328.296875 139.808594 332.726562 139.214844 337.492188 135.09375 C 337.746094 134.875 338.128906 134.898438 338.351562 135.15625 C 338.570312 135.410156 338.542969 135.792969 338.289062 136.011719 C 333.804688 139.886719 329.574219 140.835938 326.507812 140.835938 C 326.097656 140.835938 325.707031 140.816406 325.34375 140.789062 C 324.339844 140.707031 323.363281 140.519531 322.425781 140.238281 L 322.425781 147.359375 C 322.328125 147.273438 322.277344 147.21875 322.273438 147.214844 C 322.128906 147.054688 321.910156 146.980469 321.695312 147.023438 C 321.640625 147.035156 321.46875 147.070312 321.210938 147.128906 C 319.964844 147.417969 316.539062 148.28125 312.441406 149.992188 C 312.058594 150.152344 311.667969 150.320312 311.277344 150.496094 C 310.878906 150.027344 310.546875 149.53125 310.328125 148.984375 C 309.417969 146.707031 309.046875 144.480469 309.050781 142.269531 C 309.429688 142.429688 309.835938 142.542969 310.273438 142.597656 C 310.480469 142.625 310.6875 142.648438 310.902344 142.648438 C 313.121094 142.648438 314.925781 141.191406 314.925781 139.402344 C 314.925781 137.691406 313.277344 136.300781 311.199219 136.175781 C 311.097656 136.171875 311.003906 136.152344 310.902344 136.152344 C 310.554688 136.152344 310.226562 136.199219 309.90625 136.265625 C 310.367188 134.535156 310.984375 132.804688 311.695312 131.0625 C 311.03125 130.535156 310.445312 129.925781 309.9375 129.246094 C 309.914062 129.257812 309.894531 129.277344 309.871094 129.289062 C 309.835938 129.304688 306.632812 130.625 306.125 133.730469 C 305.800781 135.714844 306.574219 137.253906 307.199219 138.132812 C 306.996094 138.523438 306.878906 138.953125 306.878906 139.402344 C 306.878906 139.5 306.902344 139.59375 306.914062 139.691406 Z M 348.125 114.957031 C 343.433594 114.957031 339.621094 118.769531 339.621094 123.460938 C 339.621094 128.148438 343.433594 131.960938 348.125 131.960938 C 352.8125 131.960938 356.628906 128.148438 356.628906 123.460938 C 356.628906 118.769531 352.8125 114.957031 348.125 114.957031 Z M 317.238281 95.253906 C 320.195312 93.671875 324.019531 92.8125 328.167969 92.910156 C 333.164062 93.027344 337.386719 94.515625 339.46875 96.890625 C 343.785156 101.8125 344.089844 111.441406 344.066406 114.640625 C 345.125 114.148438 346.285156 113.847656 347.511719 113.769531 C 347.464844 111.324219 347.113281 101.648438 344.289062 96.855469 C 340.882812 91.078125 333.5 90.28125 327.910156 90.628906 C 321.902344 91.003906 319.046875 92.652344 317.238281 95.253906 Z M 313.390625 130.757812 C 312.832031 128.011719 313.167969 125.222656 313.464844 122.796875 C 313.644531 121.332031 313.8125 119.949219 313.753906 118.808594 C 313.714844 118.035156 313.585938 117.136719 313.410156 116.148438 C 310.910156 117.628906 309.222656 120.347656 309.222656 123.460938 C 309.222656 126.5625 310.898438 129.273438 313.390625 130.757812 Z M 410.734375 242.152344 C 410.734375 244.25 409.035156 245.949219 406.9375 245.949219 L 120.675781 245.949219 C 118.578125 245.949219 116.878906 244.25 116.878906 242.152344 C 116.878906 240.054688 118.578125 238.351562 120.675781 238.351562 L 201.46875 238.351562 C 201.109375 238.230469 200.789062 238.007812 200.5625 237.691406 C 200.214844 237.203125 200.125 236.578125 200.320312 236.011719 L 205.550781 220.878906 L 205.972656 219.664062 L 211.910156 202.488281 C 211.996094 202.242188 212.226562 202.078125 212.484375 202.078125 L 237.574219 202.078125 C 237.769531 202.078125 237.953125 202.175781 238.070312 202.335938 C 238.183594 202.496094 238.210938 202.699219 238.148438 202.886719 L 232.347656 219.664062 L 231.929688 220.878906 L 227.648438 233.253906 C 227.597656 233.40625 227.621094 233.5625 227.714844 233.691406 C 227.730469 233.71875 227.757812 233.730469 227.78125 233.753906 C 227.871094 233.835938 227.976562 233.894531 228.105469 233.894531 L 253.234375 233.894531 C 254.035156 233.894531 254.738281 234.308594 255.148438 234.9375 C 255.382812 235.292969 255.519531 235.722656 255.519531 236.179688 C 255.519531 236.53125 255.433594 236.863281 255.289062 237.164062 C 255.019531 237.730469 254.519531 238.164062 253.910156 238.351562 L 406.9375 238.351562 C 409.035156 238.351562 410.734375 240.054688 410.734375 242.152344 Z M 253.234375 237.25 C 253.828125 237.25 254.304688 236.769531 254.304688 236.179688 C 254.304688 235.589844 253.828125 235.109375 253.234375 235.109375 L 228.105469 235.109375 C 227.558594 235.109375 227.039062 234.84375 226.722656 234.398438 C 226.40625 233.953125 226.320312 233.375 226.5 232.859375 L 236.71875 203.292969 L 212.917969 203.292969 L 201.472656 236.410156 C 201.402344 236.605469 201.433594 236.816406 201.554688 236.984375 C 201.671875 237.152344 201.863281 237.25 202.070312 237.25 Z M 119.980469 39.824219 C 120.042969 39.84375 126.472656 41.578125 130.972656 40.582031 C 131.1875 40.539062 131.40625 40.605469 131.550781 40.761719 C 131.699219 40.921875 131.75 41.148438 131.6875 41.351562 C 131.628906 41.550781 130.183594 46.164062 126.1875 46.441406 C 126.03125 46.453125 125.875 46.457031 125.726562 46.457031 C 121.671875 46.457031 119.707031 42.640625 119.226562 40.546875 C 119.179688 40.339844 119.246094 40.121094 119.398438 39.972656 C 119.554688 39.824219 119.777344 39.773438 119.980469 39.824219 Z M 120.730469 41.261719 C 121.324219 42.773438 122.832031 45.460938 126.105469 45.226562 C 128.277344 45.078125 129.542969 43.164062 130.128906 41.964844 C 126.640625 42.421875 122.617188 41.6875 120.730469 41.261719 Z M 198.140625 13.613281 L 281.210938 13.613281 C 281.546875 13.613281 281.820312 13.34375 281.820312 13.007812 C 281.820312 12.671875 281.546875 12.398438 281.210938 12.398438 L 198.140625 12.398438 C 197.804688 12.398438 197.53125 12.671875 197.53125 13.007812 C 197.53125 13.34375 197.804688 13.613281 198.140625 13.613281 Z M 198.140625 25.773438 L 281.210938 25.773438 C 281.546875 25.773438 281.820312 25.5 281.820312 25.164062 C 281.820312 24.828125 281.546875 24.554688 281.210938 24.554688 L 198.140625 24.554688 C 197.804688 24.554688 197.53125 24.828125 197.53125 25.164062 C 197.53125 25.5 197.804688 25.773438 198.140625 25.773438 Z M 198.140625 37.929688 L 281.210938 37.929688 C 281.546875 37.929688 281.820312 37.65625 281.820312 37.320312 C 281.820312 36.984375 281.546875 36.714844 281.210938 36.714844 L 198.140625 36.714844 C 197.804688 36.714844 197.53125 36.984375 197.53125 37.320312 C 197.53125 37.65625 197.804688 37.929688 198.140625 37.929688 Z M 225.074219 109.476562 C 222.4375 109.476562 220.292969 107.328125 220.292969 104.691406 C 220.292969 102.050781 222.4375 99.90625 225.074219 99.90625 C 227.714844 99.90625 229.863281 102.050781 229.863281 104.691406 C 229.863281 107.328125 227.714844 109.476562 225.074219 109.476562 Z M 225.074219 108.257812 C 227.042969 108.257812 228.648438 106.660156 228.648438 104.691406 C 228.648438 102.722656 227.042969 101.121094 225.074219 101.121094 C 223.109375 101.121094 221.507812 102.722656 221.507812 104.691406 C 221.507812 106.660156 223.109375 108.257812 225.074219 108.257812 Z M 242.8125 99.90625 C 245.453125 99.90625 247.597656 102.050781 247.597656 104.691406 C 247.597656 107.328125 245.453125 109.476562 242.8125 109.476562 C 240.175781 109.476562 238.027344 107.328125 238.027344 104.691406 C 238.027344 102.050781 240.175781 99.90625 242.8125 99.90625 Z M 242.8125 101.121094 C 240.84375 101.121094 239.242188 102.722656 239.242188 104.691406 C 239.242188 106.660156 240.84375 108.257812 242.8125 108.257812 C 244.78125 108.257812 246.382812 106.660156 246.382812 104.691406 C 246.382812 102.722656 244.78125 101.121094 242.8125 101.121094 Z M 255.765625 104.691406 C 255.765625 102.050781 257.910156 99.90625 260.546875 99.90625 C 263.1875 99.90625 265.335938 102.050781 265.335938 104.691406 C 265.335938 107.328125 263.1875 109.476562 260.546875 109.476562 C 257.910156 109.476562 255.765625 107.328125 255.765625 104.691406 Z M 256.980469 104.691406 C 256.980469 106.660156 258.578125 108.257812 260.546875 108.257812 C 262.519531 108.257812 264.121094 106.660156 264.121094 104.691406 C 264.121094 102.722656 262.515625 101.121094 260.546875 101.121094 C 258.582031 101.121094 256.980469 102.722656 256.980469 104.691406 Z M 316.347656 26.628906 C 316.25 26.304688 316.433594 25.96875 316.753906 25.871094 C 333.195312 20.957031 348.605469 21.75 357.976562 27.996094 C 363.773438 31.855469 367.109375 37.601562 367.894531 45.074219 C 368.1875 47.875 368.101562 50.859375 367.625 53.824219 C 372.738281 54.0625 379.179688 55.675781 382.65625 61.671875 C 392.050781 77.875 379.238281 96.867188 379.105469 97.058594 C 378.988281 97.230469 378.800781 97.320312 378.605469 97.320312 C 378.488281 97.320312 378.367188 97.289062 378.261719 97.214844 C 377.984375 97.027344 377.914062 96.648438 378.105469 96.371094 C 378.230469 96.1875 390.609375 77.816406 381.605469 62.28125 C 378.367188 56.703125 372.25 55.230469 367.40625 55.03125 C 365.820312 63.082031 361.324219 70.816406 353.6875 74.273438 C 349.25 76.285156 345.101562 75.859375 342.589844 73.136719 C 340.527344 70.90625 339.972656 68.359375 340.988281 65.773438 C 343.261719 59.996094 353.457031 54.664062 363.714844 53.886719 C 364.539062 53.824219 365.46875 53.785156 366.46875 53.792969 C 366.902344 51.105469 367.003906 48.222656 366.683594 45.199219 C 365.9375 38.105469 362.785156 32.660156 357.304688 29.007812 C 348.226562 22.960938 333.199219 22.222656 317.105469 27.035156 C 316.777344 27.132812 316.441406 26.949219 316.347656 26.628906 Z M 366.246094 55.007812 C 366.230469 55.007812 366.21875 55.007812 366.203125 55.007812 C 365.335938 55.007812 364.527344 55.046875 363.808594 55.101562 C 353.964844 55.84375 344.238281 60.832031 342.121094 66.21875 C 341.273438 68.371094 341.730469 70.417969 343.480469 72.3125 C 345.621094 74.628906 349.246094 74.949219 353.183594 73.167969 C 359 70.535156 364.445312 63.890625 366.246094 55.007812 Z M 117.996094 215.898438 C 118.253906 215.898438 118.484375 215.734375 118.570312 215.492188 L 127.296875 190.28125 C 127.375 190.0625 127.316406 189.816406 127.152344 189.652344 C 126.988281 189.488281 126.746094 189.433594 126.523438 189.507812 L 101.316406 198.238281 C 101.207031 198.273438 101.121094 198.347656 101.050781 198.433594 C 101.035156 198.453125 101.023438 198.46875 101.011719 198.492188 C 100.953125 198.582031 100.914062 198.683594 100.910156 198.796875 C 100.910156 198.8125 100.917969 198.828125 100.917969 198.84375 C 100.921875 198.898438 100.921875 198.953125 100.941406 199.011719 C 100.953125 199.054688 100.984375 199.085938 101.003906 199.121094 C 101.015625 199.140625 101.027344 199.160156 101.039062 199.175781 C 101.105469 199.265625 101.191406 199.328125 101.292969 199.367188 C 101.421875 199.421875 101.570312 199.433594 101.714844 199.386719 L 125.738281 191.066406 L 118.003906 213.40625 L 114.515625 203.003906 C 114.488281 202.914062 114.4375 202.84375 114.378906 202.78125 C 114.363281 202.765625 114.347656 202.753906 114.328125 202.742188 C 114.28125 202.699219 114.226562 202.664062 114.167969 202.636719 C 114.035156 202.585938 113.890625 202.570312 113.746094 202.621094 C 113.425781 202.726562 113.257812 203.070312 113.363281 203.390625 L 113.457031 203.671875 L 117.417969 215.484375 C 117.5 215.734375 117.679688 215.878906 117.996094 215.898438 Z M 117.996094 215.898438 " fill-opacity="1" fill-rule="nonzero"/></g></svg>